<svg width="356" height="436" viewBox="0 0 356 436" fill="none" xmlns="http://www.w3.org/2000/svg">
<g filter="url(#filter0_d_52_1)">
<rect x="18" y="15" width="320" height="400" rx="16" fill="white"/>
</g>
<rect opacity="0.05" x="18" y="15" width="320" height="400" rx="16" fill="#276ED8"/>
<g opacity="0.2" clip-path="url(#clip0_52_1)">
<path d="M121.949 69.1585C120.826 69.8066 119.389 69.4215 118.741 68.299L115.677 62.9928C115.029 61.8702 115.414 60.4332 116.537 59.7851C117.659 59.137 119.096 59.5221 119.745 60.6446L122.808 65.9508C123.456 67.0734 123.071 68.5104 121.949 69.1585Z" fill="#84B5FF"/>
<path d="M144.027 66.2522C143.506 66.5528 142.871 66.6554 142.245 66.4854C140.992 66.1496 140.249 64.8617 140.584 63.6086L142.171 57.6895C142.506 56.4363 143.794 55.6928 145.047 56.0285C146.3 56.3643 147.044 57.6522 146.708 58.9053L145.122 64.8245C144.952 65.4505 144.547 65.9517 144.027 66.2522Z" fill="#84B5FF"/>
<path d="M166.999 76.7446L161.693 79.8082C160.57 80.4563 159.133 80.0712 158.485 78.9487C157.837 77.8262 158.222 76.3892 159.345 75.7411L164.651 72.6775C165.774 72.0294 167.211 72.4145 167.859 73.537C168.507 74.6595 168.122 76.0966 166.999 76.7446Z" fill="#84B5FF"/>
<path d="M170.519 103.472C169.998 103.772 169.364 103.875 168.738 103.705L162.818 102.119C161.565 101.783 160.822 100.495 161.157 99.242C161.493 97.9889 162.781 97.2453 164.034 97.5811L169.953 99.1671C171.207 99.5029 171.95 100.791 171.614 102.044C171.446 102.673 171.04 103.171 170.519 103.472Z" fill="#84B5FF"/>
<path d="M127.38 128.378C126.859 128.679 126.224 128.781 125.598 128.611C124.345 128.275 123.602 126.987 123.938 125.734L125.524 119.815C125.859 118.562 127.147 117.819 128.4 118.154C129.653 118.49 130.397 119.778 130.061 121.031L128.475 126.95C128.307 127.579 127.9 128.077 127.38 128.378Z" fill="#84B5FF"/>
<path d="M111.299 108.903L105.993 111.967C104.87 112.615 103.433 112.23 102.785 111.107C102.137 109.985 102.522 108.548 103.645 107.9L108.951 104.836C110.073 104.188 111.51 104.573 112.159 105.695C112.807 106.818 112.422 108.255 111.299 108.903Z" fill="#84B5FF"/>
<path d="M108.393 86.8255C107.872 87.1261 107.238 87.2287 106.612 87.0587L100.692 85.4726C99.4393 85.1369 98.6957 83.849 99.0314 82.5958C99.3672 81.3427 100.655 80.5991 101.908 80.9349L107.827 82.5209C109.081 82.8567 109.824 84.1446 109.488 85.3977C109.316 86.0253 108.914 86.5249 108.393 86.8255Z" fill="#84B5FF"/>
<path d="M157.545 112.028L159.502 115.418C161.005 118.021 160.099 121.399 157.496 122.902L150.718 126.816C148.44 128.131 144.971 127.82 142.78 124.024L141.277 121.421L157.545 112.028Z" fill="#84B5FF"/>
<path d="M138.764 70.6684C132.235 69.6295 125.564 71.6009 120.548 76.1241C114.223 81.7638 111.775 90.9861 114.432 99.0323C117.172 107.284 124.164 113.008 132.658 114.069C134.947 114.339 137.123 115.541 138.739 117.463L138.755 117.491C138.793 117.432 138.875 117.385 138.929 117.354L155.197 107.961C155.251 107.93 155.279 107.914 155.348 107.91L155.333 107.883C154.523 105.603 154.647 103.001 155.673 100.456C158.157 94.1775 157.683 87.2206 154.302 81.364C150.983 75.6158 145.335 71.7187 138.764 70.6684ZM146.273 87.8073C145.161 88.4491 143.707 88.0595 143.065 86.9478C140.686 82.8265 135.425 81.4169 131.304 83.7964C130.192 84.4382 128.738 84.0486 128.096 82.9369C127.454 81.8252 127.844 80.3711 128.956 79.7293C135.3 76.0662 143.469 78.255 147.132 84.5997C147.774 85.7114 147.384 87.1655 146.273 87.8073Z" fill="#84B5FF"/>
<path d="M138.739 117.463L138.929 117.354C138.874 117.385 138.793 117.432 138.755 117.491L138.739 117.463Z" fill="#84B5FF"/>
<path d="M155.333 107.883L155.348 107.91C155.278 107.914 155.251 107.93 155.197 107.961L155.333 107.883Z" fill="#84B5FF"/>
</g>
<path opacity="0.2" d="M137.665 198.761L146 200.329V207.802L137.665 209.239C137.025 212.309 135.81 215.183 134.138 217.73L138.919 224.746L133.628 230.037L126.717 225.151C124.17 226.823 121.309 228.025 118.226 228.665L116.658 237H109.185L107.748 228.665C104.678 228.025 101.804 226.81 99.2565 225.138L92.2541 229.919L86.9632 224.628L91.8492 217.717C90.1769 215.17 88.975 212.296 88.3349 209.226L80 207.658V200.185L88.3349 198.748C88.975 195.665 90.19 192.804 91.8622 190.257L87.0808 183.254L92.3717 177.963L99.2957 182.849C101.843 181.177 104.717 179.962 107.787 179.335L109.355 171H116.828L118.265 179.335C121.348 179.975 124.209 181.19 126.757 182.862L133.759 178.081L139.05 183.372L134.164 190.283C135.823 192.817 137.025 195.678 137.665 198.761ZM113 188.519C104.456 188.519 97.5321 195.456 97.5321 203.987C97.5321 212.518 104.456 219.455 113 219.455C121.544 219.455 128.468 212.531 128.468 203.987C128.468 195.443 121.544 188.519 113 188.519Z" fill="#84B5FF"/>
<mask id="mask0_52_1" style="mask-type:alpha" maskUnits="userSpaceOnUse" x="18" y="33" width="320" height="382">
<rect x="18" y="33" width="320" height="382" rx="16" fill="#3D27C7"/>
</mask>
<g mask="url(#mask0_52_1)">
<path opacity="0.1" d="M207.973 222.801L196.157 218.172L195.756 218.015L183.94 213.386C183.94 213.386 183.284 254.449 101.447 390.058L120.069 398.041L127.551 401.343L146.408 409.845C178.459 254.729 207.973 222.801 207.973 222.801Z" fill="#84B5FF"/>
<path opacity="0.5" d="M201.103 213.745L196.385 212.825L196.758 211.873L193.189 209.007C193.189 209.007 122.107 410.293 93.2266 434.06L91.4316 440.958L103.164 447.455L105.734 447.523L117.553 452.46L120.63 452.607C115.581 415.548 201.103 213.745 201.103 213.745Z" fill="white"/>
<g filter="url(#filter1_d_52_1)">
<path d="M219.975 209.997C215.508 221.946 187.372 239.418 187.372 239.418C187.372 239.418 178.143 206.314 182.61 194.365C187.077 182.415 196.669 182.633 206.987 186.95C217.304 191.266 224.442 198.047 219.975 209.997Z" fill="#06B25F"/>
<path opacity="0.5" d="M215.349 205.105C212.255 213.364 191.698 228.293 191.698 228.293C191.698 228.293 186.374 202.564 189.469 194.303C192.564 186.044 199.208 186.194 206.354 189.177C213.5 192.16 218.444 196.846 215.349 205.105Z" fill="#66D6A0"/>
<path d="M211.753 198.737C209.947 203.534 196.486 216.089 196.486 216.089C196.486 216.089 194.841 197.263 196.648 192.466C198.454 187.669 202.332 187.756 206.503 189.487C210.674 191.219 213.56 193.94 211.753 198.737Z" fill="#66D6A0"/>
<path d="M206.832 152.02C206.832 152.02 175.984 153.187 166.411 179.592C166.411 179.592 167.01 183.181 170.917 180.803C174.821 178.423 180.607 169.812 197.454 176.836L206.832 152.02Z" fill="#A6CAFF"/>
<path d="M231.504 163.982C231.504 163.982 253.515 187.189 243.941 213.594C243.941 213.594 241.238 215.806 239.856 211.223C238.476 206.64 239.634 196.099 222.787 189.075L231.504 163.982Z" fill="#84B5FF"/>
<path d="M259.763 142.073C263.827 131.145 265.473 119.979 265.575 109.672L240.261 99.4332L236.866 108.562C246.232 112.35 251.431 121.855 248.479 129.79C245.528 137.726 235.543 141.092 226.176 137.303L209 183.488L225.567 190.189C238.314 182.275 251.352 164.687 259.763 142.073Z" fill="#276ED8"/>
<path d="M216.3 117.071C219.251 109.135 229.236 105.772 238.6 109.559L241.995 100.431L216.683 90.193C210.092 97.8753 204.09 107.28 200.026 118.207C191.616 140.822 189.873 162.979 194.169 177.786L210.734 184.486L227.911 138.299C218.548 134.512 213.349 125.007 216.3 117.071Z" fill="#3E85EE"/>
<path d="M193.66 180.734C193.28 180.573 192.877 180.722 192.76 181.064L191.763 183.966C191.645 184.31 191.857 184.717 192.237 184.878L206.73 191.018L208.155 186.871L193.661 180.732L193.66 180.734Z" fill="#3E85EE"/>
<path d="M222.053 192.708L207.572 186.574L206.148 190.721L220.629 196.855C221.009 197.016 221.411 196.868 221.53 196.525L222.526 193.623C222.646 193.28 222.433 192.87 222.053 192.708Z" fill="#276ED8"/>
<path d="M243.061 127.935C245.023 122.373 241.593 115.687 235.4 113L229.193 134.501C235.383 137.187 241.1 133.495 243.061 127.935Z" fill="#84B5FF"/>
<path d="M221.556 119.084C219.592 124.654 223.025 131.349 229.225 134.041L236.336 113.872C230.138 111.182 223.519 113.514 221.556 119.084Z" fill="#A6CAFF"/>
<path d="M243.052 127.076C241.027 132.644 234.626 133.054 229.22 133.526L227.536 138.158C234.275 139.596 245.785 139.584 248.761 129.247C251.715 121.122 246.753 112.474 237.703 108.711L234.715 112.443C240.913 115.023 245.077 121.507 243.052 127.076Z" fill="#06B25F"/>
<path d="M216.309 116.856C213.326 125.062 218.268 134.47 228.249 138.635L229.949 133.958C223.736 131.374 219.431 124.631 221.475 119.007C223.519 113.383 230.211 110.92 236.423 113.504L238.123 108.827C229.06 105.052 219.292 108.649 216.309 116.856Z" fill="#66D6A0"/>
<path d="M255.082 65L243 98.2804L266.987 108.346C267.32 85.6575 260.323 67.199 255.082 65Z" fill="#84B5FF"/>
<path d="M255.067 65.0649C249.829 62.8668 233.049 71.3475 219 88.2803L242.985 98.3452L255.067 65.0649Z" fill="#A6CAFF"/>
</g>
<path opacity="0.07" d="M156.752 381.539C150.383 371.841 141.649 363.379 130.883 357.189C96.856 337.627 55.4197 348.091 38.3286 380.561C38.2541 380.702 38.1796 380.844 38.1051 380.985C42.2458 389.894 45.2009 399.204 46.9512 408.605L225.641 511.334L297.303 420.271C289.851 412.001 266.108 387.896 255.95 382.056C222.975 363.091 185.054 364.147 156.752 381.539Z" fill="#276ED8"/>
<path d="M108.572 434.063C106.378 418.054 101.746 403.818 94.4907 392.364C73.5951 359.344 36.4541 358.022 -0.787587 383.66C-1.35887 367.602 -4.91206 353.349 -11.7324 342.558C-15.234 337.017 -19.3928 332.747 -24.0413 329.67C-24.6377 347.515 -29.7069 367.862 -39.316 387.867L58.1449 444.02L109.363 473.529C110.487 459.631 110.244 446.328 108.572 434.063Z" fill="white" fill-opacity="0.3"/>
<path opacity="0.07" d="M85.4946 410.153C85.2801 396.653 80.3467 385.385 70.9853 380.048L70.8672 379.981C71.3278 379.174 71.7805 378.363 72.2204 377.538C88.9301 346.18 86.2234 311.497 66.1744 300.067C59.8273 296.449 52.5064 295.601 44.9311 297.118C49.5693 267.223 41.6984 240.643 22.2672 229.565C16.5182 226.288 10.2045 224.618 3.59317 224.413L-68.5281 359.755L39.441 421.307L77.7011 443.119C83.0971 431.934 85.6565 420.401 85.4946 410.153Z" fill="#276ED8"/>
<path opacity="0.6" d="M154.012 396.063C143.701 382.347 129.267 373.437 113.822 372.97L113.627 372.964C113.592 371.892 113.543 370.819 113.467 369.738C110.604 328.687 81.4699 294.6 48.3922 293.599C37.9204 293.282 28.3176 296.324 20.1631 301.923C3.59483 268.819 -25.8365 245.791 -57.8949 244.82C-67.38 244.533 -76.3599 246.196 -84.615 249.516L-72.2559 426.698L105.877 432.089L169 434C167.287 419.659 161.839 406.476 154.012 396.063Z" fill="white"/>
<path opacity="0.07" d="M83.6432 422.127C79.5055 405.807 68.6413 394.211 52.5538 391.732L52.3538 391.699C52.8397 390.521 53.3198 389.34 53.777 388.146C70.9799 342.87 56.9969 301.843 22.5325 296.524C11.6204 294.842 -0.0280625 296.945 -11.4037 302.035C-11.9564 284.266 -16.4956 268.516 -24.5377 256.212L-78.089 356.595L84.5622 450.018C86.1061 439.885 85.7425 430.391 83.6432 422.127Z" fill="#276ED8"/>
<path opacity="0.6" d="M307.615 380.06C299.996 373.022 290.521 367.388 279.68 363.968C245.421 353.166 210.522 368.517 201.741 398.242C201.505 399.023 201.306 399.813 201.116 400.601L200.917 400.539C184.925 395.497 168.765 397.128 156.179 403.795C146.625 408.859 139.131 416.822 135.323 426.963L200.713 447.578L335.431 490.04L401.808 366.487C399.983 365.799 398.131 365.16 396.247 364.567C363.041 354.096 329.408 361.06 307.615 380.06Z" fill="white"/>
</g>
<path d="M43.5265 316.008C45.1052 316.008 46.2678 316.323 47.0145 316.952C47.7718 317.581 48.1505 318.424 48.1505 319.48C48.1505 320.163 47.9798 320.787 47.6385 321.352C47.2972 321.907 46.7745 322.355 46.0705 322.696C45.3772 323.027 44.5185 323.192 43.4945 323.192C42.7052 323.192 41.9265 323.091 41.1585 322.888C40.4012 322.675 39.7558 322.376 39.2225 321.992L40.2465 320.008C40.6732 320.328 41.1638 320.579 41.7185 320.76C42.2732 320.931 42.8438 321.016 43.4305 321.016C44.0812 321.016 44.5932 320.888 44.9665 320.632C45.3398 320.376 45.5265 320.019 45.5265 319.56C45.5265 319.08 45.3292 318.717 44.9345 318.472C44.5505 318.227 43.8785 318.104 42.9185 318.104H40.0545L40.6305 311.8H47.4625V313.88H42.7905L42.6145 316.008H43.5265ZM54.0021 323.192C53.0741 323.192 52.2475 322.963 51.5221 322.504C50.7968 322.045 50.2261 321.384 49.8101 320.52C49.4048 319.645 49.2021 318.605 49.2021 317.4C49.2021 316.195 49.4048 315.16 49.8101 314.296C50.2261 313.421 50.7968 312.755 51.5221 312.296C52.2475 311.837 53.0741 311.608 54.0021 311.608C54.9301 311.608 55.7568 311.837 56.4821 312.296C57.2075 312.755 57.7728 313.421 58.1781 314.296C58.5941 315.16 58.8021 316.195 58.8021 317.4C58.8021 318.605 58.5941 319.645 58.1781 320.52C57.7728 321.384 57.2075 322.045 56.4821 322.504C55.7568 322.963 54.9301 323.192 54.0021 323.192ZM54.0021 321C54.6848 321 55.2181 320.707 55.6021 320.12C55.9968 319.533 56.1941 318.627 56.1941 317.4C56.1941 316.173 55.9968 315.267 55.6021 314.68C55.2181 314.093 54.6848 313.8 54.0021 313.8C53.3301 313.8 52.7968 314.093 52.4021 314.68C52.0181 315.267 51.8261 316.173 51.8261 317.4C51.8261 318.627 52.0181 319.533 52.4021 320.12C52.7968 320.707 53.3301 321 54.0021 321ZM68.108 318.376H65.324V321.096H63.26V318.376H60.492V316.424H63.26V313.704H65.324V316.424H68.108V318.376Z" fill="#276ED8"/>
<path d="M77.1056 323.08C76.423 323.08 75.767 322.984 75.1376 322.792C74.519 322.589 74.0336 322.339 73.6816 322.04L74.1936 321.144C74.5456 321.421 74.9883 321.651 75.5216 321.832C76.055 322.003 76.6096 322.088 77.1856 322.088C77.9536 322.088 78.519 321.971 78.8816 321.736C79.255 321.491 79.4416 321.149 79.4416 320.712C79.4416 320.403 79.3403 320.163 79.1376 319.992C78.935 319.811 78.679 319.677 78.3696 319.592C78.0603 319.496 77.6496 319.405 77.1376 319.32C76.455 319.192 75.9056 319.064 75.4896 318.936C75.0736 318.797 74.7163 318.568 74.4176 318.248C74.1296 317.928 73.9856 317.485 73.9856 316.92C73.9856 316.216 74.279 315.64 74.8656 315.192C75.4523 314.744 76.2683 314.52 77.3136 314.52C77.8576 314.52 78.4016 314.595 78.9456 314.744C79.4896 314.883 79.9376 315.069 80.2896 315.304L79.7936 316.216C79.1003 315.736 78.2736 315.496 77.3136 315.496C76.5883 315.496 76.039 315.624 75.6656 315.88C75.303 316.136 75.1216 316.472 75.1216 316.888C75.1216 317.208 75.223 317.464 75.4256 317.656C75.639 317.848 75.9003 317.992 76.2096 318.088C76.519 318.173 76.9456 318.264 77.4896 318.36C78.1616 318.488 78.7003 318.616 79.1056 318.744C79.511 318.872 79.8576 319.091 80.1456 319.4C80.4336 319.709 80.5776 320.136 80.5776 320.68C80.5776 321.416 80.2683 322.003 79.6496 322.44C79.0416 322.867 78.1936 323.08 77.1056 323.08ZM90.2618 314.584V323H89.1737V321.464C88.8751 321.976 88.4644 322.376 87.9418 322.664C87.4191 322.941 86.8218 323.08 86.1498 323.08C85.0511 323.08 84.1818 322.776 83.5418 322.168C82.9124 321.549 82.5978 320.648 82.5978 319.464V314.584H83.7338V319.352C83.7338 320.237 83.9524 320.909 84.3898 321.368C84.8271 321.827 85.4511 322.056 86.2618 322.056C87.1471 322.056 87.8458 321.789 88.3578 321.256C88.8698 320.712 89.1258 319.96 89.1258 319V314.584H90.2618ZM96.9314 323.08C96.0994 323.08 95.3527 322.899 94.6914 322.536C94.0407 322.173 93.5287 321.667 93.1554 321.016C92.782 320.355 92.5954 319.613 92.5954 318.792C92.5954 317.971 92.782 317.235 93.1554 316.584C93.5287 315.933 94.0407 315.427 94.6914 315.064C95.3527 314.701 96.0994 314.52 96.9314 314.52C97.6567 314.52 98.302 314.664 98.8674 314.952C99.4434 315.229 99.8967 315.64 100.227 316.184L99.3794 316.76C99.102 316.344 98.75 316.035 98.3234 315.832C97.8967 315.619 97.4327 315.512 96.9314 315.512C96.3234 315.512 95.774 315.651 95.2834 315.928C94.8034 316.195 94.4247 316.579 94.1474 317.08C93.8807 317.581 93.7474 318.152 93.7474 318.792C93.7474 319.443 93.8807 320.019 94.1474 320.52C94.4247 321.011 94.8034 321.395 95.2834 321.672C95.774 321.939 96.3234 322.072 96.9314 322.072C97.4327 322.072 97.8967 321.971 98.3234 321.768C98.75 321.565 99.102 321.256 99.3794 320.84L100.227 321.416C99.8967 321.96 99.4434 322.376 98.8674 322.664C98.2914 322.941 97.646 323.08 96.9314 323.08ZM105.806 323.08C104.974 323.08 104.228 322.899 103.566 322.536C102.916 322.173 102.404 321.667 102.03 321.016C101.657 320.355 101.47 319.613 101.47 318.792C101.47 317.971 101.657 317.235 102.03 316.584C102.404 315.933 102.916 315.427 103.566 315.064C104.228 314.701 104.974 314.52 105.806 314.52C106.532 314.52 107.177 314.664 107.742 314.952C108.318 315.229 108.772 315.64 109.102 316.184L108.254 316.76C107.977 316.344 107.625 316.035 107.198 315.832C106.772 315.619 106.308 315.512 105.806 315.512C105.198 315.512 104.649 315.651 104.158 315.928C103.678 316.195 103.3 316.579 103.022 317.08C102.756 317.581 102.622 318.152 102.622 318.792C102.622 319.443 102.756 320.019 103.022 320.52C103.3 321.011 103.678 321.395 104.158 321.672C104.649 321.939 105.198 322.072 105.806 322.072C106.308 322.072 106.772 321.971 107.198 321.768C107.625 321.565 107.977 321.256 108.254 320.84L109.102 321.416C108.772 321.96 108.318 322.376 107.742 322.664C107.166 322.941 106.521 323.08 105.806 323.08ZM118.521 319.144H111.481C111.545 320.019 111.881 320.728 112.489 321.272C113.097 321.805 113.865 322.072 114.793 322.072C115.316 322.072 115.796 321.981 116.233 321.8C116.671 321.608 117.049 321.331 117.369 320.968L118.009 321.704C117.636 322.152 117.167 322.493 116.601 322.728C116.047 322.963 115.433 323.08 114.761 323.08C113.897 323.08 113.129 322.899 112.457 322.536C111.796 322.163 111.279 321.651 110.905 321C110.532 320.349 110.345 319.613 110.345 318.792C110.345 317.971 110.521 317.235 110.873 316.584C111.236 315.933 111.727 315.427 112.345 315.064C112.975 314.701 113.679 314.52 114.457 314.52C115.236 314.52 115.935 314.701 116.553 315.064C117.172 315.427 117.657 315.933 118.009 316.584C118.361 317.224 118.537 317.96 118.537 318.792L118.521 319.144ZM114.457 315.496C113.647 315.496 112.964 315.757 112.409 316.28C111.865 316.792 111.556 317.464 111.481 318.296H117.449C117.375 317.464 117.06 316.792 116.505 316.28C115.961 315.757 115.279 315.496 114.457 315.496ZM123.106 323.08C122.423 323.08 121.767 322.984 121.138 322.792C120.519 322.589 120.034 322.339 119.682 322.04L120.194 321.144C120.546 321.421 120.988 321.651 121.522 321.832C122.055 322.003 122.61 322.088 123.186 322.088C123.954 322.088 124.519 321.971 124.882 321.736C125.255 321.491 125.442 321.149 125.442 320.712C125.442 320.403 125.34 320.163 125.138 319.992C124.935 319.811 124.679 319.677 124.37 319.592C124.06 319.496 123.65 319.405 123.138 319.32C122.455 319.192 121.906 319.064 121.49 318.936C121.074 318.797 120.716 318.568 120.418 318.248C120.13 317.928 119.986 317.485 119.986 316.92C119.986 316.216 120.279 315.64 120.866 315.192C121.452 314.744 122.268 314.52 123.314 314.52C123.858 314.52 124.402 314.595 124.946 314.744C125.49 314.883 125.938 315.069 126.29 315.304L125.794 316.216C125.1 315.736 124.274 315.496 123.314 315.496C122.588 315.496 122.039 315.624 121.666 315.88C121.303 316.136 121.122 316.472 121.122 316.888C121.122 317.208 121.223 317.464 121.426 317.656C121.639 317.848 121.9 317.992 122.21 318.088C122.519 318.173 122.946 318.264 123.49 318.36C124.162 318.488 124.7 318.616 125.106 318.744C125.511 318.872 125.858 319.091 126.146 319.4C126.434 319.709 126.578 320.136 126.578 320.68C126.578 321.416 126.268 322.003 125.65 322.44C125.042 322.867 124.194 323.08 123.106 323.08ZM130.934 323.08C130.251 323.08 129.595 322.984 128.966 322.792C128.347 322.589 127.862 322.339 127.51 322.04L128.022 321.144C128.374 321.421 128.816 321.651 129.35 321.832C129.883 322.003 130.438 322.088 131.014 322.088C131.782 322.088 132.347 321.971 132.71 321.736C133.083 321.491 133.27 321.149 133.27 320.712C133.27 320.403 133.168 320.163 132.966 319.992C132.763 319.811 132.507 319.677 132.198 319.592C131.888 319.496 131.478 319.405 130.966 319.32C130.283 319.192 129.734 319.064 129.318 318.936C128.902 318.797 128.544 318.568 128.246 318.248C127.958 317.928 127.814 317.485 127.814 316.92C127.814 316.216 128.107 315.64 128.694 315.192C129.28 314.744 130.096 314.52 131.142 314.52C131.686 314.52 132.23 314.595 132.774 314.744C133.318 314.883 133.766 315.069 134.118 315.304L133.622 316.216C132.928 315.736 132.102 315.496 131.142 315.496C130.416 315.496 129.867 315.624 129.494 315.88C129.131 316.136 128.95 316.472 128.95 316.888C128.95 317.208 129.051 317.464 129.254 317.656C129.467 317.848 129.728 317.992 130.038 318.088C130.347 318.173 130.774 318.264 131.318 318.36C131.99 318.488 132.528 318.616 132.934 318.744C133.339 318.872 133.686 319.091 133.974 319.4C134.262 319.709 134.406 320.136 134.406 320.68C134.406 321.416 134.096 322.003 133.478 322.44C132.87 322.867 132.022 323.08 130.934 323.08ZM139.29 312.008C138.799 312.008 138.426 312.141 138.17 312.408C137.925 312.675 137.802 313.069 137.802 313.592V314.584H140.394V315.544H137.834V323H136.698V315.544H135.194V314.584H136.698V313.544C136.698 312.776 136.917 312.168 137.354 311.72C137.802 311.272 138.431 311.048 139.242 311.048C139.562 311.048 139.871 311.096 140.17 311.192C140.469 311.277 140.719 311.405 140.922 311.576L140.538 312.424C140.207 312.147 139.791 312.008 139.29 312.008ZM149.512 314.584V323H148.424V321.464C148.125 321.976 147.714 322.376 147.192 322.664C146.669 322.941 146.072 323.08 145.4 323.08C144.301 323.08 143.432 322.776 142.792 322.168C142.162 321.549 141.848 320.648 141.848 319.464V314.584H142.984V319.352C142.984 320.237 143.202 320.909 143.64 321.368C144.077 321.827 144.701 322.056 145.512 322.056C146.397 322.056 147.096 321.789 147.608 321.256C148.12 320.712 148.376 319.96 148.376 319V314.584H149.512ZM152.693 311.128H153.829V323H152.693V311.128ZM156.99 311.128H158.126V323H156.99V311.128ZM168.359 314.584L164.151 324.008C163.81 324.797 163.415 325.357 162.967 325.688C162.519 326.019 161.98 326.184 161.351 326.184C160.946 326.184 160.567 326.12 160.215 325.992C159.863 325.864 159.559 325.672 159.303 325.416L159.831 324.568C160.258 324.995 160.77 325.208 161.367 325.208C161.751 325.208 162.076 325.101 162.343 324.888C162.62 324.675 162.876 324.312 163.111 323.8L163.479 322.984L159.719 314.584H160.903L164.071 321.736L167.239 314.584H168.359ZM174.147 311.128H175.283V323H174.147V311.128ZM181.387 314.52C182.486 314.52 183.329 314.797 183.915 315.352C184.502 315.896 184.795 316.707 184.795 317.784V323H183.707V321.688C183.451 322.125 183.073 322.467 182.571 322.712C182.081 322.957 181.494 323.08 180.811 323.08C179.873 323.08 179.126 322.856 178.571 322.408C178.017 321.96 177.739 321.368 177.739 320.632C177.739 319.917 177.995 319.341 178.507 318.904C179.03 318.467 179.857 318.248 180.987 318.248H183.659V317.736C183.659 317.011 183.457 316.461 183.051 316.088C182.646 315.704 182.054 315.512 181.275 315.512C180.742 315.512 180.23 315.603 179.739 315.784C179.249 315.955 178.827 316.195 178.475 316.504L177.963 315.656C178.39 315.293 178.902 315.016 179.499 314.824C180.097 314.621 180.726 314.52 181.387 314.52ZM180.987 322.184C181.627 322.184 182.177 322.04 182.635 321.752C183.094 321.453 183.435 321.027 183.659 320.472V319.096H181.019C179.579 319.096 178.859 319.597 178.859 320.6C178.859 321.091 179.046 321.48 179.419 321.768C179.793 322.045 180.315 322.184 180.987 322.184ZM195.465 314.584V323H194.377V321.464C194.078 321.976 193.668 322.376 193.145 322.664C192.622 322.941 192.025 323.08 191.353 323.08C190.254 323.08 189.385 322.776 188.745 322.168C188.116 321.549 187.801 320.648 187.801 319.464V314.584H188.937V319.352C188.937 320.237 189.156 320.909 189.593 321.368C190.03 321.827 190.654 322.056 191.465 322.056C192.35 322.056 193.049 321.789 193.561 321.256C194.073 320.712 194.329 319.96 194.329 319V314.584H195.465ZM202.935 314.52C203.991 314.52 204.828 314.829 205.447 315.448C206.076 316.056 206.391 316.947 206.391 318.12V323H205.255V318.232C205.255 317.357 205.036 316.691 204.599 316.232C204.161 315.773 203.537 315.544 202.727 315.544C201.82 315.544 201.1 315.816 200.567 316.36C200.044 316.893 199.783 317.635 199.783 318.584V323H198.647V314.584H199.735V316.136C200.044 315.624 200.471 315.229 201.015 314.952C201.569 314.664 202.209 314.52 202.935 314.52ZM212.994 323.08C212.162 323.08 211.415 322.899 210.754 322.536C210.103 322.173 209.591 321.667 209.218 321.016C208.845 320.355 208.658 319.613 208.658 318.792C208.658 317.971 208.845 317.235 209.218 316.584C209.591 315.933 210.103 315.427 210.754 315.064C211.415 314.701 212.162 314.52 212.994 314.52C213.719 314.52 214.365 314.664 214.93 314.952C215.506 315.229 215.959 315.64 216.29 316.184L215.442 316.76C215.165 316.344 214.813 316.035 214.386 315.832C213.959 315.619 213.495 315.512 212.994 315.512C212.386 315.512 211.837 315.651 211.346 315.928C210.866 316.195 210.487 316.579 210.21 317.08C209.943 317.581 209.81 318.152 209.81 318.792C209.81 319.443 209.943 320.019 210.21 320.52C210.487 321.011 210.866 321.395 211.346 321.672C211.837 321.939 212.386 322.072 212.994 322.072C213.495 322.072 213.959 321.971 214.386 321.768C214.813 321.565 215.165 321.256 215.442 320.84L216.29 321.416C215.959 321.96 215.506 322.376 214.93 322.664C214.354 322.941 213.709 323.08 212.994 323.08ZM222.685 314.52C223.741 314.52 224.578 314.829 225.197 315.448C225.826 316.056 226.141 316.947 226.141 318.12V323H225.005V318.232C225.005 317.357 224.786 316.691 224.349 316.232C223.911 315.773 223.287 315.544 222.477 315.544C221.57 315.544 220.85 315.816 220.317 316.36C219.794 316.893 219.533 317.635 219.533 318.584V323H218.397V311.128H219.533V316.056C219.842 315.565 220.269 315.187 220.812 314.92C221.357 314.653 221.981 314.52 222.685 314.52ZM236.584 319.144H229.544C229.608 320.019 229.944 320.728 230.552 321.272C231.16 321.805 231.928 322.072 232.856 322.072C233.379 322.072 233.859 321.981 234.296 321.8C234.733 321.608 235.112 321.331 235.432 320.968L236.072 321.704C235.699 322.152 235.229 322.493 234.664 322.728C234.109 322.963 233.496 323.08 232.824 323.08C231.96 323.08 231.192 322.899 230.52 322.536C229.859 322.163 229.341 321.651 228.968 321C228.595 320.349 228.408 319.613 228.408 318.792C228.408 317.971 228.584 317.235 228.936 316.584C229.299 315.933 229.789 315.427 230.408 315.064C231.037 314.701 231.741 314.52 232.52 314.52C233.299 314.52 233.997 314.701 234.616 315.064C235.235 315.427 235.72 315.933 236.072 316.584C236.424 317.224 236.6 317.96 236.6 318.792L236.584 319.144ZM232.52 315.496C231.709 315.496 231.027 315.757 230.472 316.28C229.928 316.792 229.619 317.464 229.544 318.296H235.512C235.437 317.464 235.123 316.792 234.568 316.28C234.024 315.757 233.341 315.496 232.52 315.496ZM246.592 311.128V323H245.504V321.336C245.163 321.901 244.709 322.333 244.144 322.632C243.589 322.931 242.96 323.08 242.256 323.08C241.467 323.08 240.752 322.899 240.112 322.536C239.472 322.173 238.971 321.667 238.608 321.016C238.245 320.365 238.064 319.624 238.064 318.792C238.064 317.96 238.245 317.219 238.608 316.568C238.971 315.917 239.472 315.416 240.112 315.064C240.752 314.701 241.467 314.52 242.256 314.52C242.939 314.52 243.552 314.664 244.096 314.952C244.651 315.229 245.104 315.64 245.456 316.184V311.128H246.592ZM242.352 322.072C242.939 322.072 243.467 321.939 243.936 321.672C244.416 321.395 244.789 321.005 245.056 320.504C245.333 320.003 245.472 319.432 245.472 318.792C245.472 318.152 245.333 317.581 245.056 317.08C244.789 316.579 244.416 316.195 243.936 315.928C243.467 315.651 242.939 315.512 242.352 315.512C241.755 315.512 241.216 315.651 240.736 315.928C240.267 316.195 239.893 316.579 239.616 317.08C239.349 317.581 239.216 318.152 239.216 318.792C239.216 319.432 239.349 320.003 239.616 320.504C239.893 321.005 240.267 321.395 240.736 321.672C241.216 321.939 241.755 322.072 242.352 322.072ZM258.279 314.52C259.069 314.52 259.783 314.701 260.423 315.064C261.063 315.416 261.565 315.917 261.927 316.568C262.29 317.219 262.471 317.96 262.471 318.792C262.471 319.635 262.29 320.381 261.927 321.032C261.565 321.683 261.063 322.189 260.423 322.552C259.794 322.904 259.079 323.08 258.279 323.08C257.597 323.08 256.978 322.941 256.423 322.664C255.879 322.376 255.431 321.96 255.079 321.416V326.104H253.943V314.584H255.031V316.248C255.373 315.693 255.821 315.267 256.375 314.968C256.941 314.669 257.575 314.52 258.279 314.52ZM258.199 322.072C258.786 322.072 259.319 321.939 259.799 321.672C260.279 321.395 260.653 321.005 260.919 320.504C261.197 320.003 261.335 319.432 261.335 318.792C261.335 318.152 261.197 317.587 260.919 317.096C260.653 316.595 260.279 316.205 259.799 315.928C259.319 315.651 258.786 315.512 258.199 315.512C257.602 315.512 257.063 315.651 256.583 315.928C256.114 316.205 255.741 316.595 255.463 317.096C255.197 317.587 255.063 318.152 255.063 318.792C255.063 319.432 255.197 320.003 255.463 320.504C255.741 321.005 256.114 321.395 256.583 321.672C257.063 321.939 257.602 322.072 258.199 322.072ZM265.875 316.232C266.142 315.667 266.536 315.24 267.059 314.952C267.592 314.664 268.248 314.52 269.027 314.52V315.624L268.755 315.608C267.87 315.608 267.176 315.88 266.675 316.424C266.174 316.968 265.923 317.731 265.923 318.712V323H264.787V314.584H265.875V316.232ZM274.446 323.08C273.635 323.08 272.905 322.899 272.254 322.536C271.603 322.163 271.091 321.651 270.718 321C270.345 320.349 270.158 319.613 270.158 318.792C270.158 317.971 270.345 317.235 270.718 316.584C271.091 315.933 271.603 315.427 272.254 315.064C272.905 314.701 273.635 314.52 274.446 314.52C275.257 314.52 275.987 314.701 276.638 315.064C277.289 315.427 277.795 315.933 278.158 316.584C278.531 317.235 278.718 317.971 278.718 318.792C278.718 319.613 278.531 320.349 278.158 321C277.795 321.651 277.289 322.163 276.638 322.536C275.987 322.899 275.257 323.08 274.446 323.08ZM274.446 322.072C275.043 322.072 275.577 321.939 276.046 321.672C276.526 321.395 276.899 321.005 277.166 320.504C277.433 320.003 277.566 319.432 277.566 318.792C277.566 318.152 277.433 317.581 277.166 317.08C276.899 316.579 276.526 316.195 276.046 315.928C275.577 315.651 275.043 315.512 274.446 315.512C273.849 315.512 273.31 315.651 272.83 315.928C272.361 316.195 271.987 316.579 271.71 317.08C271.443 317.581 271.31 318.152 271.31 318.792C271.31 319.432 271.443 320.003 271.71 320.504C271.987 321.005 272.361 321.395 272.83 321.672C273.31 321.939 273.849 322.072 274.446 322.072ZM279.789 326.184C279.437 326.184 279.106 326.136 278.797 326.04C278.477 325.955 278.216 325.821 278.013 325.64L278.413 324.776C278.744 325.064 279.181 325.208 279.725 325.208C280.173 325.208 280.514 325.075 280.749 324.808C280.994 324.541 281.117 324.147 281.117 323.624V314.584H282.253V323.624C282.253 324.413 282.04 325.037 281.613 325.496C281.186 325.955 280.578 326.184 279.789 326.184ZM281.693 312.728C281.458 312.728 281.261 312.648 281.101 312.488C280.941 312.328 280.861 312.136 280.861 311.912C280.861 311.699 280.941 311.512 281.101 311.352C281.261 311.192 281.458 311.112 281.693 311.112C281.928 311.112 282.125 311.192 282.285 311.352C282.445 311.501 282.525 311.683 282.525 311.896C282.525 312.131 282.445 312.328 282.285 312.488C282.125 312.648 281.928 312.728 281.693 312.728ZM292.756 319.144H285.716C285.78 320.019 286.116 320.728 286.724 321.272C287.332 321.805 288.1 322.072 289.028 322.072C289.55 322.072 290.03 321.981 290.468 321.8C290.905 321.608 291.284 321.331 291.604 320.968L292.244 321.704C291.87 322.152 291.401 322.493 290.836 322.728C290.281 322.963 289.668 323.08 288.996 323.08C288.132 323.08 287.364 322.899 286.692 322.536C286.03 322.163 285.513 321.651 285.14 321C284.766 320.349 284.58 319.613 284.58 318.792C284.58 317.971 284.756 317.235 285.108 316.584C285.47 315.933 285.961 315.427 286.58 315.064C287.209 314.701 287.913 314.52 288.692 314.52C289.47 314.52 290.169 314.701 290.788 315.064C291.406 315.427 291.892 315.933 292.244 316.584C292.596 317.224 292.772 317.96 292.772 318.792L292.756 319.144ZM288.692 315.496C287.881 315.496 287.198 315.757 286.644 316.28C286.1 316.792 285.79 317.464 285.716 318.296H291.684C291.609 317.464 291.294 316.792 290.74 316.28C290.196 315.757 289.513 315.496 288.692 315.496ZM298.572 323.08C297.74 323.08 296.993 322.899 296.332 322.536C295.681 322.173 295.169 321.667 294.796 321.016C294.423 320.355 294.236 319.613 294.236 318.792C294.236 317.971 294.423 317.235 294.796 316.584C295.169 315.933 295.681 315.427 296.332 315.064C296.993 314.701 297.74 314.52 298.572 314.52C299.297 314.52 299.943 314.664 300.508 314.952C301.084 315.229 301.537 315.64 301.868 316.184L301.02 316.76C300.743 316.344 300.391 316.035 299.964 315.832C299.537 315.619 299.073 315.512 298.572 315.512C297.964 315.512 297.415 315.651 296.924 315.928C296.444 316.195 296.065 316.579 295.788 317.08C295.521 317.581 295.388 318.152 295.388 318.792C295.388 319.443 295.521 320.019 295.788 320.52C296.065 321.011 296.444 321.395 296.924 321.672C297.415 321.939 297.964 322.072 298.572 322.072C299.073 322.072 299.537 321.971 299.964 321.768C300.391 321.565 300.743 321.256 301.02 320.84L301.868 321.416C301.537 321.96 301.084 322.376 300.508 322.664C299.932 322.941 299.287 323.08 298.572 323.08ZM308.625 322.488C308.412 322.68 308.145 322.829 307.825 322.936C307.516 323.032 307.191 323.08 306.849 323.08C306.06 323.08 305.452 322.867 305.025 322.44C304.599 322.013 304.385 321.411 304.385 320.632V315.544H302.881V314.584H304.385V312.744H305.521V314.584H308.081V315.544H305.521V320.568C305.521 321.069 305.644 321.453 305.889 321.72C306.145 321.976 306.508 322.104 306.977 322.104C307.212 322.104 307.436 322.067 307.649 321.992C307.873 321.917 308.065 321.811 308.225 321.672L308.625 322.488ZM312.949 323.08C312.267 323.08 311.611 322.984 310.981 322.792C310.363 322.589 309.877 322.339 309.525 322.04L310.037 321.144C310.389 321.421 310.832 321.651 311.365 321.832C311.899 322.003 312.453 322.088 313.029 322.088C313.797 322.088 314.363 321.971 314.725 321.736C315.099 321.491 315.285 321.149 315.285 320.712C315.285 320.403 315.184 320.163 314.981 319.992C314.779 319.811 314.523 319.677 314.213 319.592C313.904 319.496 313.493 319.405 312.981 319.32C312.299 319.192 311.749 319.064 311.333 318.936C310.917 318.797 310.56 318.568 310.261 318.248C309.973 317.928 309.829 317.485 309.829 316.92C309.829 316.216 310.123 315.64 310.709 315.192C311.296 314.744 312.112 314.52 313.157 314.52C313.701 314.52 314.245 314.595 314.789 314.744C315.333 314.883 315.781 315.069 316.133 315.304L315.637 316.216C314.944 315.736 314.117 315.496 313.157 315.496C312.432 315.496 311.883 315.624 311.509 315.88C311.147 316.136 310.965 316.472 310.965 316.888C310.965 317.208 311.067 317.464 311.269 317.656C311.483 317.848 311.744 317.992 312.053 318.088C312.363 318.173 312.789 318.264 313.333 318.36C314.005 318.488 314.544 318.616 314.949 318.744C315.355 318.872 315.701 319.091 315.989 319.4C316.277 319.709 316.421 320.136 316.421 320.68C316.421 321.416 316.112 322.003 315.493 322.44C314.885 322.867 314.037 323.08 312.949 323.08ZM108.462 349.08C107.651 349.08 106.92 348.899 106.27 348.536C105.619 348.163 105.107 347.651 104.734 347C104.36 346.349 104.174 345.613 104.174 344.792C104.174 343.971 104.36 343.235 104.734 342.584C105.107 341.933 105.619 341.427 106.27 341.064C106.92 340.701 107.651 340.52 108.462 340.52C109.272 340.52 110.003 340.701 110.654 341.064C111.304 341.427 111.811 341.933 112.174 342.584C112.547 343.235 112.734 343.971 112.734 344.792C112.734 345.613 112.547 346.349 112.174 347C111.811 347.651 111.304 348.163 110.654 348.536C110.003 348.899 109.272 349.08 108.462 349.08ZM108.462 348.072C109.059 348.072 109.592 347.939 110.062 347.672C110.542 347.395 110.915 347.005 111.182 346.504C111.448 346.003 111.582 345.432 111.582 344.792C111.582 344.152 111.448 343.581 111.182 343.08C110.915 342.579 110.542 342.195 110.062 341.928C109.592 341.651 109.059 341.512 108.462 341.512C107.864 341.512 107.326 341.651 106.846 341.928C106.376 342.195 106.003 342.579 105.726 343.08C105.459 343.581 105.326 344.152 105.326 344.792C105.326 345.432 105.459 346.003 105.726 346.504C106.003 347.005 106.376 347.395 106.846 347.672C107.326 347.939 107.864 348.072 108.462 348.072ZM119.341 340.52C120.397 340.52 121.234 340.829 121.853 341.448C122.482 342.056 122.797 342.947 122.797 344.12V349H121.661V344.232C121.661 343.357 121.442 342.691 121.005 342.232C120.567 341.773 119.943 341.544 119.133 341.544C118.226 341.544 117.506 341.816 116.973 342.36C116.45 342.893 116.189 343.635 116.189 344.584V349H115.053V340.584H116.141V342.136C116.45 341.624 116.877 341.229 117.421 340.952C117.975 340.664 118.615 340.52 119.341 340.52ZM134.5 348.488C134.287 348.68 134.02 348.829 133.7 348.936C133.391 349.032 133.066 349.08 132.724 349.08C131.935 349.08 131.327 348.867 130.9 348.44C130.474 348.013 130.26 347.411 130.26 346.632V341.544H128.756V340.584H130.26V338.744H131.396V340.584H133.956V341.544H131.396V346.568C131.396 347.069 131.519 347.453 131.764 347.72C132.02 347.976 132.383 348.104 132.852 348.104C133.087 348.104 133.311 348.067 133.524 347.992C133.748 347.917 133.94 347.811 134.1 347.672L134.5 348.488ZM140.856 340.52C141.912 340.52 142.75 340.829 143.368 341.448C143.998 342.056 144.312 342.947 144.312 344.12V349H143.176V344.232C143.176 343.357 142.958 342.691 142.52 342.232C142.083 341.773 141.459 341.544 140.648 341.544C139.742 341.544 139.022 341.816 138.488 342.36C137.966 342.893 137.704 343.635 137.704 344.584V349H136.568V337.128H137.704V342.056C138.014 341.565 138.44 341.187 138.984 340.92C139.528 340.653 140.152 340.52 140.856 340.52ZM154.756 345.144H147.716C147.78 346.019 148.116 346.728 148.724 347.272C149.332 347.805 150.1 348.072 151.028 348.072C151.55 348.072 152.03 347.981 152.468 347.8C152.905 347.608 153.284 347.331 153.604 346.968L154.244 347.704C153.87 348.152 153.401 348.493 152.836 348.728C152.281 348.963 151.668 349.08 150.996 349.08C150.132 349.08 149.364 348.899 148.692 348.536C148.03 348.163 147.513 347.651 147.14 347C146.766 346.349 146.58 345.613 146.58 344.792C146.58 343.971 146.756 343.235 147.108 342.584C147.47 341.933 147.961 341.427 148.58 341.064C149.209 340.701 149.913 340.52 150.692 340.52C151.47 340.52 152.169 340.701 152.788 341.064C153.406 341.427 153.892 341.933 154.244 342.584C154.596 343.224 154.772 343.96 154.772 344.792L154.756 345.144ZM150.692 341.496C149.881 341.496 149.198 341.757 148.644 342.28C148.1 342.792 147.79 343.464 147.716 344.296H153.684C153.609 343.464 153.294 342.792 152.74 342.28C152.196 341.757 151.513 341.496 150.692 341.496ZM165.704 348.488C165.49 348.68 165.224 348.829 164.904 348.936C164.594 349.032 164.269 349.08 163.928 349.08C163.138 349.08 162.53 348.867 162.104 348.44C161.677 348.013 161.464 347.411 161.464 346.632V341.544H159.96V340.584H161.464V338.744H162.6V340.584H165.16V341.544H162.6V346.568C162.6 347.069 162.722 347.453 162.968 347.72C163.224 347.976 163.586 348.104 164.056 348.104C164.29 348.104 164.514 348.067 164.728 347.992C164.952 347.917 165.144 347.811 165.304 347.672L165.704 348.488ZM172.06 340.52C173.116 340.52 173.953 340.829 174.572 341.448C175.201 342.056 175.516 342.947 175.516 344.12V349H174.38V344.232C174.38 343.357 174.161 342.691 173.724 342.232C173.286 341.773 172.662 341.544 171.852 341.544C170.945 341.544 170.225 341.816 169.692 342.36C169.169 342.893 168.908 343.635 168.908 344.584V349H167.772V337.128H168.908V342.056C169.217 341.565 169.644 341.187 170.188 340.92C170.732 340.653 171.356 340.52 172.06 340.52ZM185.959 345.144H178.919C178.983 346.019 179.319 346.728 179.927 347.272C180.535 347.805 181.303 348.072 182.231 348.072C182.754 348.072 183.234 347.981 183.671 347.8C184.108 347.608 184.487 347.331 184.807 346.968L185.447 347.704C185.074 348.152 184.604 348.493 184.039 348.728C183.484 348.963 182.871 349.08 182.199 349.08C181.335 349.08 180.567 348.899 179.895 348.536C179.234 348.163 178.716 347.651 178.343 347C177.97 346.349 177.783 345.613 177.783 344.792C177.783 343.971 177.959 343.235 178.311 342.584C178.674 341.933 179.164 341.427 179.783 341.064C180.412 340.701 181.116 340.52 181.895 340.52C182.674 340.52 183.372 340.701 183.991 341.064C184.61 341.427 185.095 341.933 185.447 342.584C185.799 343.224 185.975 343.96 185.975 344.792L185.959 345.144ZM181.895 341.496C181.084 341.496 180.402 341.757 179.847 342.28C179.303 342.792 178.994 343.464 178.919 344.296H184.887C184.812 343.464 184.498 342.792 183.943 342.28C183.399 341.757 182.716 341.496 181.895 341.496ZM202.971 340.52C204.027 340.52 204.853 340.824 205.451 341.432C206.059 342.04 206.363 342.936 206.363 344.12V349H205.227V344.232C205.227 343.357 205.013 342.691 204.587 342.232C204.171 341.773 203.579 341.544 202.811 341.544C201.936 341.544 201.248 341.816 200.747 342.36C200.245 342.893 199.995 343.635 199.995 344.584V349H198.859V344.232C198.859 343.357 198.645 342.691 198.219 342.232C197.803 341.773 197.205 341.544 196.427 341.544C195.563 341.544 194.875 341.816 194.363 342.36C193.861 342.893 193.611 343.635 193.611 344.584V349H192.475V340.584H193.563V342.12C193.861 341.608 194.277 341.213 194.811 340.936C195.344 340.659 195.957 340.52 196.651 340.52C197.355 340.52 197.963 340.669 198.475 340.968C198.997 341.267 199.387 341.709 199.643 342.296C199.952 341.741 200.395 341.309 200.971 341C201.557 340.68 202.224 340.52 202.971 340.52ZM212.387 340.52C213.486 340.52 214.329 340.797 214.915 341.352C215.502 341.896 215.795 342.707 215.795 343.784V349H214.707V347.688C214.451 348.125 214.073 348.467 213.571 348.712C213.081 348.957 212.494 349.08 211.811 349.08C210.873 349.08 210.126 348.856 209.571 348.408C209.017 347.96 208.739 347.368 208.739 346.632C208.739 345.917 208.995 345.341 209.507 344.904C210.03 344.467 210.857 344.248 211.987 344.248H214.659V343.736C214.659 343.011 214.457 342.461 214.051 342.088C213.646 341.704 213.054 341.512 212.275 341.512C211.742 341.512 211.23 341.603 210.739 341.784C210.249 341.955 209.827 342.195 209.475 342.504L208.963 341.656C209.39 341.293 209.902 341.016 210.499 340.824C211.097 340.621 211.726 340.52 212.387 340.52ZM211.987 348.184C212.627 348.184 213.177 348.04 213.635 347.752C214.094 347.453 214.435 347.027 214.659 346.472V345.096H212.019C210.579 345.096 209.859 345.597 209.859 346.6C209.859 347.091 210.046 347.48 210.419 347.768C210.793 348.045 211.315 348.184 211.987 348.184ZM219.969 342.232C220.236 341.667 220.63 341.24 221.153 340.952C221.686 340.664 222.342 340.52 223.121 340.52V341.624L222.849 341.608C221.964 341.608 221.27 341.88 220.769 342.424C220.268 342.968 220.017 343.731 220.017 344.712V349H218.881V340.584H219.969V342.232ZM228.298 344.776L226.314 346.6V349H225.178V337.128H226.314V345.176L231.338 340.584H232.746L229.146 344.024L233.082 349H231.69L228.298 344.776ZM241.771 345.144H234.731C234.795 346.019 235.131 346.728 235.739 347.272C236.347 347.805 237.115 348.072 238.043 348.072C238.566 348.072 239.046 347.981 239.483 347.8C239.921 347.608 240.299 347.331 240.619 346.968L241.259 347.704C240.886 348.152 240.417 348.493 239.851 348.728C239.297 348.963 238.683 349.08 238.011 349.08C237.147 349.08 236.379 348.899 235.707 348.536C235.046 348.163 234.529 347.651 234.155 347C233.782 346.349 233.595 345.613 233.595 344.792C233.595 343.971 233.771 343.235 234.123 342.584C234.486 341.933 234.977 341.427 235.595 341.064C236.225 340.701 236.929 340.52 237.707 340.52C238.486 340.52 239.185 340.701 239.803 341.064C240.422 341.427 240.907 341.933 241.259 342.584C241.611 343.224 241.787 343.96 241.787 344.792L241.771 345.144ZM237.707 341.496C236.897 341.496 236.214 341.757 235.659 342.28C235.115 342.792 234.806 343.464 234.731 344.296H240.699C240.625 343.464 240.31 342.792 239.755 342.28C239.211 341.757 238.529 341.496 237.707 341.496ZM248.532 348.488C248.318 348.68 248.052 348.829 247.732 348.936C247.422 349.032 247.097 349.08 246.756 349.08C245.966 349.08 245.358 348.867 244.932 348.44C244.505 348.013 244.292 347.411 244.292 346.632V341.544H242.788V340.584H244.292V338.744H245.428V340.584H247.988V341.544H245.428V346.568C245.428 347.069 245.55 347.453 245.796 347.72C246.052 347.976 246.414 348.104 246.884 348.104C247.118 348.104 247.342 348.067 247.556 347.992C247.78 347.917 247.972 347.811 248.132 347.672L248.532 348.488ZM250.868 349.08C250.633 349.08 250.431 348.995 250.26 348.824C250.1 348.653 250.02 348.445 250.02 348.2C250.02 347.955 250.1 347.752 250.26 347.592C250.431 347.421 250.633 347.336 250.868 347.336C251.103 347.336 251.305 347.421 251.476 347.592C251.647 347.752 251.732 347.955 251.732 348.2C251.732 348.445 251.647 348.653 251.476 348.824C251.305 348.995 251.103 349.08 250.868 349.08Z" fill="#242424"/>
<defs>
<filter id="filter0_d_52_1" x="0" y="0" width="356" height="436" filterUnits="userSpaceOnUse" color-interpolation-filters="sRGB">
<feFlood flood-opacity="0" result="BackgroundImageFix"/>
<feColorMatrix in="SourceAlpha" type="matrix" values="0 0 0 0 0 0 0 0 0 0 0 0 0 0 0 0 0 0 127 0" result="hardAlpha"/>
<feMorphology radius="2" operator="dilate" in="SourceAlpha" result="effect1_dropShadow_52_1"/>
<feOffset dy="3"/>
<feGaussianBlur stdDeviation="8"/>
<feColorMatrix type="matrix" values="0 0 0 0 0.113976 0 0 0 0 0.199896 0 0 0 0 0.420833 0 0 0 0.15 0"/>
<feBlend mode="normal" in2="BackgroundImageFix" result="effect1_dropShadow_52_1"/>
<feBlend mode="normal" in="SourceGraphic" in2="effect1_dropShadow_52_1" result="shape"/>
</filter>
<filter id="filter1_d_52_1" x="154.411" y="56.7231" width="124.587" height="198.695" filterUnits="userSpaceOnUse" color-interpolation-filters="sRGB">
<feFlood flood-opacity="0" result="BackgroundImageFix"/>
<feColorMatrix in="SourceAlpha" type="matrix" values="0 0 0 0 0 0 0 0 0 0 0 0 0 0 0 0 0 0 127 0" result="hardAlpha"/>
<feOffset dy="4"/>
<feGaussianBlur stdDeviation="6"/>
<feColorMatrix type="matrix" values="0 0 0 0 0.160784 0 0 0 0 0.0941176 0 0 0 0 0.435294 0 0 0 0.2 0"/>
<feBlend mode="normal" in2="BackgroundImageFix" result="effect1_dropShadow_52_1"/>
<feBlend mode="normal" in="SourceGraphic" in2="effect1_dropShadow_52_1" result="shape"/>
</filter>
<clipPath id="clip0_52_1">
<rect width="75.1407" height="75.1407" fill="white" transform="translate(84 78.5703) rotate(-30)"/>
</clipPath>
</defs>
</svg>
