<svg width="356" height="436" viewBox="0 0 356 436" fill="none" xmlns="http://www.w3.org/2000/svg">
<g filter="url(#filter0_d_52_96)">
<rect x="18" y="15" width="320" height="400" rx="16" fill="white"/>
</g>
<rect opacity="0.05" x="18" y="15" width="320" height="400" rx="16" fill="#276ED8"/>
<path d="M60.2855 320.008H54.0455L52.7015 323H51.4695L56.5895 311.8H57.7575L62.8775 323H61.6295L60.2855 320.008ZM59.8535 319.048L57.1655 313.032L54.4775 319.048H59.8535ZM66.6681 323.08C65.9855 323.08 65.3295 322.984 64.7001 322.792C64.0815 322.589 63.5961 322.339 63.2441 322.04L63.7561 321.144C64.1081 321.421 64.5508 321.651 65.0841 321.832C65.6175 322.003 66.1721 322.088 66.7481 322.088C67.5161 322.088 68.0815 321.971 68.4441 321.736C68.8175 321.491 69.0041 321.149 69.0041 320.712C69.0041 320.403 68.9028 320.163 68.7001 319.992C68.4975 319.811 68.2415 319.677 67.9321 319.592C67.6228 319.496 67.2121 319.405 66.7001 319.32C66.0175 319.192 65.4681 319.064 65.0521 318.936C64.6361 318.797 64.2788 318.568 63.9801 318.248C63.6921 317.928 63.5481 317.485 63.5481 316.92C63.5481 316.216 63.8415 315.64 64.4281 315.192C65.0148 314.744 65.8308 314.52 66.8761 314.52C67.4201 314.52 67.9641 314.595 68.5081 314.744C69.0521 314.883 69.5001 315.069 69.8521 315.304L69.3561 316.216C68.6628 315.736 67.8361 315.496 66.8761 315.496C66.1508 315.496 65.6015 315.624 65.2281 315.88C64.8655 316.136 64.6841 316.472 64.6841 316.888C64.6841 317.208 64.7855 317.464 64.9881 317.656C65.2015 317.848 65.4628 317.992 65.7721 318.088C66.0815 318.173 66.5081 318.264 67.0521 318.36C67.7241 318.488 68.2628 318.616 68.6681 318.744C69.0735 318.872 69.4201 319.091 69.7081 319.4C69.9961 319.709 70.1401 320.136 70.1401 320.68C70.1401 321.416 69.8308 322.003 69.2121 322.44C68.6041 322.867 67.7561 323.08 66.6681 323.08ZM74.4963 323.08C73.8136 323.08 73.1576 322.984 72.5283 322.792C71.9096 322.589 71.4243 322.339 71.0723 322.04L71.5843 321.144C71.9363 321.421 72.3789 321.651 72.9123 321.832C73.4456 322.003 74.0003 322.088 74.5763 322.088C75.3443 322.088 75.9096 321.971 76.2723 321.736C76.6456 321.491 76.8323 321.149 76.8323 320.712C76.8323 320.403 76.7309 320.163 76.5283 319.992C76.3256 319.811 76.0696 319.677 75.7603 319.592C75.4509 319.496 75.0403 319.405 74.5283 319.32C73.8456 319.192 73.2963 319.064 72.8803 318.936C72.4643 318.797 72.1069 318.568 71.8083 318.248C71.5203 317.928 71.3763 317.485 71.3763 316.92C71.3763 316.216 71.6696 315.64 72.2563 315.192C72.8429 314.744 73.6589 314.52 74.7043 314.52C75.2483 314.52 75.7923 314.595 76.3363 314.744C76.8803 314.883 77.3283 315.069 77.6803 315.304L77.1843 316.216C76.4909 315.736 75.6643 315.496 74.7043 315.496C73.9789 315.496 73.4296 315.624 73.0563 315.88C72.6936 316.136 72.5123 316.472 72.5123 316.888C72.5123 317.208 72.6136 317.464 72.8163 317.656C73.0296 317.848 73.2909 317.992 73.6003 318.088C73.9096 318.173 74.3363 318.264 74.8802 318.36C75.5523 318.488 76.0909 318.616 76.4963 318.744C76.9016 318.872 77.2483 319.091 77.5363 319.4C77.8243 319.709 77.9683 320.136 77.9683 320.68C77.9683 321.416 77.6589 322.003 77.0403 322.44C76.4323 322.867 75.5843 323.08 74.4963 323.08ZM87.3964 319.144H80.3564C80.4204 320.019 80.7564 320.728 81.3644 321.272C81.9724 321.805 82.7404 322.072 83.6684 322.072C84.191 322.072 84.671 321.981 85.1084 321.8C85.5457 321.608 85.9244 321.331 86.2444 320.968L86.8844 321.704C86.511 322.152 86.0417 322.493 85.4764 322.728C84.9217 322.963 84.3084 323.08 83.6364 323.08C82.7724 323.08 82.0044 322.899 81.3324 322.536C80.671 322.163 80.1537 321.651 79.7804 321C79.407 320.349 79.2204 319.613 79.2204 318.792C79.2204 317.971 79.3964 317.235 79.7484 316.584C80.111 315.933 80.6017 315.427 81.2204 315.064C81.8497 314.701 82.5537 314.52 83.3324 314.52C84.111 314.52 84.8097 314.701 85.4284 315.064C86.047 315.427 86.5324 315.933 86.8844 316.584C87.2364 317.224 87.4124 317.96 87.4124 318.792L87.3964 319.144ZM83.3324 315.496C82.5217 315.496 81.839 315.757 81.2844 316.28C80.7404 316.792 80.431 317.464 80.3564 318.296H86.3244C86.2497 317.464 85.935 316.792 85.3804 316.28C84.8364 315.757 84.1537 315.496 83.3324 315.496ZM94.1566 322.488C93.9433 322.68 93.6766 322.829 93.3566 322.936C93.0473 323.032 92.722 323.08 92.3806 323.08C91.5913 323.08 90.9833 322.867 90.5566 322.44C90.13 322.013 89.9166 321.411 89.9166 320.632V315.544H88.4126V314.584H89.9166V312.744H91.0526V314.584H93.6126V315.544H91.0526V320.568C91.0526 321.069 91.1753 321.453 91.4206 321.72C91.6766 321.976 92.0393 322.104 92.5086 322.104C92.7433 322.104 92.9673 322.067 93.1806 321.992C93.4046 321.917 93.5966 321.811 93.7566 321.672L94.1566 322.488ZM102.668 323.08C101.985 323.08 101.329 322.984 100.7 322.792C100.081 322.589 99.5961 322.339 99.2441 322.04L99.7561 321.144C100.108 321.421 100.551 321.651 101.084 321.832C101.617 322.003 102.172 322.088 102.748 322.088C103.516 322.088 104.081 321.971 104.444 321.736C104.817 321.491 105.004 321.149 105.004 320.712C105.004 320.403 104.903 320.163 104.7 319.992C104.497 319.811 104.241 319.677 103.932 319.592C103.623 319.496 103.212 319.405 102.7 319.32C102.017 319.192 101.468 319.064 101.052 318.936C100.636 318.797 100.279 318.568 99.9801 318.248C99.6921 317.928 99.5481 317.485 99.5481 316.92C99.5481 316.216 99.8415 315.64 100.428 315.192C101.015 314.744 101.831 314.52 102.876 314.52C103.42 314.52 103.964 314.595 104.508 314.744C105.052 314.883 105.5 315.069 105.852 315.304L105.356 316.216C104.663 315.736 103.836 315.496 102.876 315.496C102.151 315.496 101.601 315.624 101.228 315.88C100.865 316.136 100.684 316.472 100.684 316.888C100.684 317.208 100.785 317.464 100.988 317.656C101.201 317.848 101.463 317.992 101.772 318.088C102.081 318.173 102.508 318.264 103.052 318.36C103.724 318.488 104.263 318.616 104.668 318.744C105.073 318.872 105.42 319.091 105.708 319.4C105.996 319.709 106.14 320.136 106.14 320.68C106.14 321.416 105.831 322.003 105.212 322.44C104.604 322.867 103.756 323.08 102.668 323.08ZM112.672 322.488C112.459 322.68 112.192 322.829 111.872 322.936C111.563 323.032 111.238 323.08 110.896 323.08C110.107 323.08 109.499 322.867 109.072 322.44C108.646 322.013 108.432 321.411 108.432 320.632V315.544H106.928V314.584H108.432V312.744H109.568V314.584H112.128V315.544H109.568V320.568C109.568 321.069 109.691 321.453 109.936 321.72C110.192 321.976 110.555 322.104 111.024 322.104C111.259 322.104 111.483 322.067 111.696 321.992C111.92 321.917 112.112 321.811 112.272 321.672L112.672 322.488ZM117.883 323.08C117.073 323.08 116.342 322.899 115.691 322.536C115.041 322.163 114.529 321.651 114.155 321C113.782 320.349 113.595 319.613 113.595 318.792C113.595 317.971 113.782 317.235 114.155 316.584C114.529 315.933 115.041 315.427 115.691 315.064C116.342 314.701 117.073 314.52 117.883 314.52C118.694 314.52 119.425 314.701 120.075 315.064C120.726 315.427 121.233 315.933 121.595 316.584C121.969 317.235 122.155 317.971 122.155 318.792C122.155 319.613 121.969 320.349 121.595 321C121.233 321.651 120.726 322.163 120.075 322.536C119.425 322.899 118.694 323.08 117.883 323.08ZM117.883 322.072C118.481 322.072 119.014 321.939 119.483 321.672C119.963 321.395 120.337 321.005 120.603 320.504C120.87 320.003 121.003 319.432 121.003 318.792C121.003 318.152 120.87 317.581 120.603 317.08C120.337 316.579 119.963 316.195 119.483 315.928C119.014 315.651 118.481 315.512 117.883 315.512C117.286 315.512 116.747 315.651 116.267 315.928C115.798 316.195 115.425 316.579 115.147 317.08C114.881 317.581 114.747 318.152 114.747 318.792C114.747 319.432 114.881 320.003 115.147 320.504C115.425 321.005 115.798 321.395 116.267 321.672C116.747 321.939 117.286 322.072 117.883 322.072ZM125.563 316.232C125.829 315.667 126.224 315.24 126.747 314.952C127.28 314.664 127.936 314.52 128.715 314.52V315.624L128.443 315.608C127.557 315.608 126.864 315.88 126.363 316.424C125.861 316.968 125.611 317.731 125.611 318.712V323H124.475V314.584H125.563V316.232ZM138.021 319.144H130.981C131.045 320.019 131.381 320.728 131.989 321.272C132.597 321.805 133.365 322.072 134.293 322.072C134.816 322.072 135.296 321.981 135.733 321.8C136.171 321.608 136.549 321.331 136.869 320.968L137.509 321.704C137.136 322.152 136.667 322.493 136.101 322.728C135.547 322.963 134.933 323.08 134.261 323.08C133.397 323.08 132.629 322.899 131.957 322.536C131.296 322.163 130.779 321.651 130.405 321C130.032 320.349 129.845 319.613 129.845 318.792C129.845 317.971 130.021 317.235 130.373 316.584C130.736 315.933 131.227 315.427 131.845 315.064C132.475 314.701 133.179 314.52 133.957 314.52C134.736 314.52 135.435 314.701 136.053 315.064C136.672 315.427 137.157 315.933 137.509 316.584C137.861 317.224 138.037 317.96 138.037 318.792L138.021 319.144ZM133.957 315.496C133.147 315.496 132.464 315.757 131.909 316.28C131.365 316.792 131.056 317.464 130.981 318.296H136.949C136.875 317.464 136.56 316.792 136.005 316.28C135.461 315.757 134.779 315.496 133.957 315.496ZM148.873 314.52C149.662 314.52 150.377 314.701 151.017 315.064C151.657 315.416 152.158 315.917 152.521 316.568C152.884 317.219 153.065 317.96 153.065 318.792C153.065 319.635 152.884 320.381 152.521 321.032C152.158 321.683 151.657 322.189 151.017 322.552C150.388 322.904 149.673 323.08 148.873 323.08C148.19 323.08 147.572 322.941 147.017 322.664C146.473 322.376 146.025 321.96 145.673 321.416V326.104H144.537V314.584H145.625V316.248C145.966 315.693 146.414 315.267 146.969 314.968C147.534 314.669 148.169 314.52 148.873 314.52ZM148.793 322.072C149.38 322.072 149.913 321.939 150.393 321.672C150.873 321.395 151.246 321.005 151.513 320.504C151.79 320.003 151.929 319.432 151.929 318.792C151.929 318.152 151.79 317.587 151.513 317.096C151.246 316.595 150.873 316.205 150.393 315.928C149.913 315.651 149.38 315.512 148.793 315.512C148.196 315.512 147.657 315.651 147.177 315.928C146.708 316.205 146.334 316.595 146.057 317.096C145.79 317.587 145.657 318.152 145.657 318.792C145.657 319.432 145.79 320.003 146.057 320.504C146.334 321.005 146.708 321.395 147.177 321.672C147.657 321.939 148.196 322.072 148.793 322.072ZM162.965 314.584V323H161.877V321.464C161.578 321.976 161.168 322.376 160.645 322.664C160.122 322.941 159.525 323.08 158.853 323.08C157.754 323.08 156.885 322.776 156.245 322.168C155.616 321.549 155.301 320.648 155.301 319.464V314.584H156.437V319.352C156.437 320.237 156.656 320.909 157.093 321.368C157.53 321.827 158.154 322.056 158.965 322.056C159.85 322.056 160.549 321.789 161.061 321.256C161.573 320.712 161.829 319.96 161.829 319V314.584H162.965ZM170.483 314.52C171.272 314.52 171.987 314.701 172.627 315.064C173.267 315.416 173.768 315.917 174.131 316.568C174.493 317.219 174.675 317.96 174.675 318.792C174.675 319.624 174.493 320.365 174.131 321.016C173.768 321.667 173.267 322.173 172.627 322.536C171.987 322.899 171.272 323.08 170.483 323.08C169.779 323.08 169.144 322.931 168.579 322.632C168.024 322.333 167.576 321.901 167.235 321.336V323H166.147V311.128H167.283V316.184C167.635 315.64 168.083 315.229 168.627 314.952C169.181 314.664 169.8 314.52 170.483 314.52ZM170.403 322.072C170.989 322.072 171.523 321.939 172.003 321.672C172.483 321.395 172.856 321.005 173.123 320.504C173.4 320.003 173.539 319.432 173.539 318.792C173.539 318.152 173.4 317.581 173.123 317.08C172.856 316.579 172.483 316.195 172.003 315.928C171.523 315.651 170.989 315.512 170.403 315.512C169.805 315.512 169.267 315.651 168.786 315.928C168.317 316.195 167.944 316.579 167.667 317.08C167.4 317.581 167.267 318.152 167.267 318.792C167.267 319.432 167.4 320.003 167.667 320.504C167.944 321.005 168.317 321.395 168.786 321.672C169.267 321.939 169.805 322.072 170.403 322.072ZM176.99 311.128H178.126V323H176.99V311.128ZM181.287 314.584H182.423V323H181.287V314.584ZM181.863 312.744C181.628 312.744 181.431 312.664 181.271 312.504C181.111 312.344 181.031 312.152 181.031 311.928C181.031 311.715 181.111 311.528 181.271 311.368C181.431 311.208 181.628 311.128 181.863 311.128C182.098 311.128 182.295 311.208 182.455 311.368C182.615 311.517 182.695 311.699 182.695 311.912C182.695 312.147 182.615 312.344 182.455 312.504C182.295 312.664 182.098 312.744 181.863 312.744ZM187.84 323.08C187.157 323.08 186.501 322.984 185.872 322.792C185.253 322.589 184.768 322.339 184.416 322.04L184.928 321.144C185.28 321.421 185.723 321.651 186.256 321.832C186.789 322.003 187.344 322.088 187.92 322.088C188.688 322.088 189.253 321.971 189.616 321.736C189.989 321.491 190.176 321.149 190.176 320.712C190.176 320.403 190.075 320.163 189.872 319.992C189.669 319.811 189.413 319.677 189.104 319.592C188.795 319.496 188.384 319.405 187.872 319.32C187.189 319.192 186.64 319.064 186.224 318.936C185.808 318.797 185.451 318.568 185.152 318.248C184.864 317.928 184.72 317.485 184.72 316.92C184.72 316.216 185.013 315.64 185.6 315.192C186.187 314.744 187.003 314.52 188.048 314.52C188.592 314.52 189.136 314.595 189.68 314.744C190.224 314.883 190.672 315.069 191.024 315.304L190.528 316.216C189.835 315.736 189.008 315.496 188.048 315.496C187.323 315.496 186.773 315.624 186.4 315.88C186.037 316.136 185.856 316.472 185.856 316.888C185.856 317.208 185.957 317.464 186.16 317.656C186.373 317.848 186.635 317.992 186.944 318.088C187.253 318.173 187.68 318.264 188.224 318.36C188.896 318.488 189.435 318.616 189.84 318.744C190.245 318.872 190.592 319.091 190.88 319.4C191.168 319.709 191.312 320.136 191.312 320.68C191.312 321.416 191.003 322.003 190.384 322.44C189.776 322.867 188.928 323.08 187.84 323.08ZM197.7 314.52C198.756 314.52 199.593 314.829 200.212 315.448C200.841 316.056 201.156 316.947 201.156 318.12V323H200.02V318.232C200.02 317.357 199.801 316.691 199.364 316.232C198.927 315.773 198.303 315.544 197.492 315.544C196.585 315.544 195.865 315.816 195.332 316.36C194.809 316.893 194.548 317.635 194.548 318.584V323H193.412V311.128H194.548V316.056C194.857 315.565 195.284 315.187 195.828 314.92C196.372 314.653 196.996 314.52 197.7 314.52ZM211.6 319.144H204.56C204.624 320.019 204.96 320.728 205.568 321.272C206.176 321.805 206.944 322.072 207.872 322.072C208.394 322.072 208.874 321.981 209.312 321.8C209.749 321.608 210.128 321.331 210.448 320.968L211.088 321.704C210.714 322.152 210.245 322.493 209.68 322.728C209.125 322.963 208.512 323.08 207.84 323.08C206.976 323.08 206.208 322.899 205.536 322.536C204.874 322.163 204.357 321.651 203.984 321C203.61 320.349 203.424 319.613 203.424 318.792C203.424 317.971 203.6 317.235 203.952 316.584C204.314 315.933 204.805 315.427 205.424 315.064C206.053 314.701 206.757 314.52 207.536 314.52C208.314 314.52 209.013 314.701 209.632 315.064C210.25 315.427 210.736 315.933 211.088 316.584C211.44 317.224 211.616 317.96 211.616 318.792L211.6 319.144ZM207.536 315.496C206.725 315.496 206.042 315.757 205.488 316.28C204.944 316.792 204.634 317.464 204.56 318.296H210.528C210.453 317.464 210.138 316.792 209.584 316.28C209.04 315.757 208.357 315.496 207.536 315.496ZM215.016 316.232C215.282 315.667 215.677 315.24 216.2 314.952C216.733 314.664 217.389 314.52 218.168 314.52V315.624L217.896 315.608C217.01 315.608 216.317 315.88 215.816 316.424C215.314 316.968 215.064 317.731 215.064 318.712V323H213.928V314.584H215.016V316.232ZM226.793 323.08C226.11 323.08 225.454 322.984 224.825 322.792C224.206 322.589 223.721 322.339 223.369 322.04L223.881 321.144C224.233 321.421 224.676 321.651 225.209 321.832C225.742 322.003 226.297 322.088 226.873 322.088C227.641 322.088 228.206 321.971 228.569 321.736C228.942 321.491 229.129 321.149 229.129 320.712C229.129 320.403 229.028 320.163 228.825 319.992C228.622 319.811 228.366 319.677 228.057 319.592C227.748 319.496 227.337 319.405 226.825 319.32C226.142 319.192 225.593 319.064 225.177 318.936C224.761 318.797 224.404 318.568 224.105 318.248C223.817 317.928 223.673 317.485 223.673 316.92C223.673 316.216 223.966 315.64 224.553 315.192C225.14 314.744 225.956 314.52 227.001 314.52C227.545 314.52 228.089 314.595 228.633 314.744C229.177 314.883 229.625 315.069 229.977 315.304L229.481 316.216C228.788 315.736 227.961 315.496 227.001 315.496C226.276 315.496 225.726 315.624 225.353 315.88C224.99 316.136 224.809 316.472 224.809 316.888C224.809 317.208 224.91 317.464 225.113 317.656C225.326 317.848 225.588 317.992 225.897 318.088C226.206 318.173 226.633 318.264 227.177 318.36C227.849 318.488 228.388 318.616 228.793 318.744C229.198 318.872 229.545 319.091 229.833 319.4C230.121 319.709 230.265 320.136 230.265 320.68C230.265 321.416 229.956 322.003 229.337 322.44C228.729 322.867 227.881 323.08 226.793 323.08ZM232.365 314.584H233.501V323H232.365V314.584ZM232.941 312.744C232.707 312.744 232.509 312.664 232.349 312.504C232.189 312.344 232.109 312.152 232.109 311.928C232.109 311.715 232.189 311.528 232.349 311.368C232.509 311.208 232.707 311.128 232.941 311.128C233.176 311.128 233.373 311.208 233.533 311.368C233.693 311.517 233.773 311.699 233.773 311.912C233.773 312.147 233.693 312.344 233.533 312.504C233.373 312.664 233.176 312.744 232.941 312.744ZM240.95 314.52C242.006 314.52 242.843 314.829 243.462 315.448C244.091 316.056 244.406 316.947 244.406 318.12V323H243.27V318.232C243.27 317.357 243.051 316.691 242.614 316.232C242.177 315.773 241.553 315.544 240.742 315.544C239.835 315.544 239.115 315.816 238.582 316.36C238.059 316.893 237.798 317.635 237.798 318.584V323H236.662V314.584H237.75V316.136C238.059 315.624 238.486 315.229 239.03 314.952C239.585 314.664 240.225 314.52 240.95 314.52ZM251.01 323.08C250.178 323.08 249.431 322.899 248.77 322.536C248.119 322.173 247.607 321.667 247.234 321.016C246.86 320.355 246.674 319.613 246.674 318.792C246.674 317.971 246.86 317.235 247.234 316.584C247.607 315.933 248.119 315.427 248.77 315.064C249.431 314.701 250.178 314.52 251.01 314.52C251.735 314.52 252.38 314.664 252.946 314.952C253.522 315.229 253.975 315.64 254.306 316.184L253.458 316.76C253.18 316.344 252.828 316.035 252.402 315.832C251.975 315.619 251.511 315.512 251.01 315.512C250.402 315.512 249.852 315.651 249.362 315.928C248.882 316.195 248.503 316.579 248.226 317.08C247.959 317.581 247.826 318.152 247.826 318.792C247.826 319.443 247.959 320.019 248.226 320.52C248.503 321.011 248.882 321.395 249.362 321.672C249.852 321.939 250.402 322.072 251.01 322.072C251.511 322.072 251.975 321.971 252.402 321.768C252.828 321.565 253.18 321.256 253.458 320.84L254.306 321.416C253.975 321.96 253.522 322.376 252.946 322.664C252.37 322.941 251.724 323.08 251.01 323.08ZM263.725 319.144H256.685C256.749 320.019 257.085 320.728 257.693 321.272C258.301 321.805 259.069 322.072 259.997 322.072C260.519 322.072 260.999 321.981 261.437 321.8C261.874 321.608 262.253 321.331 262.573 320.968L263.213 321.704C262.839 322.152 262.37 322.493 261.805 322.728C261.25 322.963 260.637 323.08 259.965 323.08C259.101 323.08 258.333 322.899 257.661 322.536C256.999 322.163 256.482 321.651 256.109 321C255.735 320.349 255.549 319.613 255.549 318.792C255.549 317.971 255.725 317.235 256.077 316.584C256.439 315.933 256.93 315.427 257.549 315.064C258.178 314.701 258.882 314.52 259.661 314.52C260.439 314.52 261.138 314.701 261.757 315.064C262.375 315.427 262.861 315.933 263.213 316.584C263.565 317.224 263.741 317.96 263.741 318.792L263.725 319.144ZM259.661 315.496C258.85 315.496 258.167 315.757 257.613 316.28C257.069 316.792 256.759 317.464 256.685 318.296H262.653C262.578 317.464 262.263 316.792 261.709 316.28C261.165 315.757 260.482 315.496 259.661 315.496Z" fill="#242424"/>
<path d="M277.648 320.888V323H269.184V321.32L273.504 317.24C273.963 316.803 274.272 316.429 274.432 316.12C274.592 315.8 274.672 315.485 274.672 315.176C274.672 314.728 274.518 314.387 274.208 314.152C273.91 313.907 273.467 313.784 272.88 313.784C272.39 313.784 271.947 313.88 271.552 314.072C271.158 314.253 270.827 314.531 270.56 314.904L268.672 313.688C269.11 313.037 269.712 312.531 270.48 312.168C271.248 311.795 272.128 311.608 273.12 311.608C273.952 311.608 274.678 311.747 275.296 312.024C275.926 312.291 276.411 312.675 276.752 313.176C277.104 313.667 277.28 314.248 277.28 314.92C277.28 315.528 277.152 316.099 276.896 316.632C276.64 317.165 276.144 317.773 275.408 318.456L272.832 320.888H277.648ZM283.487 323.192C282.559 323.192 281.732 322.963 281.007 322.504C280.281 322.045 279.711 321.384 279.295 320.52C278.889 319.645 278.687 318.605 278.687 317.4C278.687 316.195 278.889 315.16 279.295 314.296C279.711 313.421 280.281 312.755 281.007 312.296C281.732 311.837 282.559 311.608 283.487 311.608C284.415 311.608 285.241 311.837 285.967 312.296C286.692 312.755 287.257 313.421 287.663 314.296C288.079 315.16 288.287 316.195 288.287 317.4C288.287 318.605 288.079 319.645 287.663 320.52C287.257 321.384 286.692 322.045 285.967 322.504C285.241 322.963 284.415 323.192 283.487 323.192ZM283.487 321C284.169 321 284.703 320.707 285.087 320.12C285.481 319.533 285.679 318.627 285.679 317.4C285.679 316.173 285.481 315.267 285.087 314.68C284.703 314.093 284.169 313.8 283.487 313.8C282.815 313.8 282.281 314.093 281.887 314.68C281.503 315.267 281.311 316.173 281.311 317.4C281.311 318.627 281.503 319.533 281.887 320.12C282.281 320.707 282.815 321 283.487 321ZM293.772 311.8V323H291.18V313.88H288.94V311.8H293.772ZM300.95 316.36C301.931 316.52 302.683 316.888 303.206 317.464C303.728 318.029 303.99 318.733 303.99 319.576C303.99 320.227 303.819 320.829 303.478 321.384C303.136 321.928 302.614 322.365 301.91 322.696C301.216 323.027 300.363 323.192 299.35 323.192C298.56 323.192 297.782 323.091 297.014 322.888C296.256 322.675 295.611 322.376 295.078 321.992L296.086 320.008C296.512 320.328 297.003 320.579 297.558 320.76C298.123 320.931 298.699 321.016 299.286 321.016C299.936 321.016 300.448 320.893 300.822 320.648C301.195 320.392 301.382 320.035 301.382 319.576C301.382 318.659 300.683 318.2 299.286 318.2H298.102V316.488L300.406 313.88H295.638V311.8H303.478V313.48L300.95 316.36Z" fill="#276ED8"/>
<g opacity="0.2" clip-path="url(#clip0_52_96)">
<path d="M205.763 89.4721C196.745 80.4543 196.745 65.781 205.763 56.7632C214.781 47.7453 229.454 47.7453 238.471 56.7632C246.122 64.4136 247.281 75.7917 241.951 84.6768C241.951 84.6768 241.568 85.3192 242.085 85.8359C245.035 88.7856 253.885 97.636 253.885 97.636C256.234 99.9845 256.793 103.269 254.71 105.352L254.351 105.71C252.268 107.793 248.984 107.234 246.636 104.886C246.636 104.886 237.804 96.0539 234.86 93.1102C234.318 92.5684 233.676 92.9512 233.676 92.9512C224.791 98.2811 213.413 97.1226 205.763 89.4721ZM234.201 85.202C240.865 78.5387 240.865 67.6969 234.201 61.0337C227.538 54.3706 216.696 54.3704 210.033 61.0337C203.37 67.6968 203.37 78.5387 210.033 85.202C216.696 91.8649 227.538 91.8649 234.201 85.202Z" fill="#84B5FF"/>
<path d="M232.726 71.7453C233.036 71.7453 233.351 71.6843 233.655 71.556C234.869 71.0422 235.437 69.6415 234.923 68.4274C231.694 60.7963 222.859 57.2151 215.228 60.4443C214.014 60.958 213.446 62.3587 213.96 63.5728C214.474 64.7869 215.874 65.3545 217.089 64.8409C222.295 62.6378 228.324 65.0813 230.527 70.2877C230.912 71.1983 231.796 71.7453 232.726 71.7453Z" fill="#84B5FF"/>
</g>
<g opacity="0.2" clip-path="url(#clip1_52_96)">
<path d="M141.604 171.917H77.3959C76.5584 171.917 76 172.475 76 173.313V192.854C76 196.763 79.0709 199.833 82.9791 199.833H136.021C139.929 199.833 143 196.762 143 192.854V173.313C143 172.475 142.442 171.917 141.604 171.917ZM85.7709 183.083H96.9375C97.775 183.083 98.3334 183.642 98.3334 184.479C98.3334 185.317 97.775 185.875 96.9375 185.875H85.7709C84.9334 185.875 84.375 185.317 84.375 184.479C84.375 183.642 84.9334 183.083 85.7709 183.083ZM105.312 191.458H85.7709C84.9334 191.458 84.375 190.9 84.375 190.063C84.375 189.225 84.9334 188.667 85.7709 188.667H105.312C106.15 188.667 106.708 189.225 106.708 190.063C106.708 190.9 106.15 191.458 105.312 191.458ZM129.042 191.458C127.925 191.458 127.088 191.179 126.25 190.621C125.412 191.179 124.575 191.458 123.458 191.458C120.388 191.458 117.875 188.946 117.875 185.875C117.875 182.804 120.388 180.292 123.458 180.292C124.575 180.292 125.412 180.571 126.25 181.129C127.088 180.571 127.925 180.292 129.042 180.292C132.112 180.292 134.625 182.804 134.625 185.875C134.625 188.946 132.112 191.458 129.042 191.458Z" fill="#84B5FF"/>
<path d="M136.021 155.167H82.9791C79.0709 155.167 76 158.238 76 162.146V164.938C76 165.775 76.5584 166.333 77.3959 166.333H141.604C142.442 166.333 143 165.775 143 164.938V162.146C143 158.238 139.929 155.167 136.021 155.167Z" fill="#84B5FF"/>
</g>
<g opacity="0.2" clip-path="url(#clip2_52_96)">
<path d="M258.602 228.668H223.667C222.802 228.668 222.044 228.096 221.809 227.266L214.075 200.195C213.908 199.611 214.022 198.984 214.388 198.499C214.755 198.016 215.325 197.73 215.933 197.73H263.065L264.448 191.511C264.644 190.625 265.43 189.996 266.336 189.996H278.066C279.135 189.996 280 190.861 280 191.93C280 192.999 279.135 193.863 278.066 193.863H267.888L260.905 225.284C262.96 226.177 264.402 228.222 264.402 230.602C264.402 233.801 261.8 236.403 258.602 236.403H223.667C222.598 236.403 221.734 235.538 221.734 234.469C221.734 233.401 222.598 232.536 223.667 232.536H258.602C259.667 232.536 260.535 231.669 260.535 230.602C260.535 229.535 259.667 228.668 258.602 228.668Z" fill="#84B5FF"/>
<path d="M260.535 242.204C260.535 245.403 257.933 248.005 254.734 248.005C251.535 248.005 248.933 245.403 248.933 242.204C248.933 239.005 251.535 236.403 254.734 236.403C257.933 236.403 260.535 239.005 260.535 242.204Z" fill="#84B5FF"/>
<path d="M233.336 242.204C233.336 245.403 230.733 248.005 227.535 248.005C224.336 248.005 221.734 245.403 221.734 242.204C221.734 239.005 224.336 236.403 227.535 236.403C230.733 236.403 233.336 239.005 233.336 242.204Z" fill="#84B5FF"/>
</g>
<g filter="url(#filter1_d_52_96)">
<path d="M212.654 76H143.346C138.185 76 134 80.1732 134 85.3237V200.379V226.628C134 231.819 138.229 235.952 143.346 235.952H212.654C217.814 235.952 222 231.78 222 226.628V111.573V85.3237C222 80.1275 217.765 76 212.654 76Z" fill="#276ED8"/>
<path d="M217.471 88.707H138.533V223.244H217.471V88.707Z" fill="#F0F6FF"/>
<path d="M193.61 123.323L172.347 129.569L169.2 135.657L162.814 135.605L147.25 152.667L162.814 169.727L169.197 169.674L172.351 175.758L193.61 182.004L199.306 158.703L196.07 152.667L199.306 146.632L193.61 123.323ZM169.712 136.636L185.977 132.053L176.641 149.785H157.965L169.712 136.636ZM169.712 168.694L157.965 155.546H176.641L185.977 173.277L169.712 168.694ZM190.529 170.395L181.189 152.667L190.529 134.932L195.039 152.667L190.529 170.395Z" fill="#06B25F"/>
<path d="M194.276 84.4791H161.855C161.48 84.4791 161.176 84.1766 161.176 83.8014V83.4704C161.176 83.0966 161.479 82.7927 161.855 82.7927H194.276C194.65 82.7927 194.955 83.0952 194.955 83.4704V83.8014C194.953 84.1752 194.65 84.4791 194.276 84.4791Z" fill="white"/>
<path opacity="0.2" d="M217.471 215.287H138.533V223.245H217.471V215.287Z" fill="#84B5FF"/>
<path opacity="0.2" d="M217.471 88.707H138.533V95.8463H217.471V88.707Z" fill="#84B5FF"/>
</g>
<defs>
<filter id="filter0_d_52_96" x="0" y="0" width="356" height="436" filterUnits="userSpaceOnUse" color-interpolation-filters="sRGB">
<feFlood flood-opacity="0" result="BackgroundImageFix"/>
<feColorMatrix in="SourceAlpha" type="matrix" values="0 0 0 0 0 0 0 0 0 0 0 0 0 0 0 0 0 0 127 0" result="hardAlpha"/>
<feMorphology radius="2" operator="dilate" in="SourceAlpha" result="effect1_dropShadow_52_96"/>
<feOffset dy="3"/>
<feGaussianBlur stdDeviation="8"/>
<feColorMatrix type="matrix" values="0 0 0 0 0.113976 0 0 0 0 0.199896 0 0 0 0 0.420833 0 0 0 0.15 0"/>
<feBlend mode="normal" in2="BackgroundImageFix" result="effect1_dropShadow_52_96"/>
<feBlend mode="normal" in="SourceGraphic" in2="effect1_dropShadow_52_96" result="shape"/>
</filter>
<filter id="filter1_d_52_96" x="122" y="68" width="112" height="183.952" filterUnits="userSpaceOnUse" color-interpolation-filters="sRGB">
<feFlood flood-opacity="0" result="BackgroundImageFix"/>
<feColorMatrix in="SourceAlpha" type="matrix" values="0 0 0 0 0 0 0 0 0 0 0 0 0 0 0 0 0 0 127 0" result="hardAlpha"/>
<feOffset dy="4"/>
<feGaussianBlur stdDeviation="6"/>
<feColorMatrix type="matrix" values="0 0 0 0 0.160784 0 0 0 0 0.0941176 0 0 0 0 0.435294 0 0 0 0.25 0"/>
<feBlend mode="normal" in2="BackgroundImageFix" result="effect1_dropShadow_52_96"/>
<feBlend mode="normal" in="SourceGraphic" in2="effect1_dropShadow_52_96" result="shape"/>
</filter>
<clipPath id="clip0_52_96">
<rect width="57" height="57" fill="white" transform="matrix(-1 0 0 1 256 50)"/>
</clipPath>
<clipPath id="clip1_52_96">
<rect width="67" height="67" fill="white" transform="translate(76 144)"/>
</clipPath>
<clipPath id="clip2_52_96">
<rect width="66" height="66" fill="white" transform="matrix(-1 0 0 1 280 186)"/>
</clipPath>
</defs>
</svg>
