<svg width="358" height="436" viewBox="0 0 358 436" fill="none" xmlns="http://www.w3.org/2000/svg">
<g filter="url(#filter0_d_52_124)">
<rect x="18" y="15" width="322" height="400" rx="16" fill="white"/>
</g>
<rect opacity="0.05" x="19" y="15" width="320" height="400" rx="16" fill="#276ED8"/>
<path d="M52.7513 323.096C51.6419 323.096 50.6339 322.851 49.7273 322.36C48.8313 321.859 48.1273 321.176 47.6153 320.312C47.1139 319.448 46.8633 318.477 46.8633 317.4C46.8633 316.323 47.1139 315.352 47.6153 314.488C48.1273 313.624 48.8313 312.947 49.7273 312.456C50.6339 311.955 51.6419 311.704 52.7513 311.704C53.8606 311.704 54.8579 311.949 55.7433 312.44C56.6393 312.931 57.3433 313.613 57.8553 314.488C58.3673 315.352 58.6233 316.323 58.6233 317.4C58.6233 318.477 58.3673 319.453 57.8553 320.328C57.3433 321.192 56.6393 321.869 55.7433 322.36C54.8579 322.851 53.8606 323.096 52.7513 323.096ZM52.7513 322.04C53.6366 322.04 54.4366 321.843 55.1513 321.448C55.8659 321.043 56.4259 320.488 56.8313 319.784C57.2366 319.069 57.4393 318.275 57.4393 317.4C57.4393 316.525 57.2366 315.736 56.8313 315.032C56.4259 314.317 55.8659 313.763 55.1513 313.368C54.4366 312.963 53.6366 312.76 52.7513 312.76C51.8659 312.76 51.0606 312.963 50.3353 313.368C49.6206 313.763 49.0553 314.317 48.6393 315.032C48.2339 315.736 48.0312 316.525 48.0312 317.4C48.0312 318.275 48.2339 319.069 48.6393 319.784C49.0553 320.488 49.6206 321.043 50.3353 321.448C51.0606 321.843 51.8659 322.04 52.7513 322.04ZM68.6211 314.584V323H67.5331V321.464C67.2345 321.976 66.8238 322.376 66.3011 322.664C65.7785 322.941 65.1811 323.08 64.5091 323.08C63.4105 323.08 62.5411 322.776 61.9011 322.168C61.2718 321.549 60.9571 320.648 60.9571 319.464V314.584H62.0931V319.352C62.0931 320.237 62.3118 320.909 62.7491 321.368C63.1865 321.827 63.8105 322.056 64.6211 322.056C65.5065 322.056 66.2051 321.789 66.7171 321.256C67.2291 320.712 67.4851 319.96 67.4851 319V314.584H68.6211ZM72.8908 316.232C73.1574 315.667 73.5521 315.24 74.0748 314.952C74.6081 314.664 75.2641 314.52 76.0428 314.52V315.624L75.7708 315.608C74.8854 315.608 74.1921 315.88 73.6908 316.424C73.1894 316.968 72.9388 317.731 72.9388 318.712V323H71.8028V314.584H72.8908V316.232ZM86.7481 314.52C87.5375 314.52 88.2521 314.701 88.8921 315.064C89.5321 315.416 90.0335 315.917 90.3961 316.568C90.7588 317.219 90.9401 317.96 90.9401 318.792C90.9401 319.635 90.7588 320.381 90.3961 321.032C90.0335 321.683 89.5321 322.189 88.8921 322.552C88.2628 322.904 87.5481 323.08 86.7481 323.08C86.0655 323.08 85.4468 322.941 84.8921 322.664C84.3481 322.376 83.9001 321.96 83.5481 321.416V326.104H82.4121V314.584H83.5001V316.248C83.8415 315.693 84.2895 315.267 84.8441 314.968C85.4095 314.669 86.0441 314.52 86.7481 314.52ZM86.6681 322.072C87.2548 322.072 87.7881 321.939 88.2681 321.672C88.7481 321.395 89.1215 321.005 89.3881 320.504C89.6655 320.003 89.8041 319.432 89.8041 318.792C89.8041 318.152 89.6655 317.587 89.3881 317.096C89.1215 316.595 88.7481 316.205 88.2681 315.928C87.7881 315.651 87.2548 315.512 86.6681 315.512C86.0708 315.512 85.5321 315.651 85.0521 315.928C84.5828 316.205 84.2095 316.595 83.9321 317.096C83.6655 317.587 83.5321 318.152 83.5321 318.792C83.5321 319.432 83.6655 320.003 83.9321 320.504C84.2095 321.005 84.5828 321.395 85.0521 321.672C85.5321 321.939 86.0708 322.072 86.6681 322.072ZM94.3439 316.232C94.6105 315.667 95.0052 315.24 95.5279 314.952C96.0612 314.664 96.7172 314.52 97.4959 314.52V315.624L97.2239 315.608C96.3385 315.608 95.6452 315.88 95.1439 316.424C94.6425 316.968 94.3919 317.731 94.3919 318.712V323H93.2559V314.584H94.3439V316.232ZM102.915 323.08C102.104 323.08 101.373 322.899 100.723 322.536C100.072 322.163 99.56 321.651 99.1866 321C98.8133 320.349 98.6266 319.613 98.6266 318.792C98.6266 317.971 98.8133 317.235 99.1866 316.584C99.56 315.933 100.072 315.427 100.723 315.064C101.373 314.701 102.104 314.52 102.915 314.52C103.725 314.52 104.456 314.701 105.107 315.064C105.757 315.427 106.264 315.933 106.627 316.584C107 317.235 107.187 317.971 107.187 318.792C107.187 319.613 107 320.349 106.627 321C106.264 321.651 105.757 322.163 105.107 322.536C104.456 322.899 103.725 323.08 102.915 323.08ZM102.915 322.072C103.512 322.072 104.045 321.939 104.515 321.672C104.995 321.395 105.368 321.005 105.635 320.504C105.901 320.003 106.035 319.432 106.035 318.792C106.035 318.152 105.901 317.581 105.635 317.08C105.368 316.579 104.995 316.195 104.515 315.928C104.045 315.651 103.512 315.512 102.915 315.512C102.317 315.512 101.779 315.651 101.299 315.928C100.829 316.195 100.456 316.579 100.179 317.08C99.912 317.581 99.7786 318.152 99.7786 318.792C99.7786 319.432 99.912 320.003 100.179 320.504C100.456 321.005 100.829 321.395 101.299 321.672C101.779 321.939 102.317 322.072 102.915 322.072ZM117.186 311.128V323H116.098V321.336C115.757 321.901 115.303 322.333 114.738 322.632C114.183 322.931 113.554 323.08 112.85 323.08C112.061 323.08 111.346 322.899 110.706 322.536C110.066 322.173 109.565 321.667 109.202 321.016C108.839 320.365 108.658 319.624 108.658 318.792C108.658 317.96 108.839 317.219 109.202 316.568C109.565 315.917 110.066 315.416 110.706 315.064C111.346 314.701 112.061 314.52 112.85 314.52C113.533 314.52 114.146 314.664 114.69 314.952C115.245 315.229 115.698 315.64 116.05 316.184V311.128H117.186ZM112.946 322.072C113.533 322.072 114.061 321.939 114.53 321.672C115.01 321.395 115.383 321.005 115.65 320.504C115.927 320.003 116.066 319.432 116.066 318.792C116.066 318.152 115.927 317.581 115.65 317.08C115.383 316.579 115.01 316.195 114.53 315.928C114.061 315.651 113.533 315.512 112.946 315.512C112.349 315.512 111.81 315.651 111.33 315.928C110.861 316.195 110.487 316.579 110.21 317.08C109.943 317.581 109.81 318.152 109.81 318.792C109.81 319.432 109.943 320.003 110.21 320.504C110.487 321.005 110.861 321.395 111.33 321.672C111.81 321.939 112.349 322.072 112.946 322.072ZM127.934 314.584V323H126.846V321.464C126.547 321.976 126.136 322.376 125.614 322.664C125.091 322.941 124.494 323.08 123.822 323.08C122.723 323.08 121.854 322.776 121.214 322.168C120.584 321.549 120.27 320.648 120.27 319.464V314.584H121.406V319.352C121.406 320.237 121.624 320.909 122.062 321.368C122.499 321.827 123.123 322.056 123.934 322.056C124.819 322.056 125.518 321.789 126.03 321.256C126.542 320.712 126.798 319.96 126.798 319V314.584H127.934ZM134.603 323.08C133.771 323.08 133.025 322.899 132.363 322.536C131.713 322.173 131.201 321.667 130.827 321.016C130.454 320.355 130.267 319.613 130.267 318.792C130.267 317.971 130.454 317.235 130.827 316.584C131.201 315.933 131.713 315.427 132.363 315.064C133.025 314.701 133.771 314.52 134.603 314.52C135.329 314.52 135.974 314.664 136.539 314.952C137.115 315.229 137.569 315.64 137.899 316.184L137.051 316.76C136.774 316.344 136.422 316.035 135.995 315.832C135.569 315.619 135.105 315.512 134.603 315.512C133.995 315.512 133.446 315.651 132.955 315.928C132.475 316.195 132.097 316.579 131.819 317.08C131.553 317.581 131.419 318.152 131.419 318.792C131.419 319.443 131.553 320.019 131.819 320.52C132.097 321.011 132.475 321.395 132.955 321.672C133.446 321.939 133.995 322.072 134.603 322.072C135.105 322.072 135.569 321.971 135.995 321.768C136.422 321.565 136.774 321.256 137.051 320.84L137.899 321.416C137.569 321.96 137.115 322.376 136.539 322.664C135.963 322.941 135.318 323.08 134.603 323.08ZM144.657 322.488C144.443 322.68 144.177 322.829 143.857 322.936C143.547 323.032 143.222 323.08 142.881 323.08C142.091 323.08 141.483 322.867 141.057 322.44C140.63 322.013 140.417 321.411 140.417 320.632V315.544H138.913V314.584H140.417V312.744H141.553V314.584H144.113V315.544H141.553V320.568C141.553 321.069 141.675 321.453 141.921 321.72C142.177 321.976 142.539 322.104 143.009 322.104C143.243 322.104 143.467 322.067 143.681 321.992C143.905 321.917 144.097 321.811 144.257 321.672L144.657 322.488ZM148.981 323.08C148.298 323.08 147.642 322.984 147.013 322.792C146.394 322.589 145.909 322.339 145.557 322.04L146.069 321.144C146.421 321.421 146.863 321.651 147.397 321.832C147.93 322.003 148.485 322.088 149.061 322.088C149.829 322.088 150.394 321.971 150.757 321.736C151.13 321.491 151.317 321.149 151.317 320.712C151.317 320.403 151.215 320.163 151.013 319.992C150.81 319.811 150.554 319.677 150.245 319.592C149.935 319.496 149.525 319.405 149.013 319.32C148.33 319.192 147.781 319.064 147.365 318.936C146.949 318.797 146.591 318.568 146.293 318.248C146.005 317.928 145.861 317.485 145.861 316.92C145.861 316.216 146.154 315.64 146.741 315.192C147.327 314.744 148.143 314.52 149.189 314.52C149.733 314.52 150.277 314.595 150.821 314.744C151.365 314.883 151.813 315.069 152.165 315.304L151.669 316.216C150.975 315.736 150.149 315.496 149.189 315.496C148.463 315.496 147.914 315.624 147.541 315.88C147.178 316.136 146.997 316.472 146.997 316.888C146.997 317.208 147.098 317.464 147.301 317.656C147.514 317.848 147.775 317.992 148.085 318.088C148.394 318.173 148.821 318.264 149.365 318.36C150.037 318.488 150.575 318.616 150.981 318.744C151.386 318.872 151.733 319.091 152.021 319.4C152.309 319.709 152.453 320.136 152.453 320.68C152.453 321.416 152.143 322.003 151.525 322.44C150.917 322.867 150.069 323.08 148.981 323.08ZM160.676 326.104C160.079 325.123 159.62 323.997 159.3 322.728C158.98 321.448 158.82 320.077 158.82 318.616C158.82 317.155 158.98 315.784 159.3 314.504C159.62 313.213 160.079 312.088 160.676 311.128H161.764C161.135 312.205 160.671 313.363 160.372 314.6C160.084 315.837 159.94 317.176 159.94 318.616C159.94 320.056 160.084 321.395 160.372 322.632C160.671 323.869 161.135 325.027 161.764 326.104H160.676ZM168.342 314.52C169.131 314.52 169.846 314.701 170.486 315.064C171.126 315.416 171.627 315.917 171.99 316.568C172.353 317.219 172.534 317.96 172.534 318.792C172.534 319.635 172.353 320.381 171.99 321.032C171.627 321.683 171.126 322.189 170.486 322.552C169.857 322.904 169.142 323.08 168.342 323.08C167.659 323.08 167.041 322.941 166.486 322.664C165.942 322.376 165.494 321.96 165.142 321.416V326.104H164.006V314.584H165.094V316.248C165.435 315.693 165.883 315.267 166.438 314.968C167.003 314.669 167.638 314.52 168.342 314.52ZM168.262 322.072C168.849 322.072 169.382 321.939 169.862 321.672C170.342 321.395 170.715 321.005 170.982 320.504C171.259 320.003 171.398 319.432 171.398 318.792C171.398 318.152 171.259 317.587 170.982 317.096C170.715 316.595 170.342 316.205 169.862 315.928C169.382 315.651 168.849 315.512 168.262 315.512C167.665 315.512 167.126 315.651 166.646 315.928C166.177 316.205 165.803 316.595 165.526 317.096C165.259 317.587 165.126 318.152 165.126 318.792C165.126 319.432 165.259 320.003 165.526 320.504C165.803 321.005 166.177 321.395 166.646 321.672C167.126 321.939 167.665 322.072 168.262 322.072ZM177.747 314.52C178.845 314.52 179.688 314.797 180.275 315.352C180.861 315.896 181.155 316.707 181.155 317.784V323H180.067V321.688C179.811 322.125 179.432 322.467 178.931 322.712C178.44 322.957 177.853 323.08 177.171 323.08C176.232 323.08 175.485 322.856 174.931 322.408C174.376 321.96 174.099 321.368 174.099 320.632C174.099 319.917 174.355 319.341 174.867 318.904C175.389 318.467 176.216 318.248 177.347 318.248H180.019V317.736C180.019 317.011 179.816 316.461 179.411 316.088C179.005 315.704 178.413 315.512 177.635 315.512C177.101 315.512 176.589 315.603 176.099 315.784C175.608 315.955 175.187 316.195 174.835 316.504L174.323 315.656C174.749 315.293 175.261 315.016 175.859 314.824C176.456 314.621 177.085 314.52 177.747 314.52ZM177.347 322.184C177.987 322.184 178.536 322.04 178.995 321.752C179.453 321.453 179.795 321.027 180.019 320.472V319.096H177.379C175.939 319.096 175.219 319.597 175.219 320.6C175.219 321.091 175.405 321.48 175.779 321.768C176.152 322.045 176.675 322.184 177.347 322.184ZM187.76 323.08C186.928 323.08 186.181 322.899 185.52 322.536C184.869 322.173 184.357 321.667 183.984 321.016C183.61 320.355 183.424 319.613 183.424 318.792C183.424 317.971 183.61 317.235 183.984 316.584C184.357 315.933 184.869 315.427 185.52 315.064C186.181 314.701 186.928 314.52 187.76 314.52C188.485 314.52 189.13 314.664 189.696 314.952C190.272 315.229 190.725 315.64 191.056 316.184L190.208 316.76C189.93 316.344 189.578 316.035 189.152 315.832C188.725 315.619 188.261 315.512 187.76 315.512C187.152 315.512 186.602 315.651 186.112 315.928C185.632 316.195 185.253 316.579 184.976 317.08C184.709 317.581 184.576 318.152 184.576 318.792C184.576 319.443 184.709 320.019 184.976 320.52C185.253 321.011 185.632 321.395 186.112 321.672C186.602 321.939 187.152 322.072 187.76 322.072C188.261 322.072 188.725 321.971 189.152 321.768C189.578 321.565 189.93 321.256 190.208 320.84L191.056 321.416C190.725 321.96 190.272 322.376 189.696 322.664C189.12 322.941 188.474 323.08 187.76 323.08ZM196.282 318.776L194.298 320.6V323H193.162V311.128H194.298V319.176L199.322 314.584H200.73L197.13 318.024L201.066 323H199.674L196.282 318.776ZM205.559 314.52C206.658 314.52 207.501 314.797 208.087 315.352C208.674 315.896 208.967 316.707 208.967 317.784V323H207.879V321.688C207.623 322.125 207.245 322.467 206.743 322.712C206.253 322.957 205.666 323.08 204.983 323.08C204.045 323.08 203.298 322.856 202.743 322.408C202.189 321.96 201.911 321.368 201.911 320.632C201.911 319.917 202.167 319.341 202.679 318.904C203.202 318.467 204.029 318.248 205.159 318.248H207.831V317.736C207.831 317.011 207.629 316.461 207.223 316.088C206.818 315.704 206.226 315.512 205.447 315.512C204.914 315.512 204.402 315.603 203.911 315.784C203.421 315.955 202.999 316.195 202.647 316.504L202.135 315.656C202.562 315.293 203.074 315.016 203.671 314.824C204.269 314.621 204.898 314.52 205.559 314.52ZM205.159 322.184C205.799 322.184 206.349 322.04 206.807 321.752C207.266 321.453 207.607 321.027 207.831 320.472V319.096H205.191C203.751 319.096 203.031 319.597 203.031 320.6C203.031 321.091 203.218 321.48 203.591 321.768C203.965 322.045 204.487 322.184 205.159 322.184ZM219.876 314.584V321.976C219.876 323.405 219.524 324.461 218.82 325.144C218.127 325.837 217.076 326.184 215.668 326.184C214.889 326.184 214.148 326.067 213.444 325.832C212.751 325.608 212.185 325.293 211.748 324.888L212.324 324.024C212.729 324.387 213.22 324.669 213.796 324.872C214.383 325.075 214.996 325.176 215.636 325.176C216.703 325.176 217.487 324.925 217.988 324.424C218.489 323.933 218.74 323.165 218.74 322.12V321.048C218.388 321.581 217.924 321.987 217.348 322.264C216.783 322.541 216.153 322.68 215.46 322.68C214.671 322.68 213.951 322.509 213.3 322.168C212.66 321.816 212.153 321.331 211.78 320.712C211.417 320.083 211.236 319.373 211.236 318.584C211.236 317.795 211.417 317.091 211.78 316.472C212.153 315.853 212.66 315.373 213.3 315.032C213.94 314.691 214.66 314.52 215.46 314.52C216.175 314.52 216.82 314.664 217.396 314.952C217.972 315.24 218.436 315.656 218.788 316.2V314.584H219.876ZM215.572 321.672C216.18 321.672 216.729 321.544 217.22 321.288C217.711 321.021 218.089 320.653 218.356 320.184C218.633 319.715 218.772 319.181 218.772 318.584C218.772 317.987 218.633 317.459 218.356 317C218.089 316.531 217.711 316.168 217.22 315.912C216.74 315.645 216.191 315.512 215.572 315.512C214.964 315.512 214.415 315.64 213.924 315.896C213.444 316.152 213.065 316.515 212.788 316.984C212.521 317.453 212.388 317.987 212.388 318.584C212.388 319.181 212.521 319.715 212.788 320.184C213.065 320.653 213.444 321.021 213.924 321.288C214.415 321.544 214.964 321.672 215.572 321.672ZM230.381 319.144H223.341C223.405 320.019 223.741 320.728 224.349 321.272C224.957 321.805 225.725 322.072 226.653 322.072C227.175 322.072 227.655 321.981 228.093 321.8C228.53 321.608 228.909 321.331 229.229 320.968L229.869 321.704C229.495 322.152 229.026 322.493 228.461 322.728C227.906 322.963 227.293 323.08 226.621 323.08C225.757 323.08 224.989 322.899 224.317 322.536C223.655 322.163 223.138 321.651 222.765 321C222.391 320.349 222.205 319.613 222.205 318.792C222.205 317.971 222.381 317.235 222.733 316.584C223.095 315.933 223.586 315.427 224.205 315.064C224.834 314.701 225.538 314.52 226.317 314.52C227.095 314.52 227.794 314.701 228.413 315.064C229.031 315.427 229.517 315.933 229.869 316.584C230.221 317.224 230.397 317.96 230.397 318.792L230.381 319.144ZM226.317 315.496C225.506 315.496 224.823 315.757 224.269 316.28C223.725 316.792 223.415 317.464 223.341 318.296H229.309C229.234 317.464 228.919 316.792 228.365 316.28C227.821 315.757 227.138 315.496 226.317 315.496ZM234.965 323.08C234.282 323.08 233.626 322.984 232.997 322.792C232.378 322.589 231.893 322.339 231.541 322.04L232.053 321.144C232.405 321.421 232.848 321.651 233.381 321.832C233.914 322.003 234.469 322.088 235.045 322.088C235.813 322.088 236.378 321.971 236.741 321.736C237.114 321.491 237.301 321.149 237.301 320.712C237.301 320.403 237.2 320.163 236.997 319.992C236.794 319.811 236.538 319.677 236.229 319.592C235.92 319.496 235.509 319.405 234.997 319.32C234.314 319.192 233.765 319.064 233.349 318.936C232.933 318.797 232.576 318.568 232.277 318.248C231.989 317.928 231.845 317.485 231.845 316.92C231.845 316.216 232.138 315.64 232.725 315.192C233.312 314.744 234.128 314.52 235.173 314.52C235.717 314.52 236.261 314.595 236.805 314.744C237.349 314.883 237.797 315.069 238.149 315.304L237.653 316.216C236.96 315.736 236.133 315.496 235.173 315.496C234.448 315.496 233.898 315.624 233.525 315.88C233.162 316.136 232.981 316.472 232.981 316.888C232.981 317.208 233.082 317.464 233.285 317.656C233.498 317.848 233.76 317.992 234.069 318.088C234.378 318.173 234.805 318.264 235.349 318.36C236.021 318.488 236.56 318.616 236.965 318.744C237.37 318.872 237.717 319.091 238.005 319.4C238.293 319.709 238.437 320.136 238.437 320.68C238.437 321.416 238.128 322.003 237.509 322.44C236.901 322.867 236.053 323.08 234.965 323.08ZM239.593 326.104C240.222 325.027 240.686 323.875 240.985 322.648C241.284 321.411 241.433 320.067 241.433 318.616C241.433 317.165 241.284 315.827 240.985 314.6C240.686 313.363 240.222 312.205 239.593 311.128H240.681C241.278 312.088 241.737 313.213 242.057 314.504C242.388 315.784 242.553 317.155 242.553 318.616C242.553 320.077 242.393 321.448 242.073 322.728C241.753 324.008 241.289 325.133 240.681 326.104H239.593ZM257.574 314.584V323H256.486V321.464C256.188 321.976 255.777 322.376 255.254 322.664C254.732 322.941 254.134 323.08 253.462 323.08C252.364 323.08 251.494 322.776 250.854 322.168C250.225 321.549 249.91 320.648 249.91 319.464V314.584H251.046V319.352C251.046 320.237 251.265 320.909 251.702 321.368C252.14 321.827 252.764 322.056 253.574 322.056C254.46 322.056 255.158 321.789 255.67 321.256C256.182 320.712 256.438 319.96 256.438 319V314.584H257.574ZM263.012 323.08C262.329 323.08 261.673 322.984 261.044 322.792C260.425 322.589 259.94 322.339 259.588 322.04L260.1 321.144C260.452 321.421 260.895 321.651 261.428 321.832C261.961 322.003 262.516 322.088 263.092 322.088C263.86 322.088 264.425 321.971 264.788 321.736C265.161 321.491 265.348 321.149 265.348 320.712C265.348 320.403 265.247 320.163 265.044 319.992C264.841 319.811 264.585 319.677 264.276 319.592C263.967 319.496 263.556 319.405 263.044 319.32C262.361 319.192 261.812 319.064 261.396 318.936C260.98 318.797 260.623 318.568 260.324 318.248C260.036 317.928 259.892 317.485 259.892 316.92C259.892 316.216 260.185 315.64 260.772 315.192C261.359 314.744 262.175 314.52 263.22 314.52C263.764 314.52 264.308 314.595 264.852 314.744C265.396 314.883 265.844 315.069 266.196 315.304L265.7 316.216C265.007 315.736 264.18 315.496 263.22 315.496C262.495 315.496 261.945 315.624 261.572 315.88C261.209 316.136 261.028 316.472 261.028 316.888C261.028 317.208 261.129 317.464 261.332 317.656C261.545 317.848 261.807 317.992 262.116 318.088C262.425 318.173 262.852 318.264 263.396 318.36C264.068 318.488 264.607 318.616 265.012 318.744C265.417 318.872 265.764 319.091 266.052 319.4C266.34 319.709 266.484 320.136 266.484 320.68C266.484 321.416 266.175 322.003 265.556 322.44C264.948 322.867 264.1 323.08 263.012 323.08ZM275.912 319.144H268.872C268.936 320.019 269.272 320.728 269.88 321.272C270.488 321.805 271.256 322.072 272.184 322.072C272.707 322.072 273.187 321.981 273.624 321.8C274.061 321.608 274.44 321.331 274.76 320.968L275.4 321.704C275.027 322.152 274.557 322.493 273.992 322.728C273.437 322.963 272.824 323.08 272.152 323.08C271.288 323.08 270.52 322.899 269.848 322.536C269.187 322.163 268.669 321.651 268.296 321C267.923 320.349 267.736 319.613 267.736 318.792C267.736 317.971 267.912 317.235 268.264 316.584C268.627 315.933 269.117 315.427 269.736 315.064C270.365 314.701 271.069 314.52 271.848 314.52C272.627 314.52 273.325 314.701 273.944 315.064C274.563 315.427 275.048 315.933 275.4 316.584C275.752 317.224 275.928 317.96 275.928 318.792L275.912 319.144ZM271.848 315.496C271.037 315.496 270.355 315.757 269.8 316.28C269.256 316.792 268.947 317.464 268.872 318.296H274.84C274.765 317.464 274.451 316.792 273.896 316.28C273.352 315.757 272.669 315.496 271.848 315.496ZM285.92 311.128V323H284.832V321.336C284.491 321.901 284.038 322.333 283.472 322.632C282.918 322.931 282.288 323.08 281.584 323.08C280.795 323.08 280.08 322.899 279.44 322.536C278.8 322.173 278.299 321.667 277.936 321.016C277.574 320.365 277.392 319.624 277.392 318.792C277.392 317.96 277.574 317.219 277.936 316.568C278.299 315.917 278.8 315.416 279.44 315.064C280.08 314.701 280.795 314.52 281.584 314.52C282.267 314.52 282.88 314.664 283.424 314.952C283.979 315.229 284.432 315.64 284.784 316.184V311.128H285.92ZM281.68 322.072C282.267 322.072 282.795 321.939 283.264 321.672C283.744 321.395 284.118 321.005 284.384 320.504C284.662 320.003 284.8 319.432 284.8 318.792C284.8 318.152 284.662 317.581 284.384 317.08C284.118 316.579 283.744 316.195 283.264 315.928C282.795 315.651 282.267 315.512 281.68 315.512C281.083 315.512 280.544 315.651 280.064 315.928C279.595 316.195 279.222 316.579 278.944 317.08C278.678 317.581 278.544 318.152 278.544 318.792C278.544 319.432 278.678 320.003 278.944 320.504C279.222 321.005 279.595 321.395 280.064 321.672C280.544 321.939 281.083 322.072 281.68 322.072ZM297.608 314.52C298.397 314.52 299.112 314.701 299.752 315.064C300.392 315.416 300.893 315.917 301.256 316.568C301.618 317.219 301.8 317.96 301.8 318.792C301.8 319.624 301.618 320.365 301.256 321.016C300.893 321.667 300.392 322.173 299.752 322.536C299.112 322.899 298.397 323.08 297.608 323.08C296.904 323.08 296.269 322.931 295.704 322.632C295.149 322.333 294.701 321.901 294.36 321.336V323H293.272V311.128H294.408V316.184C294.76 315.64 295.208 315.229 295.752 314.952C296.306 314.664 296.925 314.52 297.608 314.52ZM297.528 322.072C298.114 322.072 298.648 321.939 299.128 321.672C299.608 321.395 299.981 321.005 300.248 320.504C300.525 320.003 300.664 319.432 300.664 318.792C300.664 318.152 300.525 317.581 300.248 317.08C299.981 316.579 299.608 316.195 299.128 315.928C298.648 315.651 298.114 315.512 297.528 315.512C296.93 315.512 296.392 315.651 295.911 315.928C295.442 316.195 295.069 316.579 294.792 317.08C294.525 317.581 294.392 318.152 294.392 318.792C294.392 319.432 294.525 320.003 294.792 320.504C295.069 321.005 295.442 321.395 295.911 321.672C296.392 321.939 296.93 322.072 297.528 322.072ZM310.953 314.584L306.745 324.008C306.404 324.797 306.009 325.357 305.561 325.688C305.113 326.019 304.574 326.184 303.945 326.184C303.54 326.184 303.161 326.12 302.809 325.992C302.457 325.864 302.153 325.672 301.897 325.416L302.425 324.568C302.852 324.995 303.364 325.208 303.961 325.208C304.345 325.208 304.67 325.101 304.937 324.888C305.214 324.675 305.47 324.312 305.705 323.8L306.073 322.984L302.313 314.584H303.497L306.665 321.736L309.833 314.584H310.953ZM118.975 337.128V349H117.887V347.336C117.546 347.901 117.092 348.333 116.527 348.632C115.972 348.931 115.343 349.08 114.639 349.08C113.85 349.08 113.135 348.899 112.495 348.536C111.855 348.173 111.354 347.667 110.991 347.016C110.628 346.365 110.447 345.624 110.447 344.792C110.447 343.96 110.628 343.219 110.991 342.568C111.354 341.917 111.855 341.416 112.495 341.064C113.135 340.701 113.85 340.52 114.639 340.52C115.322 340.52 115.935 340.664 116.479 340.952C117.034 341.229 117.487 341.64 117.839 342.184V337.128H118.975ZM114.735 348.072C115.322 348.072 115.85 347.939 116.319 347.672C116.799 347.395 117.172 347.005 117.439 346.504C117.716 346.003 117.855 345.432 117.855 344.792C117.855 344.152 117.716 343.581 117.439 343.08C117.172 342.579 116.799 342.195 116.319 341.928C115.85 341.651 115.322 341.512 114.735 341.512C114.138 341.512 113.599 341.651 113.119 341.928C112.65 342.195 112.276 342.579 111.999 343.08C111.732 343.581 111.599 344.152 111.599 344.792C111.599 345.432 111.732 346.003 111.999 346.504C112.276 347.005 112.65 347.395 113.119 347.672C113.599 347.939 114.138 348.072 114.735 348.072ZM129.467 345.144H122.427C122.491 346.019 122.827 346.728 123.435 347.272C124.043 347.805 124.811 348.072 125.739 348.072C126.261 348.072 126.741 347.981 127.179 347.8C127.616 347.608 127.995 347.331 128.315 346.968L128.955 347.704C128.581 348.152 128.112 348.493 127.547 348.728C126.992 348.963 126.379 349.08 125.707 349.08C124.843 349.08 124.075 348.899 123.403 348.536C122.741 348.163 122.224 347.651 121.851 347C121.477 346.349 121.291 345.613 121.291 344.792C121.291 343.971 121.467 343.235 121.819 342.584C122.181 341.933 122.672 341.427 123.291 341.064C123.92 340.701 124.624 340.52 125.403 340.52C126.181 340.52 126.88 340.701 127.499 341.064C128.117 341.427 128.603 341.933 128.955 342.584C129.307 343.224 129.483 343.96 129.483 344.792L129.467 345.144ZM125.403 341.496C124.592 341.496 123.909 341.757 123.355 342.28C122.811 342.792 122.501 343.464 122.427 344.296H128.395C128.32 343.464 128.005 342.792 127.451 342.28C126.907 341.757 126.224 341.496 125.403 341.496ZM138.711 340.584L134.967 349H133.799L130.071 340.584H131.255L134.407 347.752L137.591 340.584H138.711ZM142.473 349.08C141.79 349.08 141.134 348.984 140.505 348.792C139.886 348.589 139.401 348.339 139.049 348.04L139.561 347.144C139.913 347.421 140.355 347.651 140.889 347.832C141.422 348.003 141.977 348.088 142.553 348.088C143.321 348.088 143.886 347.971 144.249 347.736C144.622 347.491 144.809 347.149 144.809 346.712C144.809 346.403 144.707 346.163 144.505 345.992C144.302 345.811 144.046 345.677 143.737 345.592C143.427 345.496 143.017 345.405 142.505 345.32C141.822 345.192 141.273 345.064 140.857 344.936C140.441 344.797 140.083 344.568 139.785 344.248C139.497 343.928 139.353 343.485 139.353 342.92C139.353 342.216 139.646 341.64 140.233 341.192C140.819 340.744 141.635 340.52 142.681 340.52C143.225 340.52 143.769 340.595 144.313 340.744C144.857 340.883 145.305 341.069 145.657 341.304L145.161 342.216C144.467 341.736 143.641 341.496 142.681 341.496C141.955 341.496 141.406 341.624 141.033 341.88C140.67 342.136 140.489 342.472 140.489 342.888C140.489 343.208 140.59 343.464 140.793 343.656C141.006 343.848 141.267 343.992 141.577 344.088C141.886 344.173 142.313 344.264 142.857 344.36C143.529 344.488 144.067 344.616 144.473 344.744C144.878 344.872 145.225 345.091 145.513 345.4C145.801 345.709 145.945 346.136 145.945 346.68C145.945 347.416 145.635 348.003 145.017 348.44C144.409 348.867 143.561 349.08 142.473 349.08ZM152.232 340.584H153.368V349H152.232V340.584ZM152.808 338.744C152.574 338.744 152.376 338.664 152.216 338.504C152.056 338.344 151.976 338.152 151.976 337.928C151.976 337.715 152.056 337.528 152.216 337.368C152.376 337.208 152.574 337.128 152.808 337.128C153.043 337.128 153.24 337.208 153.4 337.368C153.56 337.517 153.64 337.699 153.64 337.912C153.64 338.147 153.56 338.344 153.4 338.504C153.24 338.664 153.043 338.744 152.808 338.744ZM160.817 340.52C161.873 340.52 162.711 340.829 163.329 341.448C163.959 342.056 164.273 342.947 164.273 344.12V349H163.137V344.232C163.137 343.357 162.919 342.691 162.481 342.232C162.044 341.773 161.42 341.544 160.609 341.544C159.703 341.544 158.983 341.816 158.449 342.36C157.927 342.893 157.665 343.635 157.665 344.584V349H156.529V340.584H157.617V342.136C157.927 341.624 158.353 341.229 158.897 340.952C159.452 340.664 160.092 340.52 160.817 340.52ZM208.455 349.08C207.623 349.08 206.876 348.899 206.215 348.536C205.564 348.173 205.052 347.667 204.679 347.016C204.305 346.355 204.119 345.613 204.119 344.792C204.119 343.971 204.305 343.235 204.679 342.584C205.052 341.933 205.564 341.427 206.215 341.064C206.876 340.701 207.623 340.52 208.455 340.52C209.18 340.52 209.825 340.664 210.391 340.952C210.967 341.229 211.42 341.64 211.751 342.184L210.903 342.76C210.625 342.344 210.273 342.035 209.847 341.832C209.42 341.619 208.956 341.512 208.455 341.512C207.847 341.512 207.297 341.651 206.807 341.928C206.327 342.195 205.948 342.579 205.671 343.08C205.404 343.581 205.271 344.152 205.271 344.792C205.271 345.443 205.404 346.019 205.671 346.52C205.948 347.011 206.327 347.395 206.807 347.672C207.297 347.939 207.847 348.072 208.455 348.072C208.956 348.072 209.42 347.971 209.847 347.768C210.273 347.565 210.625 347.256 210.903 346.84L211.751 347.416C211.42 347.96 210.967 348.376 210.391 348.664C209.815 348.941 209.169 349.08 208.455 349.08ZM217.282 349.08C216.471 349.08 215.74 348.899 215.09 348.536C214.439 348.163 213.927 347.651 213.554 347C213.18 346.349 212.994 345.613 212.994 344.792C212.994 343.971 213.18 343.235 213.554 342.584C213.927 341.933 214.439 341.427 215.09 341.064C215.74 340.701 216.471 340.52 217.282 340.52C218.092 340.52 218.823 340.701 219.474 341.064C220.124 341.427 220.631 341.933 220.994 342.584C221.367 343.235 221.554 343.971 221.554 344.792C221.554 345.613 221.367 346.349 220.994 347C220.631 347.651 220.124 348.163 219.474 348.536C218.823 348.899 218.092 349.08 217.282 349.08ZM217.282 348.072C217.879 348.072 218.412 347.939 218.882 347.672C219.362 347.395 219.735 347.005 220.002 346.504C220.268 346.003 220.402 345.432 220.402 344.792C220.402 344.152 220.268 343.581 220.002 343.08C219.735 342.579 219.362 342.195 218.882 341.928C218.412 341.651 217.879 341.512 217.282 341.512C216.684 341.512 216.146 341.651 215.666 341.928C215.196 342.195 214.823 342.579 214.546 343.08C214.279 343.581 214.146 344.152 214.146 344.792C214.146 345.432 214.279 346.003 214.546 346.504C214.823 347.005 215.196 347.395 215.666 347.672C216.146 347.939 216.684 348.072 217.282 348.072ZM234.369 340.52C235.425 340.52 236.252 340.824 236.849 341.432C237.457 342.04 237.761 342.936 237.761 344.12V349H236.625V344.232C236.625 343.357 236.412 342.691 235.985 342.232C235.569 341.773 234.977 341.544 234.209 341.544C233.334 341.544 232.646 341.816 232.145 342.36C231.644 342.893 231.393 343.635 231.393 344.584V349H230.257V344.232C230.257 343.357 230.044 342.691 229.617 342.232C229.201 341.773 228.604 341.544 227.825 341.544C226.961 341.544 226.273 341.816 225.761 342.36C225.26 342.893 225.009 343.635 225.009 344.584V349H223.873V340.584H224.961V342.12C225.26 341.608 225.676 341.213 226.209 340.936C226.742 340.659 227.356 340.52 228.049 340.52C228.753 340.52 229.361 340.669 229.873 340.968C230.396 341.267 230.785 341.709 231.041 342.296C231.35 341.741 231.793 341.309 232.369 341C232.956 340.68 233.622 340.52 234.369 340.52ZM251.338 340.52C252.394 340.52 253.22 340.824 253.818 341.432C254.426 342.04 254.73 342.936 254.73 344.12V349H253.594V344.232C253.594 343.357 253.38 342.691 252.954 342.232C252.538 341.773 251.946 341.544 251.178 341.544C250.303 341.544 249.615 341.816 249.114 342.36C248.612 342.893 248.362 343.635 248.362 344.584V349H247.226V344.232C247.226 343.357 247.012 342.691 246.586 342.232C246.17 341.773 245.572 341.544 244.794 341.544C243.93 341.544 243.242 341.816 242.73 342.36C242.228 342.893 241.978 343.635 241.978 344.584V349H240.842V340.584H241.93V342.12C242.228 341.608 242.644 341.213 243.178 340.936C243.711 340.659 244.324 340.52 245.018 340.52C245.722 340.52 246.33 340.669 246.842 340.968C247.364 341.267 247.754 341.709 248.01 342.296C248.319 341.741 248.762 341.309 249.338 341C249.924 340.68 250.591 340.52 251.338 340.52ZM265.17 345.144H258.13C258.194 346.019 258.53 346.728 259.138 347.272C259.746 347.805 260.514 348.072 261.442 348.072C261.964 348.072 262.444 347.981 262.882 347.8C263.319 347.608 263.698 347.331 264.018 346.968L264.658 347.704C264.284 348.152 263.815 348.493 263.25 348.728C262.695 348.963 262.082 349.08 261.41 349.08C260.546 349.08 259.778 348.899 259.106 348.536C258.444 348.163 257.927 347.651 257.554 347C257.18 346.349 256.994 345.613 256.994 344.792C256.994 343.971 257.17 343.235 257.522 342.584C257.884 341.933 258.375 341.427 258.994 341.064C259.623 340.701 260.327 340.52 261.106 340.52C261.884 340.52 262.583 340.701 263.202 341.064C263.82 341.427 264.306 341.933 264.658 342.584C265.01 343.224 265.186 343.96 265.186 344.792L265.17 345.144ZM261.106 341.496C260.295 341.496 259.612 341.757 259.058 342.28C258.514 342.792 258.204 343.464 258.13 344.296H264.098C264.023 343.464 263.708 342.792 263.154 342.28C262.61 341.757 261.927 341.496 261.106 341.496ZM268.586 342.232C268.853 341.667 269.247 341.24 269.77 340.952C270.303 340.664 270.959 340.52 271.738 340.52V341.624L271.466 341.608C270.581 341.608 269.887 341.88 269.386 342.424C268.885 342.968 268.634 343.731 268.634 344.712V349H267.498V340.584H268.586V342.232ZM277.205 349.08C276.373 349.08 275.626 348.899 274.965 348.536C274.314 348.173 273.802 347.667 273.429 347.016C273.055 346.355 272.869 345.613 272.869 344.792C272.869 343.971 273.055 343.235 273.429 342.584C273.802 341.933 274.314 341.427 274.965 341.064C275.626 340.701 276.373 340.52 277.205 340.52C277.93 340.52 278.575 340.664 279.141 340.952C279.717 341.229 280.17 341.64 280.501 342.184L279.653 342.76C279.375 342.344 279.023 342.035 278.597 341.832C278.17 341.619 277.706 341.512 277.205 341.512C276.597 341.512 276.047 341.651 275.557 341.928C275.077 342.195 274.698 342.579 274.421 343.08C274.154 343.581 274.021 344.152 274.021 344.792C274.021 345.443 274.154 346.019 274.421 346.52C274.698 347.011 275.077 347.395 275.557 347.672C276.047 347.939 276.597 348.072 277.205 348.072C277.706 348.072 278.17 347.971 278.597 347.768C279.023 347.565 279.375 347.256 279.653 346.84L280.501 347.416C280.17 347.96 279.717 348.376 279.141 348.664C278.565 348.941 277.919 349.08 277.205 349.08ZM282.732 340.584H283.868V349H282.732V340.584ZM283.308 338.744C283.074 338.744 282.876 338.664 282.716 338.504C282.556 338.344 282.476 338.152 282.476 337.928C282.476 337.715 282.556 337.528 282.716 337.368C282.876 337.208 283.074 337.128 283.308 337.128C283.543 337.128 283.74 337.208 283.9 337.368C284.06 337.517 284.14 337.699 284.14 337.912C284.14 338.147 284.06 338.344 283.9 338.504C283.74 338.664 283.543 338.744 283.308 338.744ZM289.973 340.52C291.072 340.52 291.915 340.797 292.501 341.352C293.088 341.896 293.381 342.707 293.381 343.784V349H292.293V347.688C292.037 348.125 291.659 348.467 291.157 348.712C290.667 348.957 290.08 349.08 289.397 349.08C288.459 349.08 287.712 348.856 287.157 348.408C286.603 347.96 286.325 347.368 286.325 346.632C286.325 345.917 286.581 345.341 287.093 344.904C287.616 344.467 288.443 344.248 289.573 344.248H292.245V343.736C292.245 343.011 292.043 342.461 291.637 342.088C291.232 341.704 290.64 341.512 289.861 341.512C289.328 341.512 288.816 341.603 288.325 341.784C287.835 341.955 287.413 342.195 287.061 342.504L286.549 341.656C286.976 341.293 287.488 341.016 288.085 340.824C288.683 340.621 289.312 340.52 289.973 340.52ZM289.573 348.184C290.213 348.184 290.763 348.04 291.221 347.752C291.68 347.453 292.021 347.027 292.245 346.472V345.096H289.605C288.165 345.096 287.445 345.597 287.445 346.6C287.445 347.091 287.632 347.48 288.005 347.768C288.379 348.045 288.901 348.184 289.573 348.184ZM296.467 337.128H297.603V349H296.467V337.128ZM107.959 366.52C108.748 366.52 109.463 366.701 110.103 367.064C110.743 367.416 111.244 367.917 111.607 368.568C111.97 369.219 112.151 369.96 112.151 370.792C112.151 371.635 111.97 372.381 111.607 373.032C111.244 373.683 110.743 374.189 110.103 374.552C109.474 374.904 108.759 375.08 107.959 375.08C107.276 375.08 106.658 374.941 106.103 374.664C105.559 374.376 105.111 373.96 104.759 373.416V378.104H103.623V366.584H104.711V368.248C105.052 367.693 105.5 367.267 106.055 366.968C106.62 366.669 107.255 366.52 107.959 366.52ZM107.879 374.072C108.466 374.072 108.999 373.939 109.479 373.672C109.959 373.395 110.332 373.005 110.599 372.504C110.876 372.003 111.015 371.432 111.015 370.792C111.015 370.152 110.876 369.587 110.599 369.096C110.332 368.595 109.959 368.205 109.479 367.928C108.999 367.651 108.466 367.512 107.879 367.512C107.282 367.512 106.743 367.651 106.263 367.928C105.794 368.205 105.42 368.595 105.143 369.096C104.876 369.587 104.743 370.152 104.743 370.792C104.743 371.432 104.876 372.003 105.143 372.504C105.42 373.005 105.794 373.395 106.263 373.672C106.743 373.939 107.282 374.072 107.879 374.072ZM115.555 368.232C115.821 367.667 116.216 367.24 116.739 366.952C117.272 366.664 117.928 366.52 118.707 366.52V367.624L118.435 367.608C117.549 367.608 116.856 367.88 116.355 368.424C115.853 368.968 115.603 369.731 115.603 370.712V375H114.467V366.584H115.555V368.232ZM124.126 375.08C123.315 375.08 122.584 374.899 121.934 374.536C121.283 374.163 120.771 373.651 120.398 373C120.024 372.349 119.838 371.613 119.838 370.792C119.838 369.971 120.024 369.235 120.398 368.584C120.771 367.933 121.283 367.427 121.934 367.064C122.584 366.701 123.315 366.52 124.126 366.52C124.936 366.52 125.667 366.701 126.318 367.064C126.968 367.427 127.475 367.933 127.838 368.584C128.211 369.235 128.398 369.971 128.398 370.792C128.398 371.613 128.211 372.349 127.838 373C127.475 373.651 126.968 374.163 126.318 374.536C125.667 374.899 124.936 375.08 124.126 375.08ZM124.126 374.072C124.723 374.072 125.256 373.939 125.726 373.672C126.206 373.395 126.579 373.005 126.846 372.504C127.112 372.003 127.246 371.432 127.246 370.792C127.246 370.152 127.112 369.581 126.846 369.08C126.579 368.579 126.206 368.195 125.726 367.928C125.256 367.651 124.723 367.512 124.126 367.512C123.528 367.512 122.99 367.651 122.51 367.928C122.04 368.195 121.667 368.579 121.39 369.08C121.123 369.581 120.99 370.152 120.99 370.792C120.99 371.432 121.123 372.003 121.39 372.504C121.667 373.005 122.04 373.395 122.51 373.672C122.99 373.939 123.528 374.072 124.126 374.072ZM129.469 378.184C129.117 378.184 128.786 378.136 128.477 378.04C128.157 377.955 127.895 377.821 127.693 377.64L128.093 376.776C128.423 377.064 128.861 377.208 129.405 377.208C129.853 377.208 130.194 377.075 130.429 376.808C130.674 376.541 130.797 376.147 130.797 375.624V366.584H131.933V375.624C131.933 376.413 131.719 377.037 131.293 377.496C130.866 377.955 130.258 378.184 129.469 378.184ZM131.373 364.728C131.138 364.728 130.941 364.648 130.781 364.488C130.621 364.328 130.541 364.136 130.541 363.912C130.541 363.699 130.621 363.512 130.781 363.352C130.941 363.192 131.138 363.112 131.373 363.112C131.607 363.112 131.805 363.192 131.965 363.352C132.125 363.501 132.205 363.683 132.205 363.896C132.205 364.131 132.125 364.328 131.965 364.488C131.805 364.648 131.607 364.728 131.373 364.728ZM142.435 371.144H135.395C135.459 372.019 135.795 372.728 136.403 373.272C137.011 373.805 137.779 374.072 138.707 374.072C139.23 374.072 139.71 373.981 140.147 373.8C140.585 373.608 140.963 373.331 141.283 372.968L141.923 373.704C141.55 374.152 141.081 374.493 140.515 374.728C139.961 374.963 139.347 375.08 138.675 375.08C137.811 375.08 137.043 374.899 136.371 374.536C135.71 374.163 135.193 373.651 134.819 373C134.446 372.349 134.259 371.613 134.259 370.792C134.259 369.971 134.435 369.235 134.787 368.584C135.15 367.933 135.641 367.427 136.259 367.064C136.889 366.701 137.593 366.52 138.371 366.52C139.15 366.52 139.849 366.701 140.467 367.064C141.086 367.427 141.571 367.933 141.923 368.584C142.275 369.224 142.451 369.96 142.451 370.792L142.435 371.144ZM138.371 367.496C137.561 367.496 136.878 367.757 136.323 368.28C135.779 368.792 135.47 369.464 135.395 370.296H141.363C141.289 369.464 140.974 368.792 140.419 368.28C139.875 367.757 139.193 367.496 138.371 367.496ZM148.252 375.08C147.42 375.08 146.673 374.899 146.012 374.536C145.361 374.173 144.849 373.667 144.476 373.016C144.102 372.355 143.916 371.613 143.916 370.792C143.916 369.971 144.102 369.235 144.476 368.584C144.849 367.933 145.361 367.427 146.012 367.064C146.673 366.701 147.42 366.52 148.252 366.52C148.977 366.52 149.622 366.664 150.188 366.952C150.764 367.229 151.217 367.64 151.548 368.184L150.7 368.76C150.422 368.344 150.07 368.035 149.644 367.832C149.217 367.619 148.753 367.512 148.252 367.512C147.644 367.512 147.094 367.651 146.604 367.928C146.124 368.195 145.745 368.579 145.468 369.08C145.201 369.581 145.068 370.152 145.068 370.792C145.068 371.443 145.201 372.019 145.468 372.52C145.745 373.011 146.124 373.395 146.604 373.672C147.094 373.939 147.644 374.072 148.252 374.072C148.753 374.072 149.217 373.971 149.644 373.768C150.07 373.565 150.422 373.256 150.7 372.84L151.548 373.416C151.217 373.96 150.764 374.376 150.188 374.664C149.612 374.941 148.966 375.08 148.252 375.08ZM158.305 374.488C158.092 374.68 157.825 374.829 157.505 374.936C157.196 375.032 156.87 375.08 156.529 375.08C155.74 375.08 155.132 374.867 154.705 374.44C154.278 374.013 154.065 373.411 154.065 372.632V367.544H152.561V366.584H154.065V364.744H155.201V366.584H157.761V367.544H155.201V372.568C155.201 373.069 155.324 373.453 155.569 373.72C155.825 373.976 156.188 374.104 156.657 374.104C156.892 374.104 157.116 374.067 157.329 373.992C157.553 373.917 157.745 373.811 157.905 373.672L158.305 374.488ZM162.629 375.08C161.946 375.08 161.29 374.984 160.661 374.792C160.042 374.589 159.557 374.339 159.205 374.04L159.717 373.144C160.069 373.421 160.512 373.651 161.045 373.832C161.578 374.003 162.133 374.088 162.709 374.088C163.477 374.088 164.042 373.971 164.405 373.736C164.778 373.491 164.965 373.149 164.965 372.712C164.965 372.403 164.864 372.163 164.661 371.992C164.458 371.811 164.202 371.677 163.893 371.592C163.584 371.496 163.173 371.405 162.661 371.32C161.978 371.192 161.429 371.064 161.013 370.936C160.597 370.797 160.24 370.568 159.941 370.248C159.653 369.928 159.509 369.485 159.509 368.92C159.509 368.216 159.802 367.64 160.389 367.192C160.976 366.744 161.792 366.52 162.837 366.52C163.381 366.52 163.925 366.595 164.469 366.744C165.013 366.883 165.461 367.069 165.813 367.304L165.317 368.216C164.624 367.736 163.797 367.496 162.837 367.496C162.112 367.496 161.562 367.624 161.189 367.88C160.826 368.136 160.645 368.472 160.645 368.888C160.645 369.208 160.746 369.464 160.949 369.656C161.162 369.848 161.424 369.992 161.733 370.088C162.042 370.173 162.469 370.264 163.013 370.36C163.685 370.488 164.224 370.616 164.629 370.744C165.034 370.872 165.381 371.091 165.669 371.4C165.957 371.709 166.101 372.136 166.101 372.68C166.101 373.416 165.792 374.003 165.173 374.44C164.565 374.867 163.717 375.08 162.629 375.08ZM184.741 366.584L181.557 375H180.485L177.829 368.104L175.173 375H174.101L170.933 366.584H172.021L174.661 373.736L177.365 366.584H178.341L181.029 373.736L183.701 366.584H184.741ZM189.657 375.08C188.846 375.08 188.115 374.899 187.465 374.536C186.814 374.163 186.302 373.651 185.929 373C185.555 372.349 185.369 371.613 185.369 370.792C185.369 369.971 185.555 369.235 185.929 368.584C186.302 367.933 186.814 367.427 187.465 367.064C188.115 366.701 188.846 366.52 189.657 366.52C190.467 366.52 191.198 366.701 191.849 367.064C192.499 367.427 193.006 367.933 193.369 368.584C193.742 369.235 193.929 369.971 193.929 370.792C193.929 371.613 193.742 372.349 193.369 373C193.006 373.651 192.499 374.163 191.849 374.536C191.198 374.899 190.467 375.08 189.657 375.08ZM189.657 374.072C190.254 374.072 190.787 373.939 191.257 373.672C191.737 373.395 192.11 373.005 192.377 372.504C192.643 372.003 192.777 371.432 192.777 370.792C192.777 370.152 192.643 369.581 192.377 369.08C192.11 368.579 191.737 368.195 191.257 367.928C190.787 367.651 190.254 367.512 189.657 367.512C189.059 367.512 188.521 367.651 188.041 367.928C187.571 368.195 187.198 368.579 186.921 369.08C186.654 369.581 186.521 370.152 186.521 370.792C186.521 371.432 186.654 372.003 186.921 372.504C187.198 373.005 187.571 373.395 188.041 373.672C188.521 373.939 189.059 374.072 189.657 374.072ZM197.336 368.232C197.603 367.667 197.997 367.24 198.52 366.952C199.053 366.664 199.709 366.52 200.488 366.52V367.624L200.216 367.608C199.331 367.608 198.637 367.88 198.136 368.424C197.635 368.968 197.384 369.731 197.384 370.712V375H196.248V366.584H197.336V368.232ZM202.545 363.128H203.681V375H202.545V363.128ZM214.522 363.128V375H213.434V373.336C213.092 373.901 212.639 374.333 212.074 374.632C211.519 374.931 210.89 375.08 210.186 375.08C209.396 375.08 208.682 374.899 208.042 374.536C207.402 374.173 206.9 373.667 206.538 373.016C206.175 372.365 205.994 371.624 205.994 370.792C205.994 369.96 206.175 369.219 206.538 368.568C206.9 367.917 207.402 367.416 208.042 367.064C208.682 366.701 209.396 366.52 210.186 366.52C210.868 366.52 211.482 366.664 212.026 366.952C212.58 367.229 213.034 367.64 213.386 368.184V363.128H214.522ZM210.282 374.072C210.868 374.072 211.396 373.939 211.866 373.672C212.346 373.395 212.719 373.005 212.986 372.504C213.263 372.003 213.402 371.432 213.402 370.792C213.402 370.152 213.263 369.581 212.986 369.08C212.719 368.579 212.346 368.195 211.866 367.928C211.396 367.651 210.868 367.512 210.282 367.512C209.684 367.512 209.146 367.651 208.666 367.928C208.196 368.195 207.823 368.579 207.546 369.08C207.279 369.581 207.146 370.152 207.146 370.792C207.146 371.432 207.279 372.003 207.546 372.504C207.823 373.005 208.196 373.395 208.666 373.672C209.146 373.939 209.684 374.072 210.282 374.072ZM230.038 366.584L226.854 375H225.782L223.126 368.104L220.47 375H219.398L216.23 366.584H217.318L219.958 373.736L222.662 366.584H223.638L226.326 373.736L228.998 366.584H230.038ZM231.748 366.584H232.884V375H231.748V366.584ZM232.324 364.744C232.089 364.744 231.892 364.664 231.732 364.504C231.572 364.344 231.492 364.152 231.492 363.928C231.492 363.715 231.572 363.528 231.732 363.368C231.892 363.208 232.089 363.128 232.324 363.128C232.559 363.128 232.756 363.208 232.916 363.368C233.076 363.517 233.156 363.699 233.156 363.912C233.156 364.147 233.076 364.344 232.916 364.504C232.756 364.664 232.559 364.744 232.324 364.744ZM243.725 363.128V375H242.637V373.336C242.296 373.901 241.842 374.333 241.277 374.632C240.722 374.931 240.093 375.08 239.389 375.08C238.6 375.08 237.885 374.899 237.245 374.536C236.605 374.173 236.104 373.667 235.741 373.016C235.378 372.365 235.197 371.624 235.197 370.792C235.197 369.96 235.378 369.219 235.741 368.568C236.104 367.917 236.605 367.416 237.245 367.064C237.885 366.701 238.6 366.52 239.389 366.52C240.072 366.52 240.685 366.664 241.229 366.952C241.784 367.229 242.237 367.64 242.589 368.184V363.128H243.725ZM239.485 374.072C240.072 374.072 240.6 373.939 241.069 373.672C241.549 373.395 241.922 373.005 242.189 372.504C242.466 372.003 242.605 371.432 242.605 370.792C242.605 370.152 242.466 369.581 242.189 369.08C241.922 368.579 241.549 368.195 241.069 367.928C240.6 367.651 240.072 367.512 239.485 367.512C238.888 367.512 238.349 367.651 237.869 367.928C237.4 368.195 237.026 368.579 236.749 369.08C236.482 369.581 236.349 370.152 236.349 370.792C236.349 371.432 236.482 372.003 236.749 372.504C237.026 373.005 237.4 373.395 237.869 373.672C238.349 373.939 238.888 374.072 239.485 374.072ZM254.217 371.144H247.177C247.241 372.019 247.577 372.728 248.185 373.272C248.793 373.805 249.561 374.072 250.489 374.072C251.011 374.072 251.491 373.981 251.929 373.8C252.366 373.608 252.745 373.331 253.065 372.968L253.705 373.704C253.331 374.152 252.862 374.493 252.297 374.728C251.742 374.963 251.129 375.08 250.457 375.08C249.593 375.08 248.825 374.899 248.153 374.536C247.491 374.163 246.974 373.651 246.601 373C246.227 372.349 246.041 371.613 246.041 370.792C246.041 369.971 246.217 369.235 246.569 368.584C246.931 367.933 247.422 367.427 248.041 367.064C248.67 366.701 249.374 366.52 250.153 366.52C250.931 366.52 251.63 366.701 252.249 367.064C252.867 367.427 253.353 367.933 253.705 368.584C254.057 369.224 254.233 369.96 254.233 370.792L254.217 371.144ZM250.153 367.496C249.342 367.496 248.659 367.757 248.105 368.28C247.561 368.792 247.251 369.464 247.177 370.296H253.145C253.07 369.464 252.755 368.792 252.201 368.28C251.657 367.757 250.974 367.496 250.153 367.496Z" fill="#242424"/>
<path d="M62.7643 337.8V349H60.1723V339.88H57.9323V337.8H62.7643ZM69.5099 349.192C68.5819 349.192 67.7553 348.963 67.0299 348.504C66.3046 348.045 65.7339 347.384 65.3179 346.52C64.9126 345.645 64.7099 344.605 64.7099 343.4C64.7099 342.195 64.9126 341.16 65.3179 340.296C65.7339 339.421 66.3046 338.755 67.0299 338.296C67.7553 337.837 68.5819 337.608 69.5099 337.608C70.4379 337.608 71.2646 337.837 71.9899 338.296C72.7153 338.755 73.2806 339.421 73.6859 340.296C74.1019 341.16 74.3099 342.195 74.3099 343.4C74.3099 344.605 74.1019 345.645 73.6859 346.52C73.2806 347.384 72.7153 348.045 71.9899 348.504C71.2646 348.963 70.4379 349.192 69.5099 349.192ZM69.5099 347C70.1926 347 70.7259 346.707 71.1099 346.12C71.5046 345.533 71.7019 344.627 71.7019 343.4C71.7019 342.173 71.5046 341.267 71.1099 340.68C70.7259 340.093 70.1926 339.8 69.5099 339.8C68.8379 339.8 68.3046 340.093 67.9099 340.68C67.5259 341.267 67.3339 342.173 67.3339 343.4C67.3339 344.627 67.5259 345.533 67.9099 346.12C68.3046 346.707 68.8379 347 69.5099 347ZM80.3693 349.192C79.4413 349.192 78.6146 348.963 77.8893 348.504C77.164 348.045 76.5933 347.384 76.1773 346.52C75.772 345.645 75.5693 344.605 75.5693 343.4C75.5693 342.195 75.772 341.16 76.1773 340.296C76.5933 339.421 77.164 338.755 77.8893 338.296C78.6146 337.837 79.4413 337.608 80.3693 337.608C81.2973 337.608 82.124 337.837 82.8493 338.296C83.5746 338.755 84.14 339.421 84.5453 340.296C84.9613 341.16 85.1693 342.195 85.1693 343.4C85.1693 344.605 84.9613 345.645 84.5453 346.52C84.14 347.384 83.5746 348.045 82.8493 348.504C82.124 348.963 81.2973 349.192 80.3693 349.192ZM80.3693 347C81.052 347 81.5853 346.707 81.9693 346.12C82.364 345.533 82.5613 344.627 82.5613 343.4C82.5613 342.173 82.364 341.267 81.9693 340.68C81.5853 340.093 81.052 339.8 80.3693 339.8C79.6973 339.8 79.164 340.093 78.7693 340.68C78.3853 341.267 78.1933 342.173 78.1933 343.4C78.1933 344.627 78.3853 345.533 78.7693 346.12C79.164 346.707 79.6973 347 80.3693 347ZM90.6527 345.624L89.4527 346.808V349H86.9567V337.128H89.4527V343.848L93.1007 340.392H96.0767L92.4927 344.04L96.3967 349H93.3727L90.6527 345.624ZM104.553 344.376H101.769V347.096H99.7053V344.376H96.9373V342.424H99.7053V339.704H101.769V342.424H104.553V344.376ZM174.425 342.008C176.004 342.008 177.166 342.323 177.913 342.952C178.67 343.581 179.049 344.424 179.049 345.48C179.049 346.163 178.878 346.787 178.537 347.352C178.196 347.907 177.673 348.355 176.969 348.696C176.276 349.027 175.417 349.192 174.393 349.192C173.604 349.192 172.825 349.091 172.057 348.888C171.3 348.675 170.654 348.376 170.121 347.992L171.145 346.008C171.572 346.328 172.062 346.579 172.617 346.76C173.172 346.931 173.742 347.016 174.329 347.016C174.98 347.016 175.492 346.888 175.865 346.632C176.238 346.376 176.425 346.019 176.425 345.56C176.425 345.08 176.228 344.717 175.833 344.472C175.449 344.227 174.777 344.104 173.817 344.104H170.953L171.529 337.8H178.361V339.88H173.689L173.513 342.008H174.425ZM184.325 345.624L183.125 346.808V349H180.629V337.128H183.125V343.848L186.773 340.392H189.749L186.165 344.04L190.069 349H187.045L184.325 345.624ZM198.225 344.376H195.441V347.096H193.377V344.376H190.609V342.424H193.377V339.704H195.441V342.424H198.225V344.376Z" fill="#276ED8"/>
<g opacity="0.2">
<path d="M127.107 145.253L112.296 136.361C112.146 136.271 111.965 136.257 111.811 136.324C111.656 136.391 111.553 136.529 111.534 136.691L110.405 145.988L96.4545 137.612C96.305 137.522 96.1239 137.508 95.9693 137.575C95.8168 137.643 95.7115 137.781 95.6928 137.942L93.0109 160.053C92.9884 160.23 92.996 160.263 93.1498 160.374C93.3036 160.486 93.4294 160.361 93.5955 160.287L109.308 153.466L117.371 149.966L126.927 145.816C127.096 145.743 127.279 145.734 127.285 145.554C127.292 145.375 127.27 145.351 127.107 145.253Z" fill="#84B5FF"/>
<path d="M114.405 124.683C115.703 127.217 114.673 130.177 112.102 131.292C109.532 132.407 106.394 131.257 105.096 128.723C103.798 126.189 104.829 123.23 107.399 122.115C109.97 120.998 113.107 122.149 114.405 124.683Z" fill="#84B5FF"/>
<path d="M191.17 85.0788L199 86.5515V93.5713L191.17 94.9212C190.569 97.8052 189.427 100.505 187.857 102.898L192.348 109.489L187.378 114.459L180.886 109.869C178.493 111.44 175.805 112.569 172.909 113.17L171.436 121H164.416L163.066 113.17C160.182 112.569 157.482 111.428 155.089 109.857L148.511 114.348L143.541 109.378L148.131 102.886C146.56 100.493 145.431 97.793 144.83 94.9089L137 93.4363V86.4165L144.83 85.0665C145.431 82.1702 146.572 79.4826 148.143 77.0895L143.651 70.5115L148.622 65.5412L155.126 70.131C157.519 68.5602 160.219 67.4188 163.103 66.8298L164.576 59H171.596L172.946 66.8298C175.842 67.4311 178.53 68.5724 180.923 70.1433L187.501 65.6516L192.471 70.6219L187.881 77.114C189.44 79.4949 190.569 82.1825 191.17 85.0788ZM168 75.4572C159.974 75.4572 153.469 81.9739 153.469 89.9877C153.469 98.0016 159.974 104.518 168 104.518C176.026 104.518 182.53 98.0139 182.53 89.9877C182.53 81.9616 176.026 75.4572 168 75.4572Z" fill="#84B5FF"/>
<path d="M237.145 217.754L217.869 207C216.623 206.256 216 205.106 216 203.551C216 201.928 216.656 200.778 217.967 200.101L237.145 189.246V193.203C237.145 193.473 237.047 193.845 236.85 194.319C236.653 194.725 236.358 195.029 235.965 195.232L222.295 202.942C221.77 203.348 221.77 203.754 222.295 204.159L237.145 212.377V217.754Z" fill="#84B5FF"/>
<path d="M253.564 186H257.4L247.86 219.681C247.598 220.56 247.008 221 246.09 221H243.631L253.564 186Z" fill="#84B5FF"/>
<path d="M263.591 189.246L282.768 200.101C284.145 200.845 284.834 201.995 284.834 203.551C284.834 205.106 284.145 206.222 282.768 206.899L263.591 217.754V213.797C263.591 213.594 263.656 213.256 263.787 212.783C263.984 212.309 264.279 211.971 264.672 211.768L278.441 204.159C278.966 203.754 278.966 203.348 278.441 202.942L263.591 194.623V189.246Z" fill="#84B5FF"/>
</g>
<path d="M200.876 78.0766L137.911 104.203C135.859 105.055 134.786 107.085 135.518 108.734L156.692 156.407C157.425 158.057 159.659 158.642 161.678 157.715L223.617 129.279C225.46 128.433 226.385 126.475 225.687 124.904L205.527 79.5151C204.83 77.9446 202.749 77.2997 200.876 78.0766Z" fill="#276ED8"/>
<g opacity="0.5" filter="url(#filter1_d_52_124)">
<path d="M204.44 79.9693L224.614 125.392C225.09 126.463 224.463 127.794 223.207 128.371L194.755 141.409L161.226 156.775C159.853 157.405 158.306 157.018 157.807 155.895L136.652 108.262C136.153 107.141 136.91 105.747 138.307 105.167L201.265 78.9925C202.324 78.5527 203.482 78.7775 204.117 79.4783C204.246 79.6231 204.359 79.7868 204.44 79.9693Z" fill="white"/>
</g>
<path d="M201.194 89.9263L201.844 91.3874L205.44 89.8599L204.792 88.4026L201.194 89.9263Z" fill="white"/>
<path d="M150.528 114.44L143.697 117.362L143 115.793L149.835 112.878L150.528 114.44Z" fill="white"/>
<path d="M187.741 98.5215L154.912 112.565L154.22 111.008L187.066 97L187.741 98.5215Z" fill="white"/>
<path d="M163.596 114.947L156.875 117.837L156.184 116.28L162.908 113.397L163.596 114.947Z" fill="white"/>
<path d="M200.216 99.2023L167.909 113.093L167.223 111.547L199.546 97.6914L200.216 99.2023Z" fill="white"/>
<path d="M157.084 127.444L150.269 130.405L149.572 128.835L156.39 125.883L157.084 127.444Z" fill="white"/>
<path d="M194.205 111.32L161.456 125.546L160.764 123.988L193.529 109.798L194.205 111.32Z" fill="white"/>
<path d="M170.124 126.891L163.42 129.818L162.729 128.261L169.436 125.341L170.124 126.891Z" fill="white"/>
<path d="M206.653 110.942L174.425 125.013L173.739 123.467L205.983 109.431L206.653 110.942Z" fill="white"/>
<path d="M213.197 112.131L186.892 123.791L186.211 122.257L212.528 110.626L213.197 112.131Z" fill="white"/>
<path d="M163.565 143.791L156.795 146.852L156.098 145.282L162.871 142.229L163.565 143.791Z" fill="white"/>
<path d="M200.441 127.117L167.908 141.827L167.216 140.27L199.765 125.594L200.441 127.117Z" fill="white"/>
<path d="M176.531 143.073L169.871 146.099L169.18 144.542L175.843 141.523L176.531 143.073Z" fill="white"/>
<path d="M212.82 126.583L180.804 141.131L180.118 139.586L212.149 125.073L212.82 126.583Z" fill="white"/>
<path d="M204.439 79.9692L224.614 125.392C225.089 126.463 224.462 127.794 223.207 128.371L194.756 141.409L173.326 93.1585L204.127 79.4729C204.258 79.6177 204.358 79.7867 204.439 79.9692Z" fill="white"/>
<path d="M200.876 78.076L137.911 104.203C135.859 105.054 134.786 107.084 135.518 108.734L136.47 110.877L206.434 81.5557L205.527 79.5152C204.83 77.944 202.749 77.2983 200.876 78.076Z" fill="#276ED8"/>
<path d="M141.747 105.799C141.986 106.337 141.697 106.973 141.1 107.22C140.504 107.468 139.825 107.232 139.586 106.694C139.346 106.155 139.638 105.519 140.235 105.272C140.832 105.025 141.509 105.262 141.747 105.799Z" fill="white"/>
<path d="M145.525 104.236C145.763 104.772 145.476 105.406 144.883 105.651C144.289 105.897 143.615 105.662 143.377 105.125C143.138 104.588 143.426 103.954 144.021 103.709C144.613 103.465 145.286 103.701 145.525 104.236Z" fill="white"/>
<path d="M149.279 102.683C149.516 103.217 149.231 103.849 148.642 104.093C148.052 104.337 147.381 104.102 147.143 103.567C146.906 103.032 147.191 102.4 147.781 102.157C148.372 101.913 149.042 102.148 149.279 102.683Z" fill="white"/>
<path opacity="0.35" d="M180.741 105.691L207.145 94.465C207.235 94.4265 207.306 94.3541 207.341 94.2628C207.377 94.1715 207.374 94.0697 207.335 93.9799L203.635 85.65C203.554 85.4667 203.342 85.3822 203.157 85.4584L176.658 96.4707C176.57 96.5077 176.499 96.5793 176.464 96.6698C176.429 96.7604 176.431 96.8614 176.471 96.9512L180.268 105.501C180.349 105.683 180.56 105.768 180.741 105.691Z" fill="#84B5FF"/>
<path opacity="0.35" d="M208.961 98.1649L182.321 109.599C182.233 109.637 182.164 109.708 182.13 109.797C182.096 109.887 182.099 109.987 182.138 110.075L193.999 136.781C194.039 136.871 194.114 136.942 194.205 136.978C194.297 137.013 194.399 137.011 194.488 136.97L220.843 124.895C221.023 124.813 221.103 124.602 221.022 124.42L209.445 98.3549C209.363 98.1709 209.147 98.0857 208.961 98.1649Z" fill="#84B5FF"/>
<path d="M127.307 156L118 177L132 175.988L127.307 156Z" fill="#195BBE"/>
<path d="M237.884 154.919V225.442L177.222 228.997L177.091 228.999L173.152 188.89L177.082 147.208L177.223 147.216L237.884 154.919Z" fill="#276ED8"/>
<path d="M176.994 147.208V228.999L127.338 223.404V155.882L137.451 154.108L155.277 150.997L176.994 147.208Z" fill="#3E85EE"/>
<path d="M176.961 147.209L204.122 172.551L256.998 175.522L237.62 154.919L176.961 147.209Z" fill="#195BBE"/>
<path d="M253.057 141.763C252.528 142.012 251.967 142.094 251.433 142L200.037 132.945C199.326 132.82 198.732 132.42 198.366 131.817C197.98 131.181 197.89 130.369 198.12 129.59L206.821 100.159L262.986 111.652L254.793 139.723C254.531 140.61 253.882 141.373 253.057 141.763Z" fill="#2DA531"/>
<path d="M207.658 101.541L199.299 129.82C199.021 130.759 199.505 131.645 200.378 131.799L251.766 140.853C252.553 140.992 253.404 140.384 253.667 139.494L261.585 112.706L207.658 101.541Z" fill="white"/>
<path d="M263.103 108.093L210.039 96.9346C209.143 96.7456 208.19 97.3516 207.915 98.2882L207.061 101.179L263.282 112.746L264.091 110.008C264.352 109.119 263.91 108.263 263.103 108.093Z" fill="#06B25F"/>
<path opacity="0.2" d="M213.156 129.096L209.269 128.439L215.475 107.948L219.339 108.684L213.156 129.096Z" fill="#A7CFFF"/>
<path d="M213.116 128.873L209.238 128.217L211.824 119.36L215.697 120.036L213.116 128.873Z" fill="#84B5FF"/>
<path opacity="0.2" d="M223.651 131.29L219.845 130.648L225.985 110.374L229.767 111.095L223.651 131.29Z" fill="#A7CFFF"/>
<path d="M223.532 131.29L219.73 130.648L223.574 117.583L227.357 118.287L223.532 131.29Z" fill="#84B5FF"/>
<path opacity="0.2" d="M233.92 133.438L230.194 132.809L236.27 112.75L239.972 113.455L233.92 133.438Z" fill="#A7CFFF"/>
<path d="M233.966 133.108L230.242 132.479L235.432 115.34L239.136 116.035L233.966 133.108Z" fill="#84B5FF"/>
<path opacity="0.2" d="M243.978 135.542L240.33 134.925L246.342 115.076L249.968 115.767L243.978 135.542Z" fill="#A7CFFF"/>
<path d="M243.74 135.201L240.106 134.585L242.186 127.706L245.813 128.348L243.74 135.201Z" fill="#84B5FF"/>
<defs>
<filter id="filter0_d_52_124" x="0" y="0" width="358" height="436" filterUnits="userSpaceOnUse" color-interpolation-filters="sRGB">
<feFlood flood-opacity="0" result="BackgroundImageFix"/>
<feColorMatrix in="SourceAlpha" type="matrix" values="0 0 0 0 0 0 0 0 0 0 0 0 0 0 0 0 0 0 127 0" result="hardAlpha"/>
<feMorphology radius="2" operator="dilate" in="SourceAlpha" result="effect1_dropShadow_52_124"/>
<feOffset dy="3"/>
<feGaussianBlur stdDeviation="8"/>
<feColorMatrix type="matrix" values="0 0 0 0 0.113976 0 0 0 0 0.199896 0 0 0 0 0.420833 0 0 0 0.15 0"/>
<feBlend mode="normal" in2="BackgroundImageFix" result="effect1_dropShadow_52_124"/>
<feBlend mode="normal" in="SourceGraphic" in2="effect1_dropShadow_52_124" result="shape"/>
</filter>
<filter id="filter1_d_52_124" x="124.498" y="70.7668" width="112.275" height="102.31" filterUnits="userSpaceOnUse" color-interpolation-filters="sRGB">
<feFlood flood-opacity="0" result="BackgroundImageFix"/>
<feColorMatrix in="SourceAlpha" type="matrix" values="0 0 0 0 0 0 0 0 0 0 0 0 0 0 0 0 0 0 127 0" result="hardAlpha"/>
<feOffset dy="4"/>
<feGaussianBlur stdDeviation="6"/>
<feColorMatrix type="matrix" values="0 0 0 0 0.160784 0 0 0 0 0.0941176 0 0 0 0 0.435294 0 0 0 0.15 0"/>
<feBlend mode="normal" in2="BackgroundImageFix" result="effect1_dropShadow_52_124"/>
<feBlend mode="normal" in="SourceGraphic" in2="effect1_dropShadow_52_124" result="shape"/>
</filter>
</defs>
</svg>
