<svg width="362" height="360" viewBox="0 0 362 360" fill="none" xmlns="http://www.w3.org/2000/svg">
<g filter="url(#filter0_d_14895_1949)">
<rect x="20" y="17" width="322" height="320" rx="16" fill="#F4F8FD"/>
</g>
<path d="M92.2969 264.399C91.8281 265.076 91.2682 265.571 90.6172 265.883C89.9401 266.17 89.1979 266.313 88.3906 266.313C86.4635 266.313 84.9401 265.675 83.8203 264.399C82.6745 263.149 82.1016 261.43 82.1016 259.242C82.1016 257.081 82.6615 255.375 83.7812 254.125C84.9531 252.823 86.5026 252.172 88.4297 252.172C90.0964 252.172 91.4766 252.576 92.5703 253.383C93.638 254.242 94.276 255.362 94.4844 256.742H92.6094C92.0625 256.742 91.6589 256.495 91.3984 256C91.2161 255.688 90.9557 255.401 90.6172 255.141C90.0964 254.776 89.4062 254.594 88.5469 254.594C87.4271 254.594 86.5417 254.998 85.8906 255.805C85.2396 256.664 84.9141 257.81 84.9141 259.242C84.9141 260.701 85.2526 261.847 85.9297 262.68C86.5807 263.487 87.5052 263.891 88.7031 263.891C89.5885 263.891 90.3177 263.643 90.8906 263.149C91.4635 262.628 91.8281 261.912 91.9844 261H90.3438C89.9531 261 89.6146 260.87 89.3281 260.61C89.0677 260.323 88.9375 259.985 88.9375 259.594V258.696H94.5234V266H93.7812C93.0521 266 92.5964 265.636 92.4141 264.906L92.2969 264.399ZM101.891 252.563H104.078L108.961 266H106.031L105.133 263.227H99.8984L99.0391 266H96.1094L100.562 253.461C100.797 252.862 101.24 252.563 101.891 252.563ZM102.516 255.258L100.641 260.961H104.391L102.516 255.258ZM110.586 266V253.969C110.586 253.578 110.716 253.253 110.977 252.992C111.263 252.706 111.602 252.55 111.992 252.524H114.688L117.344 262.797L120 252.524H124.102V266H121.523V255.141L118.789 266H115.938L113.164 255.141V266H110.586ZM125.766 266V253.969C125.766 253.578 125.896 253.253 126.156 252.992C126.443 252.706 126.781 252.563 127.172 252.563H135.531V254.867H128.5V257.758H133.734V258.656C133.734 259.047 133.591 259.386 133.305 259.672C133.044 259.933 132.719 260.063 132.328 260.063H128.5V263.5H135.531V266H125.766ZM142.492 266V253.969C142.492 253.578 142.622 253.253 142.883 252.992C143.169 252.706 143.508 252.563 143.898 252.563H147.766C149.823 252.563 151.359 253.11 152.375 254.203C153.391 255.349 153.898 257.042 153.898 259.281C153.898 260.479 153.716 261.56 153.352 262.524C152.935 263.513 152.388 264.268 151.711 264.789C151.138 265.232 150.526 265.545 149.875 265.727C149.25 265.909 148.299 266 147.023 266H142.492ZM145.188 263.578H147.414C148.69 263.578 149.628 263.24 150.227 262.563C150.799 261.938 151.086 260.844 151.086 259.281C151.086 257.771 150.812 256.664 150.266 255.961C149.745 255.258 148.911 254.906 147.766 254.906H145.188V263.578ZM155.445 266V253.969C155.445 253.578 155.576 253.253 155.836 252.992C156.122 252.706 156.461 252.563 156.852 252.563H165.211V254.867H158.18V257.758H163.414V258.656C163.414 259.047 163.271 259.386 162.984 259.672C162.724 259.933 162.398 260.063 162.008 260.063H158.18V263.5H165.211V266H155.445ZM171.328 266L166.68 252.563H169.766L172.617 262.602L175.234 253.578C175.391 252.901 175.833 252.563 176.562 252.563H178.555L173.984 266H171.328ZM180.141 266V253.969C180.141 253.578 180.271 253.253 180.531 252.992C180.818 252.706 181.156 252.563 181.547 252.563H189.906V254.867H182.875V257.758H188.109V258.656C188.109 259.047 187.966 259.386 187.68 259.672C187.419 259.933 187.094 260.063 186.703 260.063H182.875V263.5H189.906V266H180.141ZM191.375 266V253.969C191.375 253.578 191.505 253.253 191.766 252.992C192.052 252.706 192.391 252.563 192.781 252.563H194.148V263.5H200.711V266H191.375ZM204.68 259.281C204.68 260.792 205.005 261.938 205.656 262.719C206.307 263.526 207.232 263.93 208.43 263.93C209.602 263.93 210.526 263.526 211.203 262.719C211.88 261.886 212.219 260.74 212.219 259.281C212.219 257.823 211.88 256.664 211.203 255.805C210.526 254.998 209.602 254.594 208.43 254.594C207.232 254.594 206.307 254.998 205.656 255.805C205.005 256.612 204.68 257.771 204.68 259.281ZM201.906 259.281C201.906 257.094 202.479 255.362 203.625 254.086C204.849 252.81 206.451 252.172 208.43 252.172C210.383 252.172 211.984 252.81 213.234 254.086C214.406 255.388 214.992 257.12 214.992 259.281C214.992 261.443 214.406 263.162 213.234 264.438C212.036 265.688 210.435 266.313 208.43 266.313C206.398 266.313 204.797 265.688 203.625 264.438C202.479 263.188 201.906 261.469 201.906 259.281ZM219.391 261.196V266H216.617V253.969C216.617 253.578 216.747 253.253 217.008 252.992C217.294 252.706 217.633 252.563 218.023 252.563H222.594C224.026 252.563 225.094 252.927 225.797 253.656C226.526 254.386 226.891 255.466 226.891 256.899C226.891 258.253 226.539 259.321 225.836 260.102C225.133 260.831 224.117 261.196 222.789 261.196H219.391ZM219.391 258.774H222.086C222.815 258.774 223.336 258.617 223.648 258.305C223.987 258.018 224.156 257.524 224.156 256.821C224.156 256.222 224 255.74 223.688 255.375C223.323 255.063 222.841 254.906 222.242 254.906H219.391V258.774ZM228.398 266V253.969C228.398 253.578 228.529 253.253 228.789 252.992C229.076 252.706 229.414 252.55 229.805 252.524H232.5L235.156 262.797L237.812 252.524H241.914V266H239.336V255.141L236.602 266H233.75L230.977 255.141V266H228.398ZM243.578 266V253.969C243.578 253.578 243.708 253.253 243.969 252.992C244.255 252.706 244.594 252.563 244.984 252.563H253.344V254.867H246.312V257.758H251.547V258.656C251.547 259.047 251.404 259.386 251.117 259.672C250.857 259.933 250.531 260.063 250.141 260.063H246.312V263.5H253.344V266H243.578ZM254.812 266V253.969C254.812 253.578 254.943 253.253 255.203 252.992C255.49 252.706 255.828 252.55 256.219 252.524H257.703L263.172 261.781V252.524H265.906V266H263.055L257.547 256.742V266H254.812ZM271.438 266V254.946H267.453V253.969C267.453 253.578 267.583 253.253 267.844 252.992C268.13 252.706 268.469 252.563 268.859 252.563H278.156V254.946H274.211V266H271.438ZM116.664 289.281C116.664 290.792 116.99 291.938 117.641 292.719C118.292 293.526 119.216 293.93 120.414 293.93C121.586 293.93 122.51 293.526 123.188 292.719C123.865 291.886 124.203 290.74 124.203 289.281C124.203 287.823 123.865 286.664 123.188 285.805C122.51 284.998 121.586 284.594 120.414 284.594C119.216 284.594 118.292 284.998 117.641 285.805C116.99 286.612 116.664 287.771 116.664 289.281ZM113.891 289.281C113.891 287.094 114.464 285.362 115.609 284.086C116.833 282.81 118.435 282.172 120.414 282.172C122.367 282.172 123.969 282.81 125.219 284.086C126.391 285.388 126.977 287.12 126.977 289.281C126.977 291.443 126.391 293.162 125.219 294.438C124.021 295.688 122.419 296.313 120.414 296.313C118.383 296.313 116.781 295.688 115.609 294.438C114.464 293.188 113.891 291.469 113.891 289.281ZM131.414 282.524V290.922C131.414 291.964 131.609 292.732 132 293.227C132.417 293.696 133.081 293.93 133.992 293.93C134.878 293.93 135.542 293.696 135.984 293.227C136.401 292.758 136.609 291.99 136.609 290.922V282.524H139.383V291.235C139.383 292.901 138.914 294.164 137.977 295.024C137.117 295.883 135.789 296.313 133.992 296.313C132.195 296.313 130.867 295.883 130.008 295.024C129.07 294.164 128.602 292.901 128.602 291.235V284.008C128.602 283.617 128.732 283.279 128.992 282.992C129.279 282.68 129.617 282.524 130.008 282.524H131.414ZM144.875 296V284.946H140.891V283.969C140.891 283.578 141.021 283.253 141.281 282.992C141.568 282.706 141.906 282.563 142.297 282.563H151.594V284.946H147.648V296H144.875ZM153.102 291.821H155.836C155.94 292.602 156.24 293.149 156.734 293.461C157.255 293.826 157.971 294.008 158.883 294.008C159.69 294.008 160.302 293.865 160.719 293.578C161.135 293.292 161.344 292.875 161.344 292.328C161.344 291.495 160.172 290.818 157.828 290.297L157.75 290.258C157.75 290.258 157.646 290.232 157.438 290.18C156.109 289.893 155.224 289.594 154.781 289.281C154.26 288.995 153.896 288.578 153.688 288.031C153.427 287.563 153.297 286.964 153.297 286.235C153.297 284.959 153.74 283.956 154.625 283.227C155.51 282.524 156.799 282.172 158.492 282.172C160.081 282.172 161.305 282.537 162.164 283.266C163.049 284.073 163.518 285.128 163.57 286.43H162.008C161.409 286.43 160.979 286.156 160.719 285.61C160.589 285.349 160.406 285.128 160.172 284.946C159.703 284.607 159.065 284.438 158.258 284.438C157.477 284.438 156.917 284.581 156.578 284.867C156.188 285.154 155.992 285.558 155.992 286.078C155.992 286.781 156.747 287.302 158.258 287.641C158.701 287.771 159.026 287.849 159.234 287.875C159.703 288.031 160.107 288.162 160.445 288.266C160.81 288.344 161.096 288.409 161.305 288.461C161.669 288.617 162.034 288.774 162.398 288.93C162.919 289.242 163.323 289.646 163.609 290.141C163.896 290.688 164.039 291.287 164.039 291.938C164.039 293.344 163.57 294.438 162.633 295.219C161.695 295.948 160.367 296.313 158.648 296.313C156.878 296.313 155.549 295.935 154.664 295.18C153.701 294.425 153.18 293.305 153.102 291.821ZM168.125 289.281C168.125 290.792 168.451 291.938 169.102 292.719C169.753 293.526 170.677 293.93 171.875 293.93C173.047 293.93 173.971 293.526 174.648 292.719C175.326 291.886 175.664 290.74 175.664 289.281C175.664 287.823 175.326 286.664 174.648 285.805C173.971 284.998 173.047 284.594 171.875 284.594C170.677 284.594 169.753 284.998 169.102 285.805C168.451 286.612 168.125 287.771 168.125 289.281ZM165.352 289.281C165.352 287.094 165.924 285.362 167.07 284.086C168.294 282.81 169.896 282.172 171.875 282.172C173.828 282.172 175.43 282.81 176.68 284.086C177.852 285.388 178.438 287.12 178.438 289.281C178.438 291.443 177.852 293.162 176.68 294.438C175.482 295.688 173.88 296.313 171.875 296.313C169.844 296.313 168.242 295.688 167.07 294.438C165.924 293.188 165.352 291.469 165.352 289.281ZM182.875 282.524V290.922C182.875 291.964 183.07 292.732 183.461 293.227C183.878 293.696 184.542 293.93 185.453 293.93C186.339 293.93 187.003 293.696 187.445 293.227C187.862 292.758 188.07 291.99 188.07 290.922V282.524H190.844V291.235C190.844 292.901 190.375 294.164 189.438 295.024C188.578 295.883 187.25 296.313 185.453 296.313C183.656 296.313 182.328 295.883 181.469 295.024C180.531 294.164 180.062 292.901 180.062 291.235V284.008C180.062 283.617 180.193 283.279 180.453 282.992C180.74 282.68 181.078 282.524 181.469 282.524H182.875ZM192.352 296V283.969C192.352 283.578 192.482 283.253 192.742 282.992C193.029 282.706 193.367 282.563 193.758 282.563H198.875C200.333 282.563 201.414 282.875 202.117 283.5C202.846 284.151 203.211 285.102 203.211 286.352C203.211 287.185 203.029 287.875 202.664 288.422C202.352 288.943 201.857 289.321 201.18 289.555C201.779 289.763 202.195 290.076 202.43 290.492C202.664 290.883 202.807 291.547 202.859 292.485L202.938 294.086C202.938 294.242 202.938 294.412 202.938 294.594C202.938 294.776 202.951 294.946 202.977 295.102C203.055 295.571 203.211 295.87 203.445 296H200.398C200.268 295.74 200.19 295.466 200.164 295.18C200.112 294.763 200.086 294.477 200.086 294.321L200.047 292.875C199.995 292.094 199.839 291.534 199.578 291.196C199.292 290.909 198.784 290.766 198.055 290.766H195.125V296H192.352ZM195.125 288.422H198.367C199.07 288.422 199.591 288.279 199.93 287.992C200.268 287.706 200.438 287.263 200.438 286.664C200.438 286.065 200.268 285.623 199.93 285.336C199.617 285.024 199.148 284.867 198.523 284.867H195.125V288.422ZM216.984 291.352C216.854 292.914 216.268 294.138 215.227 295.024C214.159 295.883 212.753 296.313 211.008 296.313C208.977 296.313 207.427 295.701 206.359 294.477C205.292 293.305 204.758 291.573 204.758 289.281C204.758 286.938 205.305 285.18 206.398 284.008C207.518 282.784 209.133 282.172 211.242 282.172C212.961 282.172 214.328 282.602 215.344 283.461C216.307 284.295 216.854 285.466 216.984 286.977H215.305C214.68 286.977 214.237 286.703 213.977 286.156C213.794 285.818 213.573 285.518 213.312 285.258C212.792 284.867 212.102 284.672 211.242 284.672C210.044 284.672 209.12 285.063 208.469 285.844C207.844 286.625 207.531 287.771 207.531 289.281C207.531 290.74 207.844 291.86 208.469 292.641C209.068 293.448 209.966 293.852 211.164 293.852C211.997 293.852 212.688 293.643 213.234 293.227C213.729 292.836 214.081 292.211 214.289 291.352H216.984ZM218.57 296V283.969C218.57 283.578 218.701 283.253 218.961 282.992C219.247 282.706 219.586 282.563 219.977 282.563H221.344V296H218.57ZM222.461 296V283.969C222.461 283.578 222.591 283.253 222.852 282.992C223.138 282.706 223.477 282.55 223.867 282.524H225.352L230.82 291.781V282.524H233.555V296H230.703L225.195 286.742V296H222.461ZM245.062 294.399C244.594 295.076 244.034 295.571 243.383 295.883C242.706 296.17 241.964 296.313 241.156 296.313C239.229 296.313 237.706 295.675 236.586 294.399C235.44 293.149 234.867 291.43 234.867 289.242C234.867 287.081 235.427 285.375 236.547 284.125C237.719 282.823 239.268 282.172 241.195 282.172C242.862 282.172 244.242 282.576 245.336 283.383C246.404 284.242 247.042 285.362 247.25 286.742H245.375C244.828 286.742 244.424 286.495 244.164 286C243.982 285.688 243.721 285.401 243.383 285.141C242.862 284.776 242.172 284.594 241.312 284.594C240.193 284.594 239.307 284.998 238.656 285.805C238.005 286.664 237.68 287.81 237.68 289.242C237.68 290.701 238.018 291.847 238.695 292.68C239.346 293.487 240.271 293.891 241.469 293.891C242.354 293.891 243.083 293.643 243.656 293.149C244.229 292.628 244.594 291.912 244.75 291H243.109C242.719 291 242.38 290.87 242.094 290.61C241.833 290.323 241.703 289.985 241.703 289.594V288.696H247.289V296H246.547C245.818 296 245.362 295.636 245.18 294.906L245.062 294.399Z" fill="#0D6EB7"/>
<path d="M205.233 118.618C195.708 118.618 191.948 125.185 189.952 129.942C188.416 126.83 185.209 124.685 181.512 124.685C177.814 124.685 174.608 126.83 173.072 129.942C171.076 125.185 167.317 118.618 157.79 118.618C135.822 118.618 128.024 162.976 128.024 171.945C128.024 183.817 134.685 188.029 140.389 188.029C150.424 188.029 161.216 170.877 166.423 162.309H196.601C201.803 170.87 212.635 188.029 222.634 188.029C228.338 188.029 235 183.817 235 171.945C235 168.174 229.122 118.618 205.233 118.618Z" fill="#276ED8"/>
<path d="M159.541 145.541H162.676C164.407 145.541 165.812 144.137 165.812 142.406C165.812 140.675 164.407 139.271 162.676 139.271H159.541V136.135C159.541 134.405 158.137 133 156.406 133C154.675 133 153.271 134.405 153.271 136.135V139.271H150.135C148.405 139.271 147 140.675 147 142.406C147 144.137 148.405 145.541 150.135 145.541H153.271V148.676C153.271 150.407 154.675 151.812 156.406 151.812C158.137 151.812 159.541 150.407 159.541 148.676V145.541Z" fill="#66D6A0"/>
<path d="M175.218 151.812H187.759C189.489 151.812 190.894 150.407 190.894 148.676C190.894 146.946 189.489 145.541 187.759 145.541H175.218C173.487 145.541 172.082 146.946 172.082 148.676C172.082 150.407 173.487 151.812 175.218 151.812Z" fill="#66D6A0"/>
<path d="M209.706 136.135C209.706 134.405 208.301 133 206.57 133C204.84 133 203.435 134.405 203.435 136.135C203.435 137.866 204.84 139.271 206.57 139.271C208.301 139.271 209.706 137.866 209.706 136.135Z" fill="#66D6A0"/>
<path d="M197.165 142.406C197.165 144.137 198.569 145.541 200.3 145.541C202.03 145.541 203.435 144.137 203.435 142.406C203.435 140.675 202.03 139.271 200.3 139.271C198.569 139.271 197.165 140.675 197.165 142.406Z" fill="#66D6A0"/>
<path d="M203.435 148.676C203.435 150.407 204.84 151.812 206.57 151.812C208.301 151.812 209.706 150.407 209.706 148.676C209.706 146.946 208.301 145.541 206.57 145.541C204.84 145.541 203.435 146.946 203.435 148.676Z" fill="#66D6A0"/>
<path d="M209.706 142.406C209.706 144.137 211.11 145.541 212.841 145.541C214.572 145.541 215.976 144.137 215.976 142.406C215.976 140.675 214.572 139.271 212.841 139.271C211.11 139.271 209.706 140.675 209.706 142.406Z" fill="#66D6A0"/>
<path d="M184.903 118.781C183.805 118.54 182.67 118.415 181.512 118.415C180.519 118.415 179.545 118.507 178.599 118.683C178.316 114.653 177.43 110.437 175.275 108.282C169.733 102.74 155.976 106.618 148 106.497C134.601 106.294 127.824 98.7298 128.003 89.1697C128.039 87.2557 128.15 85.2616 128.766 83.2308C129.266 81.5712 131.015 80.6348 132.673 81.1344C134.326 81.6339 135.265 83.375 134.774 85.0284C131.793 95.2099 138.383 102.839 155.87 99.6534C163.101 98.2852 174.307 98.4451 179.708 103.846C182.76 106.898 184.508 111.923 184.903 118.781Z" fill="#276ED8"/>
<defs>
<filter id="filter0_d_14895_1949" x="0" y="0" width="362" height="360" filterUnits="userSpaceOnUse" color-interpolation-filters="sRGB">
<feFlood flood-opacity="0" result="BackgroundImageFix"/>
<feColorMatrix in="SourceAlpha" type="matrix" values="0 0 0 0 0 0 0 0 0 0 0 0 0 0 0 0 0 0 127 0" result="hardAlpha"/>
<feMorphology radius="4" operator="dilate" in="SourceAlpha" result="effect1_dropShadow_14895_1949"/>
<feOffset dy="3"/>
<feGaussianBlur stdDeviation="8"/>
<feColorMatrix type="matrix" values="0 0 0 0 0.113976 0 0 0 0 0.199896 0 0 0 0 0.420833 0 0 0 0.1 0"/>
<feBlend mode="normal" in2="BackgroundImageFix" result="effect1_dropShadow_14895_1949"/>
<feBlend mode="normal" in="SourceGraphic" in2="effect1_dropShadow_14895_1949" result="shape"/>
</filter>
</defs>
</svg>
