<svg width="362" height="360" viewBox="0 0 362 360" fill="none" xmlns="http://www.w3.org/2000/svg">
<g filter="url(#filter0_d_14895_1986)">
<rect x="20" y="17" width="322" height="320" rx="16" fill="#F4F8FD"/>
</g>
<path d="M90.6797 261.82H93.4141C93.5182 262.602 93.8177 263.148 94.3125 263.461C94.8333 263.826 95.5495 264.008 96.4609 264.008C97.2682 264.008 97.8802 263.865 98.2969 263.578C98.7135 263.292 98.9219 262.875 98.9219 262.328C98.9219 261.495 97.75 260.818 95.4062 260.297L95.3281 260.258C95.3281 260.258 95.224 260.232 95.0156 260.18C93.6875 259.893 92.8021 259.594 92.3594 259.281C91.8385 258.995 91.474 258.578 91.2656 258.031C91.0052 257.562 90.875 256.964 90.875 256.234C90.875 254.958 91.3177 253.956 92.2031 253.227C93.0885 252.523 94.3776 252.172 96.0703 252.172C97.6589 252.172 98.8828 252.536 99.7422 253.266C100.628 254.073 101.096 255.128 101.148 256.43H99.5859C98.987 256.43 98.5573 256.156 98.2969 255.609C98.1667 255.349 97.9844 255.128 97.75 254.945C97.2812 254.607 96.6432 254.438 95.8359 254.438C95.0547 254.438 94.4948 254.581 94.1562 254.867C93.7656 255.154 93.5703 255.557 93.5703 256.078C93.5703 256.781 94.3255 257.302 95.8359 257.641C96.2786 257.771 96.6042 257.849 96.8125 257.875C97.2812 258.031 97.6849 258.161 98.0234 258.266C98.388 258.344 98.6745 258.409 98.8828 258.461C99.2474 258.617 99.612 258.773 99.9766 258.93C100.497 259.242 100.901 259.646 101.188 260.141C101.474 260.688 101.617 261.286 101.617 261.938C101.617 263.344 101.148 264.438 100.211 265.219C99.2734 265.948 97.9453 266.312 96.2266 266.312C94.4557 266.312 93.1276 265.935 92.2422 265.18C91.2786 264.424 90.7578 263.305 90.6797 261.82ZM103.164 266V253.969C103.164 253.578 103.294 253.253 103.555 252.992C103.841 252.706 104.18 252.562 104.57 252.562H108.438C110.495 252.562 112.031 253.109 113.047 254.203C114.062 255.349 114.57 257.042 114.57 259.281C114.57 260.479 114.388 261.56 114.023 262.523C113.607 263.513 113.06 264.268 112.383 264.789C111.81 265.232 111.198 265.544 110.547 265.727C109.922 265.909 108.971 266 107.695 266H103.164ZM105.859 263.578H108.086C109.362 263.578 110.299 263.24 110.898 262.562C111.471 261.938 111.758 260.844 111.758 259.281C111.758 257.771 111.484 256.664 110.938 255.961C110.417 255.258 109.583 254.906 108.438 254.906H105.859V263.578ZM116.117 266V253.969C116.117 253.578 116.247 253.253 116.508 252.992C116.794 252.706 117.133 252.562 117.523 252.562H118.891V258.07L124.125 252.562H127.602L122.211 257.992L128.07 266H124.711L121.312 261.234C120.714 260.453 120.154 260.154 119.633 260.336C119.138 260.492 118.891 260.805 118.891 261.273V266H116.117ZM135.148 266V253.969C135.148 253.578 135.279 253.253 135.539 252.992C135.826 252.706 136.164 252.562 136.555 252.562H140.422C142.479 252.562 144.016 253.109 145.031 254.203C146.047 255.349 146.555 257.042 146.555 259.281C146.555 260.479 146.372 261.56 146.008 262.523C145.591 263.513 145.044 264.268 144.367 264.789C143.794 265.232 143.182 265.544 142.531 265.727C141.906 265.909 140.956 266 139.68 266H135.148ZM137.844 263.578H140.07C141.346 263.578 142.284 263.24 142.883 262.562C143.456 261.938 143.742 260.844 143.742 259.281C143.742 257.771 143.469 256.664 142.922 255.961C142.401 255.258 141.568 254.906 140.422 254.906H137.844V263.578ZM148.102 266V253.969C148.102 253.578 148.232 253.253 148.492 252.992C148.779 252.706 149.117 252.562 149.508 252.562H157.867V254.867H150.836V257.758H156.07V258.656C156.07 259.047 155.927 259.385 155.641 259.672C155.38 259.932 155.055 260.062 154.664 260.062H150.836V263.5H157.867V266H148.102ZM163.984 266L159.336 252.562H162.422L165.273 262.602L167.891 253.578C168.047 252.901 168.49 252.562 169.219 252.562H171.211L166.641 266H163.984ZM172.797 266V253.969C172.797 253.578 172.927 253.253 173.188 252.992C173.474 252.706 173.812 252.562 174.203 252.562H182.562V254.867H175.531V257.758H180.766V258.656C180.766 259.047 180.622 259.385 180.336 259.672C180.076 259.932 179.75 260.062 179.359 260.062H175.531V263.5H182.562V266H172.797ZM184.031 266V253.969C184.031 253.578 184.161 253.253 184.422 252.992C184.708 252.706 185.047 252.562 185.438 252.562H186.805V263.5H193.367V266H184.031ZM197.336 259.281C197.336 260.792 197.661 261.938 198.312 262.719C198.964 263.526 199.888 263.93 201.086 263.93C202.258 263.93 203.182 263.526 203.859 262.719C204.536 261.885 204.875 260.74 204.875 259.281C204.875 257.823 204.536 256.664 203.859 255.805C203.182 254.997 202.258 254.594 201.086 254.594C199.888 254.594 198.964 254.997 198.312 255.805C197.661 256.612 197.336 257.771 197.336 259.281ZM194.562 259.281C194.562 257.094 195.135 255.362 196.281 254.086C197.505 252.81 199.107 252.172 201.086 252.172C203.039 252.172 204.641 252.81 205.891 254.086C207.062 255.388 207.648 257.12 207.648 259.281C207.648 261.443 207.062 263.161 205.891 264.438C204.693 265.688 203.091 266.312 201.086 266.312C199.055 266.312 197.453 265.688 196.281 264.438C195.135 263.188 194.562 261.469 194.562 259.281ZM212.047 261.195V266H209.273V253.969C209.273 253.578 209.404 253.253 209.664 252.992C209.951 252.706 210.289 252.562 210.68 252.562H215.25C216.682 252.562 217.75 252.927 218.453 253.656C219.182 254.385 219.547 255.466 219.547 256.898C219.547 258.253 219.195 259.32 218.492 260.102C217.789 260.831 216.773 261.195 215.445 261.195H212.047ZM212.047 258.773H214.742C215.471 258.773 215.992 258.617 216.305 258.305C216.643 258.018 216.812 257.523 216.812 256.82C216.812 256.221 216.656 255.74 216.344 255.375C215.979 255.062 215.497 254.906 214.898 254.906H212.047V258.773ZM221.055 266V253.969C221.055 253.578 221.185 253.253 221.445 252.992C221.732 252.706 222.07 252.549 222.461 252.523H225.156L227.812 262.797L230.469 252.523H234.57V266H231.992V255.141L229.258 266H226.406L223.633 255.141V266H221.055ZM236.234 266V253.969C236.234 253.578 236.365 253.253 236.625 252.992C236.911 252.706 237.25 252.562 237.641 252.562H246V254.867H238.969V257.758H244.203V258.656C244.203 259.047 244.06 259.385 243.773 259.672C243.513 259.932 243.188 260.062 242.797 260.062H238.969V263.5H246V266H236.234ZM247.469 266V253.969C247.469 253.578 247.599 253.253 247.859 252.992C248.146 252.706 248.484 252.549 248.875 252.523H250.359L255.828 261.781V252.523H258.562V266H255.711L250.203 256.742V266H247.469ZM264.094 266V254.945H260.109V253.969C260.109 253.578 260.24 253.253 260.5 252.992C260.786 252.706 261.125 252.562 261.516 252.562H270.812V254.945H266.867V266H264.094Z" fill="#0D6EB7"/>
<g clip-path="url(#clip0_14895_1986)">
<path d="M186.007 143.06C187.09 142.506 188.297 142.213 189.548 142.213C191.622 142.213 193.572 143.018 195.042 144.481L198.207 141.317C206.038 144.062 215.095 142.304 221.355 136.044C226.623 130.777 228.7 123.53 227.591 116.698C227.469 115.946 226.936 115.325 226.211 115.091C225.486 114.857 224.69 115.047 224.152 115.586L219.453 120.285C215.627 124.111 209.423 124.111 205.596 120.285C201.77 116.459 201.77 110.254 205.596 106.428L210.295 101.73C210.834 101.19 211.026 100.395 210.791 99.6692C210.557 98.9435 209.935 98.4121 209.183 98.2899C202.352 97.181 195.104 99.2584 189.837 104.526C183.484 110.879 181.774 120.112 184.696 128.022L177.833 134.885L186.007 143.06Z" fill="#276ED8"/>
<path d="M173.501 155.496L165.361 147.356L136.896 175.821C133.194 179.522 133.194 185.523 136.896 189.224C140.597 192.925 146.598 192.925 150.299 189.224L174.838 164.686C172.363 162.198 171.916 158.441 173.501 155.496Z" fill="#276ED8"/>
<path d="M191.656 147.896C191.074 147.314 190.311 147.023 189.548 147.023C188.785 147.023 188.022 147.314 187.44 147.896L185.741 149.596L155.471 119.326L156.886 117.911C158.175 116.623 158.015 114.485 156.546 113.403L144.196 104.307C143.009 103.433 141.362 103.558 140.32 104.6L135.076 109.844C134.034 110.886 133.91 112.533 134.784 113.72L143.879 126.07C144.961 127.539 147.098 127.7 148.388 126.41L149.803 124.995L180.072 155.264L178.253 157.083C177.089 158.248 177.089 160.135 178.253 161.3L206.177 189.224C209.879 192.925 215.879 192.925 219.581 189.224C223.282 185.523 223.282 179.522 219.581 175.82L191.656 147.896Z" fill="#06B25F"/>
</g>
<defs>
<filter id="filter0_d_14895_1986" x="0" y="0" width="362" height="360" filterUnits="userSpaceOnUse" color-interpolation-filters="sRGB">
<feFlood flood-opacity="0" result="BackgroundImageFix"/>
<feColorMatrix in="SourceAlpha" type="matrix" values="0 0 0 0 0 0 0 0 0 0 0 0 0 0 0 0 0 0 127 0" result="hardAlpha"/>
<feMorphology radius="4" operator="dilate" in="SourceAlpha" result="effect1_dropShadow_14895_1986"/>
<feOffset dy="3"/>
<feGaussianBlur stdDeviation="8"/>
<feColorMatrix type="matrix" values="0 0 0 0 0.113976 0 0 0 0 0.199896 0 0 0 0 0.420833 0 0 0 0.1 0"/>
<feBlend mode="normal" in2="BackgroundImageFix" result="effect1_dropShadow_14895_1986"/>
<feBlend mode="normal" in="SourceGraphic" in2="effect1_dropShadow_14895_1986" result="shape"/>
</filter>
<clipPath id="clip0_14895_1986">
<rect width="94" height="94" fill="white" transform="translate(134 98)"/>
</clipPath>
</defs>
</svg>
