<svg width="362" height="360" viewBox="0 0 362 360" fill="none" xmlns="http://www.w3.org/2000/svg">
<g filter="url(#filter0_d_14895_1977)">
<rect x="20" y="17" width="322" height="320" rx="16" fill="#F4F8FD"/>
</g>
<g clip-path="url(#clip0_14895_1977)">
<circle cx="181" cy="163" r="18" fill="#DFECFC"/>
<path d="M181 150.408C174.15 150.408 168.577 155.982 168.577 162.832C168.577 169.682 174.15 175.255 181 175.255C187.85 175.255 193.423 169.682 193.423 162.832C193.423 155.982 187.85 150.408 181 150.408ZM176.381 170.678V154.986L189.339 162.832L176.381 170.678Z" fill="#06B25F"/>
<path d="M224 121.037C223.996 118.172 222.536 113.958 215.613 110.131C210.82 107.481 204.212 105.462 196.502 104.291L193.604 103.85V134.526C200.622 133.745 207.039 132.31 212.327 130.302C219.223 127.682 223.508 124.262 224 121.037Z" fill="#276ED8"/>
<path d="M181 140.247C168.53 140.247 156.769 138.388 147.884 135.013C143.779 133.453 140.461 131.619 138 129.585V168.094C138 173.322 142.788 178.019 151.481 181.322C159.406 184.332 169.889 185.989 181 185.989C192.111 185.989 202.594 184.332 210.518 181.322C219.212 178.019 224 173.322 224 168.094V129.585C221.539 131.619 218.221 133.453 214.116 135.013C205.231 138.388 193.47 140.247 181 140.247ZM181 180.294C171.371 180.294 163.538 172.46 163.538 162.831C163.538 153.202 171.371 145.369 181 145.369C190.629 145.369 198.463 153.202 198.463 162.831C198.463 172.46 190.629 180.294 181 180.294Z" fill="#276ED8"/>
<path d="M149.673 130.302C154.958 132.309 161.371 133.743 168.387 134.524V103.848L165.488 104.288C157.779 105.458 151.172 107.479 146.381 110.129C139.463 113.957 138.004 118.172 138 121.037C138.493 124.262 142.777 127.682 149.673 130.302Z" fill="#276ED8"/>
</g>
<path d="M80.625 252.562H82.8125L87.6953 266H84.7656L83.8672 263.227H78.6328L77.7734 266H74.8438L79.2969 253.461C79.5312 252.862 79.974 252.562 80.625 252.562ZM81.25 255.258L79.375 260.961H83.125L81.25 255.258ZM89.3203 266V253.969C89.3203 253.578 89.4505 253.253 89.7109 252.992C89.9974 252.706 90.3359 252.562 90.7266 252.562H95.8438C97.3021 252.562 98.3828 252.875 99.0859 253.5C99.8151 254.151 100.18 255.102 100.18 256.352C100.18 257.185 99.9974 257.875 99.6328 258.422C99.3203 258.943 98.8255 259.32 98.1484 259.555C98.7474 259.763 99.1641 260.076 99.3984 260.492C99.6328 260.883 99.776 261.547 99.8281 262.484L99.9062 264.086C99.9062 264.242 99.9062 264.411 99.9062 264.594C99.9062 264.776 99.9193 264.945 99.9453 265.102C100.023 265.57 100.18 265.87 100.414 266H97.3672C97.237 265.74 97.1589 265.466 97.1328 265.18C97.0807 264.763 97.0547 264.477 97.0547 264.32L97.0156 262.875C96.9635 262.094 96.8073 261.534 96.5469 261.195C96.2604 260.909 95.7526 260.766 95.0234 260.766H92.0938V266H89.3203ZM92.0938 258.422H95.3359C96.0391 258.422 96.5599 258.279 96.8984 257.992C97.237 257.706 97.4062 257.263 97.4062 256.664C97.4062 256.065 97.237 255.622 96.8984 255.336C96.5859 255.023 96.1172 254.867 95.4922 254.867H92.0938V258.422ZM113.234 252.562H115.422L120.305 266H117.375L116.477 263.227H111.242L110.383 266H107.453L111.906 253.461C112.141 252.862 112.583 252.562 113.234 252.562ZM113.859 255.258L111.984 260.961H115.734L113.859 255.258ZM124.703 261.195V266H121.93V253.969C121.93 253.578 122.06 253.253 122.32 252.992C122.607 252.706 122.945 252.562 123.336 252.562H127.906C129.339 252.562 130.406 252.927 131.109 253.656C131.839 254.385 132.203 255.466 132.203 256.898C132.203 258.253 131.852 259.32 131.148 260.102C130.445 260.831 129.43 261.195 128.102 261.195H124.703ZM124.703 258.773H127.398C128.128 258.773 128.648 258.617 128.961 258.305C129.299 258.018 129.469 257.523 129.469 256.82C129.469 256.221 129.312 255.74 129 255.375C128.635 255.062 128.154 254.906 127.555 254.906H124.703V258.773ZM136.484 261.195V266H133.711V253.969C133.711 253.578 133.841 253.253 134.102 252.992C134.388 252.706 134.727 252.562 135.117 252.562H139.688C141.12 252.562 142.188 252.927 142.891 253.656C143.62 254.385 143.984 255.466 143.984 256.898C143.984 258.253 143.633 259.32 142.93 260.102C142.227 260.831 141.211 261.195 139.883 261.195H136.484ZM136.484 258.773H139.18C139.909 258.773 140.43 258.617 140.742 258.305C141.081 258.018 141.25 257.523 141.25 256.82C141.25 256.221 141.094 255.74 140.781 255.375C140.417 255.062 139.935 254.906 139.336 254.906H136.484V258.773ZM150.984 266V253.969C150.984 253.578 151.115 253.253 151.375 252.992C151.661 252.706 152 252.562 152.391 252.562H156.258C158.315 252.562 159.852 253.109 160.867 254.203C161.883 255.349 162.391 257.042 162.391 259.281C162.391 260.479 162.208 261.56 161.844 262.523C161.427 263.513 160.88 264.268 160.203 264.789C159.63 265.232 159.018 265.544 158.367 265.727C157.742 265.909 156.792 266 155.516 266H150.984ZM153.68 263.578H155.906C157.182 263.578 158.12 263.24 158.719 262.562C159.292 261.938 159.578 260.844 159.578 259.281C159.578 257.771 159.305 256.664 158.758 255.961C158.237 255.258 157.404 254.906 156.258 254.906H153.68V263.578ZM163.938 266V253.969C163.938 253.578 164.068 253.253 164.328 252.992C164.615 252.706 164.953 252.562 165.344 252.562H173.703V254.867H166.672V257.758H171.906V258.656C171.906 259.047 171.763 259.385 171.477 259.672C171.216 259.932 170.891 260.062 170.5 260.062H166.672V263.5H173.703V266H163.938ZM179.82 266L175.172 252.562H178.258L181.109 262.602L183.727 253.578C183.883 252.901 184.326 252.562 185.055 252.562H187.047L182.477 266H179.82ZM188.633 266V253.969C188.633 253.578 188.763 253.253 189.023 252.992C189.31 252.706 189.648 252.562 190.039 252.562H198.398V254.867H191.367V257.758H196.602V258.656C196.602 259.047 196.458 259.385 196.172 259.672C195.911 259.932 195.586 260.062 195.195 260.062H191.367V263.5H198.398V266H188.633ZM199.867 266V253.969C199.867 253.578 199.997 253.253 200.258 252.992C200.544 252.706 200.883 252.562 201.273 252.562H202.641V263.5H209.203V266H199.867ZM213.172 259.281C213.172 260.792 213.497 261.938 214.148 262.719C214.799 263.526 215.724 263.93 216.922 263.93C218.094 263.93 219.018 263.526 219.695 262.719C220.372 261.885 220.711 260.74 220.711 259.281C220.711 257.823 220.372 256.664 219.695 255.805C219.018 254.997 218.094 254.594 216.922 254.594C215.724 254.594 214.799 254.997 214.148 255.805C213.497 256.612 213.172 257.771 213.172 259.281ZM210.398 259.281C210.398 257.094 210.971 255.362 212.117 254.086C213.341 252.81 214.943 252.172 216.922 252.172C218.875 252.172 220.477 252.81 221.727 254.086C222.898 255.388 223.484 257.12 223.484 259.281C223.484 261.443 222.898 263.161 221.727 264.438C220.529 265.688 218.927 266.312 216.922 266.312C214.891 266.312 213.289 265.688 212.117 264.438C210.971 263.188 210.398 261.469 210.398 259.281ZM227.883 261.195V266H225.109V253.969C225.109 253.578 225.24 253.253 225.5 252.992C225.786 252.706 226.125 252.562 226.516 252.562H231.086C232.518 252.562 233.586 252.927 234.289 253.656C235.018 254.385 235.383 255.466 235.383 256.898C235.383 258.253 235.031 259.32 234.328 260.102C233.625 260.831 232.609 261.195 231.281 261.195H227.883ZM227.883 258.773H230.578C231.307 258.773 231.828 258.617 232.141 258.305C232.479 258.018 232.648 257.523 232.648 256.82C232.648 256.221 232.492 255.74 232.18 255.375C231.815 255.062 231.333 254.906 230.734 254.906H227.883V258.773ZM236.891 266V253.969C236.891 253.578 237.021 253.253 237.281 252.992C237.568 252.706 237.906 252.549 238.297 252.523H240.992L243.648 262.797L246.305 252.523H250.406V266H247.828V255.141L245.094 266H242.242L239.469 255.141V266H236.891ZM252.07 266V253.969C252.07 253.578 252.201 253.253 252.461 252.992C252.747 252.706 253.086 252.562 253.477 252.562H261.836V254.867H254.805V257.758H260.039V258.656C260.039 259.047 259.896 259.385 259.609 259.672C259.349 259.932 259.023 260.062 258.633 260.062H254.805V263.5H261.836V266H252.07ZM263.305 266V253.969C263.305 253.578 263.435 253.253 263.695 252.992C263.982 252.706 264.32 252.549 264.711 252.523H266.195L271.664 261.781V252.523H274.398V266H271.547L266.039 256.742V266H263.305ZM279.93 266V254.945H275.945V253.969C275.945 253.578 276.076 253.253 276.336 252.992C276.622 252.706 276.961 252.562 277.352 252.562H286.648V254.945H282.703V266H279.93Z" fill="#0D6EB7"/>
<defs>
<filter id="filter0_d_14895_1977" x="0" y="0" width="362" height="360" filterUnits="userSpaceOnUse" color-interpolation-filters="sRGB">
<feFlood flood-opacity="0" result="BackgroundImageFix"/>
<feColorMatrix in="SourceAlpha" type="matrix" values="0 0 0 0 0 0 0 0 0 0 0 0 0 0 0 0 0 0 127 0" result="hardAlpha"/>
<feMorphology radius="4" operator="dilate" in="SourceAlpha" result="effect1_dropShadow_14895_1977"/>
<feOffset dy="3"/>
<feGaussianBlur stdDeviation="8"/>
<feColorMatrix type="matrix" values="0 0 0 0 0.113976 0 0 0 0 0.199896 0 0 0 0 0.420833 0 0 0 0.1 0"/>
<feBlend mode="normal" in2="BackgroundImageFix" result="effect1_dropShadow_14895_1977"/>
<feBlend mode="normal" in="SourceGraphic" in2="effect1_dropShadow_14895_1977" result="shape"/>
</filter>
<clipPath id="clip0_14895_1977">
<rect width="86" height="86" fill="white" transform="translate(138 102)"/>
</clipPath>
</defs>
</svg>
