<svg width="362" height="360" viewBox="0 0 362 360" fill="none" xmlns="http://www.w3.org/2000/svg">
<g filter="url(#filter0_d_14895_1958)">
<rect x="20" y="17" width="322" height="320" rx="16" fill="#F4F8FD"/>
</g>
<path d="M96.5273 261.82H99.2617C99.3659 262.602 99.6654 263.148 100.16 263.461C100.681 263.826 101.397 264.008 102.309 264.008C103.116 264.008 103.728 263.865 104.145 263.578C104.561 263.292 104.77 262.875 104.77 262.328C104.77 261.495 103.598 260.818 101.254 260.297L101.176 260.258C101.176 260.258 101.072 260.232 100.863 260.18C99.5352 259.893 98.6497 259.594 98.207 259.281C97.6862 258.995 97.3216 258.578 97.1133 258.031C96.8529 257.562 96.7227 256.964 96.7227 256.234C96.7227 254.958 97.1654 253.956 98.0508 253.227C98.9362 252.523 100.225 252.172 101.918 252.172C103.507 252.172 104.73 252.536 105.59 253.266C106.475 254.073 106.944 255.128 106.996 256.43H105.434C104.835 256.43 104.405 256.156 104.145 255.609C104.014 255.349 103.832 255.128 103.598 254.945C103.129 254.607 102.491 254.438 101.684 254.438C100.902 254.438 100.342 254.581 100.004 254.867C99.6133 255.154 99.418 255.557 99.418 256.078C99.418 256.781 100.173 257.302 101.684 257.641C102.126 257.771 102.452 257.849 102.66 257.875C103.129 258.031 103.533 258.161 103.871 258.266C104.236 258.344 104.522 258.409 104.73 258.461C105.095 258.617 105.46 258.773 105.824 258.93C106.345 259.242 106.749 259.646 107.035 260.141C107.322 260.688 107.465 261.286 107.465 261.938C107.465 263.344 106.996 264.438 106.059 265.219C105.121 265.948 103.793 266.312 102.074 266.312C100.303 266.312 98.9753 265.935 98.0898 265.18C97.1263 264.424 96.6055 263.305 96.5273 261.82ZM109.012 266V253.969C109.012 253.578 109.142 253.253 109.402 252.992C109.689 252.706 110.027 252.562 110.418 252.562H114.285C116.342 252.562 117.879 253.109 118.895 254.203C119.91 255.349 120.418 257.042 120.418 259.281C120.418 260.479 120.236 261.56 119.871 262.523C119.454 263.513 118.908 264.268 118.23 264.789C117.658 265.232 117.046 265.544 116.395 265.727C115.77 265.909 114.819 266 113.543 266H109.012ZM111.707 263.578H113.934C115.21 263.578 116.147 263.24 116.746 262.562C117.319 261.938 117.605 260.844 117.605 259.281C117.605 257.771 117.332 256.664 116.785 255.961C116.264 255.258 115.431 254.906 114.285 254.906H111.707V263.578ZM121.965 266V253.969C121.965 253.578 122.095 253.253 122.355 252.992C122.642 252.706 122.98 252.562 123.371 252.562H124.738V258.07L129.973 252.562H133.449L128.059 257.992L133.918 266H130.559L127.16 261.234C126.561 260.453 126.001 260.154 125.48 260.336C124.986 260.492 124.738 260.805 124.738 261.273V266H121.965ZM140.762 261.742H143.379C143.379 262.497 143.561 263.057 143.926 263.422C144.316 263.812 144.863 264.008 145.566 264.008C146.296 264.008 146.829 263.826 147.168 263.461C147.559 263.122 147.754 262.615 147.754 261.938C147.754 261.286 147.533 260.779 147.09 260.414C146.673 260.076 146.009 259.906 145.098 259.906C145.072 259.906 145.033 259.906 144.98 259.906C144.954 259.906 144.928 259.906 144.902 259.906C144.85 259.906 144.798 259.919 144.746 259.945C144.72 259.945 144.707 259.945 144.707 259.945V258.07H144.98C145.788 258.07 146.387 257.914 146.777 257.602C147.168 257.289 147.363 256.82 147.363 256.195C147.363 255.701 147.194 255.284 146.855 254.945C146.569 254.659 146.126 254.516 145.527 254.516C144.876 254.516 144.408 254.685 144.121 255.023C143.783 255.362 143.613 255.87 143.613 256.547V256.625H142.207C141.66 256.625 141.335 256.482 141.23 256.195C141.126 255.883 141.113 255.557 141.191 255.219C141.374 254.516 141.725 253.93 142.246 253.461C143.079 252.706 144.212 252.328 145.645 252.328C147.025 252.328 148.118 252.667 148.926 253.344C149.759 254.021 150.176 254.906 150.176 256C150.176 256.599 150.033 257.12 149.746 257.562C149.434 258.031 149.017 258.396 148.496 258.656C149.199 258.995 149.733 259.411 150.098 259.906C150.462 260.427 150.645 261.065 150.645 261.82C150.645 263.201 150.189 264.281 149.277 265.062C148.392 265.818 147.155 266.195 145.566 266.195C143.978 266.195 142.78 265.818 141.973 265.062C141.165 264.333 140.762 263.24 140.762 261.781V261.742ZM152.113 266V253.969C152.113 253.578 152.243 253.253 152.504 252.992C152.79 252.706 153.129 252.562 153.52 252.562H157.387C159.444 252.562 160.98 253.109 161.996 254.203C163.012 255.349 163.52 257.042 163.52 259.281C163.52 260.479 163.337 261.56 162.973 262.523C162.556 263.513 162.009 264.268 161.332 264.789C160.759 265.232 160.147 265.544 159.496 265.727C158.871 265.909 157.921 266 156.645 266H152.113ZM154.809 263.578H157.035C158.311 263.578 159.249 263.24 159.848 262.562C160.421 261.938 160.707 260.844 160.707 259.281C160.707 257.771 160.434 256.664 159.887 255.961C159.366 255.258 158.533 254.906 157.387 254.906H154.809V263.578ZM170.559 266V253.969C170.559 253.578 170.689 253.253 170.949 252.992C171.236 252.706 171.574 252.549 171.965 252.523H174.66L177.316 262.797L179.973 252.523H184.074V266H181.496V255.141L178.762 266H175.91L173.137 255.141V266H170.559ZM188.277 259.281C188.277 260.792 188.603 261.938 189.254 262.719C189.905 263.526 190.829 263.93 192.027 263.93C193.199 263.93 194.124 263.526 194.801 262.719C195.478 261.885 195.816 260.74 195.816 259.281C195.816 257.823 195.478 256.664 194.801 255.805C194.124 254.997 193.199 254.594 192.027 254.594C190.829 254.594 189.905 254.997 189.254 255.805C188.603 256.612 188.277 257.771 188.277 259.281ZM185.504 259.281C185.504 257.094 186.077 255.362 187.223 254.086C188.447 252.81 190.048 252.172 192.027 252.172C193.98 252.172 195.582 252.81 196.832 254.086C198.004 255.388 198.59 257.12 198.59 259.281C198.59 261.443 198.004 263.161 196.832 264.438C195.634 265.688 194.033 266.312 192.027 266.312C189.996 266.312 188.395 265.688 187.223 264.438C186.077 263.188 185.504 261.469 185.504 259.281ZM200.215 266V253.969C200.215 253.578 200.345 253.253 200.605 252.992C200.892 252.706 201.23 252.562 201.621 252.562H205.488C207.546 252.562 209.082 253.109 210.098 254.203C211.113 255.349 211.621 257.042 211.621 259.281C211.621 260.479 211.439 261.56 211.074 262.523C210.658 263.513 210.111 264.268 209.434 264.789C208.861 265.232 208.249 265.544 207.598 265.727C206.973 265.909 206.022 266 204.746 266H200.215ZM202.91 263.578H205.137C206.413 263.578 207.35 263.24 207.949 262.562C208.522 261.938 208.809 260.844 208.809 259.281C208.809 257.771 208.535 256.664 207.988 255.961C207.467 255.258 206.634 254.906 205.488 254.906H202.91V263.578ZM213.168 266V253.969C213.168 253.578 213.298 253.253 213.559 252.992C213.845 252.706 214.184 252.562 214.574 252.562H222.934V254.867H215.902V257.758H221.137V258.656C221.137 259.047 220.993 259.385 220.707 259.672C220.447 259.932 220.121 260.062 219.73 260.062H215.902V263.5H222.934V266H213.168ZM224.402 266V253.969C224.402 253.578 224.533 253.253 224.793 252.992C225.079 252.706 225.418 252.562 225.809 252.562H227.176V263.5H233.738V266H224.402ZM235.168 266V253.969C235.168 253.578 235.298 253.253 235.559 252.992C235.845 252.706 236.184 252.562 236.574 252.562H237.941V266H235.168ZM239.059 266V253.969C239.059 253.578 239.189 253.253 239.449 252.992C239.736 252.706 240.074 252.549 240.465 252.523H241.949L247.418 261.781V252.523H250.152V266H247.301L241.793 256.742V266H239.059ZM261.66 264.398C261.191 265.076 260.632 265.57 259.98 265.883C259.303 266.169 258.561 266.312 257.754 266.312C255.827 266.312 254.303 265.674 253.184 264.398C252.038 263.148 251.465 261.43 251.465 259.242C251.465 257.081 252.025 255.375 253.145 254.125C254.316 252.823 255.866 252.172 257.793 252.172C259.46 252.172 260.84 252.576 261.934 253.383C263.001 254.242 263.639 255.362 263.848 256.742H261.973C261.426 256.742 261.022 256.495 260.762 256C260.579 255.688 260.319 255.401 259.98 255.141C259.46 254.776 258.77 254.594 257.91 254.594C256.79 254.594 255.905 254.997 255.254 255.805C254.603 256.664 254.277 257.81 254.277 259.242C254.277 260.701 254.616 261.846 255.293 262.68C255.944 263.487 256.868 263.891 258.066 263.891C258.952 263.891 259.681 263.643 260.254 263.148C260.827 262.628 261.191 261.911 261.348 261H259.707C259.316 261 258.978 260.87 258.691 260.609C258.431 260.323 258.301 259.984 258.301 259.594V258.695H263.887V266H263.145C262.415 266 261.96 265.635 261.777 264.906L261.66 264.398Z" fill="#0D6EB7"/>
<g clip-path="url(#clip0_14895_1958)">
<path d="M221.993 136.624C220.41 135.74 218.411 136.291 217.52 137.861C216.626 139.438 217.18 141.44 218.757 142.334C226.149 146.523 230.438 151.675 230.438 156.844C230.438 165.825 218.091 174.314 200.037 177.97C198.259 178.332 197.112 180.062 197.471 181.838C197.836 183.63 199.59 184.764 201.338 184.404C222.868 180.043 237 169.225 237 156.844C237 149.208 231.529 142.027 221.993 136.624Z" fill="#06B25F"/>
<path d="M164.594 185.088V196.219C164.594 197.43 165.26 198.542 166.327 199.112C167.38 199.677 168.678 199.627 169.695 198.949L189.383 185.824C190.296 185.215 190.844 184.19 190.844 183.094C190.844 181.998 190.296 180.973 189.383 180.364L169.695 167.239C168.686 166.572 167.388 166.502 166.327 167.075C165.26 167.646 164.594 168.757 164.594 169.969V178.373C145.409 175.086 131.562 166.357 131.562 156.844C131.562 151.675 135.851 146.522 143.243 142.334C144.82 141.44 145.374 139.438 144.48 137.861C143.589 136.291 141.593 135.74 140.007 136.624C130.471 142.027 125 149.208 125 156.844C125 170.211 140.932 181.358 164.594 185.088Z" fill="#06B25F"/>
<path d="M207.25 107.237L182.467 94.846C181.544 94.3847 180.455 94.3847 179.532 94.846L154.749 107.238L181 120.362L207.25 107.237Z" fill="#276ED8"/>
<path d="M210.531 143.719V112.935L184.281 126.06C184.281 126.734 184.281 159.546 184.281 158.872L208.718 146.654C209.83 146.096 210.531 144.962 210.531 143.719Z" fill="#276ED8"/>
<path d="M151.469 143.719C151.469 144.962 152.171 146.096 153.282 146.654L177.719 158.872C177.719 156.569 177.719 125.386 177.719 126.06L151.469 112.936V143.719Z" fill="#276ED8"/>
</g>
<defs>
<filter id="filter0_d_14895_1958" x="0" y="0" width="362" height="360" filterUnits="userSpaceOnUse" color-interpolation-filters="sRGB">
<feFlood flood-opacity="0" result="BackgroundImageFix"/>
<feColorMatrix in="SourceAlpha" type="matrix" values="0 0 0 0 0 0 0 0 0 0 0 0 0 0 0 0 0 0 127 0" result="hardAlpha"/>
<feMorphology radius="4" operator="dilate" in="SourceAlpha" result="effect1_dropShadow_14895_1958"/>
<feOffset dy="3"/>
<feGaussianBlur stdDeviation="8"/>
<feColorMatrix type="matrix" values="0 0 0 0 0.113976 0 0 0 0 0.199896 0 0 0 0 0.420833 0 0 0 0.1 0"/>
<feBlend mode="normal" in2="BackgroundImageFix" result="effect1_dropShadow_14895_1958"/>
<feBlend mode="normal" in="SourceGraphic" in2="effect1_dropShadow_14895_1958" result="shape"/>
</filter>
<clipPath id="clip0_14895_1958">
<rect width="112" height="112" fill="white" transform="translate(125 91)"/>
</clipPath>
</defs>
</svg>
