<svg width="362" height="360" viewBox="0 0 362 360" fill="none" xmlns="http://www.w3.org/2000/svg">
<g filter="url(#filter0_d_14895_1994)">
<rect x="20" y="17" width="322" height="320" rx="16" fill="#F4F8FD"/>
</g>
<path d="M82.2148 266V253.969C82.2148 253.578 82.3451 253.253 82.6055 252.992C82.8919 252.706 83.2305 252.549 83.6211 252.523H86.3164L88.9727 262.797L91.6289 252.523H95.7305V266H93.1523V255.141L90.418 266H87.5664L84.793 255.141V266H82.2148ZM99.9336 259.281C99.9336 260.792 100.259 261.938 100.91 262.719C101.561 263.526 102.486 263.93 103.684 263.93C104.855 263.93 105.78 263.526 106.457 262.719C107.134 261.885 107.473 260.74 107.473 259.281C107.473 257.823 107.134 256.664 106.457 255.805C105.78 254.997 104.855 254.594 103.684 254.594C102.486 254.594 101.561 254.997 100.91 255.805C100.259 256.612 99.9336 257.771 99.9336 259.281ZM97.1602 259.281C97.1602 257.094 97.7331 255.362 98.8789 254.086C100.103 252.81 101.704 252.172 103.684 252.172C105.637 252.172 107.238 252.81 108.488 254.086C109.66 255.388 110.246 257.12 110.246 259.281C110.246 261.443 109.66 263.161 108.488 264.438C107.29 265.688 105.689 266.312 103.684 266.312C101.652 266.312 100.051 265.688 98.8789 264.438C97.7331 263.188 97.1602 261.469 97.1602 259.281ZM111.871 266V253.969C111.871 253.578 112.001 253.253 112.262 252.992C112.548 252.706 112.887 252.562 113.277 252.562H118.199C119.579 252.562 120.634 252.849 121.363 253.422C122.092 254.047 122.457 254.893 122.457 255.961C122.457 256.638 122.314 257.211 122.027 257.68C121.741 258.122 121.337 258.474 120.816 258.734C121.493 259.021 122.014 259.424 122.379 259.945C122.717 260.44 122.887 261.091 122.887 261.898C122.887 263.201 122.47 264.216 121.637 264.945C120.777 265.648 119.566 266 118.004 266H111.871ZM114.527 257.758H117.691C118.368 257.758 118.863 257.641 119.176 257.406C119.488 257.172 119.645 256.807 119.645 256.312C119.645 255.818 119.488 255.453 119.176 255.219C118.915 255.01 118.408 254.906 117.652 254.906H114.527V257.758ZM114.527 263.578H117.809C118.538 263.578 119.098 263.435 119.488 263.148C119.853 262.888 120.035 262.445 120.035 261.82C120.035 261.195 119.853 260.74 119.488 260.453C119.15 260.193 118.577 260.062 117.77 260.062H114.527V263.578ZM124.434 266V253.969C124.434 253.578 124.564 253.253 124.824 252.992C125.111 252.706 125.449 252.562 125.84 252.562H127.207V266H124.434ZM128.324 266V253.969C128.324 253.578 128.454 253.253 128.715 252.992C129.001 252.706 129.34 252.562 129.73 252.562H131.098V263.5H137.66V266H128.324ZM139.09 266V253.969C139.09 253.578 139.22 253.253 139.48 252.992C139.767 252.706 140.105 252.562 140.496 252.562H148.855V254.867H141.824V257.758H147.059V258.656C147.059 259.047 146.915 259.385 146.629 259.672C146.368 259.932 146.043 260.062 145.652 260.062H141.824V263.5H148.855V266H139.09ZM161.598 252.562H163.785L168.668 266H165.738L164.84 263.227H159.605L158.746 266H155.816L160.27 253.461C160.504 252.862 160.947 252.562 161.598 252.562ZM162.223 255.258L160.348 260.961H164.098L162.223 255.258ZM173.066 261.195V266H170.293V253.969C170.293 253.578 170.423 253.253 170.684 252.992C170.97 252.706 171.309 252.562 171.699 252.562H176.27C177.702 252.562 178.77 252.927 179.473 253.656C180.202 254.385 180.566 255.466 180.566 256.898C180.566 258.253 180.215 259.32 179.512 260.102C178.809 260.831 177.793 261.195 176.465 261.195H173.066ZM173.066 258.773H175.762C176.491 258.773 177.012 258.617 177.324 258.305C177.663 258.018 177.832 257.523 177.832 256.82C177.832 256.221 177.676 255.74 177.363 255.375C176.999 255.062 176.517 254.906 175.918 254.906H173.066V258.773ZM184.848 261.195V266H182.074V253.969C182.074 253.578 182.204 253.253 182.465 252.992C182.751 252.706 183.09 252.562 183.48 252.562H188.051C189.483 252.562 190.551 252.927 191.254 253.656C191.983 254.385 192.348 255.466 192.348 256.898C192.348 258.253 191.996 259.32 191.293 260.102C190.59 260.831 189.574 261.195 188.246 261.195H184.848ZM184.848 258.773H187.543C188.272 258.773 188.793 258.617 189.105 258.305C189.444 258.018 189.613 257.523 189.613 256.82C189.613 256.221 189.457 255.74 189.145 255.375C188.78 255.062 188.298 254.906 187.699 254.906H184.848V258.773ZM193.855 266V253.969C193.855 253.578 193.986 253.253 194.246 252.992C194.533 252.706 194.871 252.562 195.262 252.562H196.629V263.5H203.191V266H193.855ZM204.621 266V253.969C204.621 253.578 204.751 253.253 205.012 252.992C205.298 252.706 205.637 252.562 206.027 252.562H207.395V266H204.621ZM220.504 261.352C220.374 262.914 219.788 264.138 218.746 265.023C217.678 265.883 216.272 266.312 214.527 266.312C212.496 266.312 210.947 265.701 209.879 264.477C208.811 263.305 208.277 261.573 208.277 259.281C208.277 256.938 208.824 255.18 209.918 254.008C211.038 252.784 212.652 252.172 214.762 252.172C216.48 252.172 217.848 252.602 218.863 253.461C219.827 254.294 220.374 255.466 220.504 256.977H218.824C218.199 256.977 217.757 256.703 217.496 256.156C217.314 255.818 217.092 255.518 216.832 255.258C216.311 254.867 215.621 254.672 214.762 254.672C213.564 254.672 212.639 255.062 211.988 255.844C211.363 256.625 211.051 257.771 211.051 259.281C211.051 260.74 211.363 261.859 211.988 262.641C212.587 263.448 213.486 263.852 214.684 263.852C215.517 263.852 216.207 263.643 216.754 263.227C217.249 262.836 217.6 262.211 217.809 261.352H220.504ZM227.871 252.562H230.059L234.941 266H232.012L231.113 263.227H225.879L225.02 266H222.09L226.543 253.461C226.777 252.862 227.22 252.562 227.871 252.562ZM228.496 255.258L226.621 260.961H230.371L228.496 255.258ZM240.551 266V254.945H236.566V253.969C236.566 253.578 236.697 253.253 236.957 252.992C237.243 252.706 237.582 252.562 237.973 252.562H247.27V254.945H243.324V266H240.551ZM248.777 266V253.969C248.777 253.578 248.908 253.253 249.168 252.992C249.454 252.706 249.793 252.562 250.184 252.562H251.551V266H248.777ZM255.207 259.281C255.207 260.792 255.533 261.938 256.184 262.719C256.835 263.526 257.759 263.93 258.957 263.93C260.129 263.93 261.053 263.526 261.73 262.719C262.408 261.885 262.746 260.74 262.746 259.281C262.746 257.823 262.408 256.664 261.73 255.805C261.053 254.997 260.129 254.594 258.957 254.594C257.759 254.594 256.835 254.997 256.184 255.805C255.533 256.612 255.207 257.771 255.207 259.281ZM252.434 259.281C252.434 257.094 253.007 255.362 254.152 254.086C255.376 252.81 256.978 252.172 258.957 252.172C260.91 252.172 262.512 252.81 263.762 254.086C264.934 255.388 265.52 257.12 265.52 259.281C265.52 261.443 264.934 263.161 263.762 264.438C262.564 265.688 260.962 266.312 258.957 266.312C256.926 266.312 255.324 265.688 254.152 264.438C253.007 263.188 252.434 261.469 252.434 259.281ZM267.145 266V253.969C267.145 253.578 267.275 253.253 267.535 252.992C267.822 252.706 268.16 252.549 268.551 252.523H270.035L275.504 261.781V252.523H278.238V266H275.387L269.879 256.742V266H267.145ZM112.914 296V283.969C112.914 283.578 113.044 283.253 113.305 282.992C113.591 282.706 113.93 282.562 114.32 282.562H118.188C120.245 282.562 121.781 283.109 122.797 284.203C123.812 285.349 124.32 287.042 124.32 289.281C124.32 290.479 124.138 291.56 123.773 292.523C123.357 293.513 122.81 294.268 122.133 294.789C121.56 295.232 120.948 295.544 120.297 295.727C119.672 295.909 118.721 296 117.445 296H112.914ZM115.609 293.578H117.836C119.112 293.578 120.049 293.24 120.648 292.562C121.221 291.938 121.508 290.844 121.508 289.281C121.508 287.771 121.234 286.664 120.688 285.961C120.167 285.258 119.333 284.906 118.188 284.906H115.609V293.578ZM125.867 296V283.969C125.867 283.578 125.997 283.253 126.258 282.992C126.544 282.706 126.883 282.562 127.273 282.562H135.633V284.867H128.602V287.758H133.836V288.656C133.836 289.047 133.693 289.385 133.406 289.672C133.146 289.932 132.82 290.062 132.43 290.062H128.602V293.5H135.633V296H125.867ZM141.75 296L137.102 282.562H140.188L143.039 292.602L145.656 283.578C145.812 282.901 146.255 282.562 146.984 282.562H148.977L144.406 296H141.75ZM150.562 296V283.969C150.562 283.578 150.693 283.253 150.953 282.992C151.24 282.706 151.578 282.562 151.969 282.562H160.328V284.867H153.297V287.758H158.531V288.656C158.531 289.047 158.388 289.385 158.102 289.672C157.841 289.932 157.516 290.062 157.125 290.062H153.297V293.5H160.328V296H150.562ZM161.797 296V283.969C161.797 283.578 161.927 283.253 162.188 282.992C162.474 282.706 162.812 282.562 163.203 282.562H164.57V293.5H171.133V296H161.797ZM175.102 289.281C175.102 290.792 175.427 291.938 176.078 292.719C176.729 293.526 177.654 293.93 178.852 293.93C180.023 293.93 180.948 293.526 181.625 292.719C182.302 291.885 182.641 290.74 182.641 289.281C182.641 287.823 182.302 286.664 181.625 285.805C180.948 284.997 180.023 284.594 178.852 284.594C177.654 284.594 176.729 284.997 176.078 285.805C175.427 286.612 175.102 287.771 175.102 289.281ZM172.328 289.281C172.328 287.094 172.901 285.362 174.047 284.086C175.271 282.81 176.872 282.172 178.852 282.172C180.805 282.172 182.406 282.81 183.656 284.086C184.828 285.388 185.414 287.12 185.414 289.281C185.414 291.443 184.828 293.161 183.656 294.438C182.458 295.688 180.857 296.312 178.852 296.312C176.82 296.312 175.219 295.688 174.047 294.438C172.901 293.188 172.328 291.469 172.328 289.281ZM189.812 291.195V296H187.039V283.969C187.039 283.578 187.169 283.253 187.43 282.992C187.716 282.706 188.055 282.562 188.445 282.562H193.016C194.448 282.562 195.516 282.927 196.219 283.656C196.948 284.385 197.312 285.466 197.312 286.898C197.312 288.253 196.961 289.32 196.258 290.102C195.555 290.831 194.539 291.195 193.211 291.195H189.812ZM189.812 288.773H192.508C193.237 288.773 193.758 288.617 194.07 288.305C194.409 288.018 194.578 287.523 194.578 286.82C194.578 286.221 194.422 285.74 194.109 285.375C193.745 285.062 193.263 284.906 192.664 284.906H189.812V288.773ZM198.82 296V283.969C198.82 283.578 198.951 283.253 199.211 282.992C199.497 282.706 199.836 282.549 200.227 282.523H202.922L205.578 292.797L208.234 282.523H212.336V296H209.758V285.141L207.023 296H204.172L201.398 285.141V296H198.82ZM214 296V283.969C214 283.578 214.13 283.253 214.391 282.992C214.677 282.706 215.016 282.562 215.406 282.562H223.766V284.867H216.734V287.758H221.969V288.656C221.969 289.047 221.826 289.385 221.539 289.672C221.279 289.932 220.953 290.062 220.562 290.062H216.734V293.5H223.766V296H214ZM225.234 296V283.969C225.234 283.578 225.365 283.253 225.625 282.992C225.911 282.706 226.25 282.549 226.641 282.523H228.125L233.594 291.781V282.523H236.328V296H233.477L227.969 286.742V296H225.234ZM241.859 296V284.945H237.875V283.969C237.875 283.578 238.005 283.253 238.266 282.992C238.552 282.706 238.891 282.562 239.281 282.562H248.578V284.945H244.633V296H241.859Z" fill="#0D6EB7"/>
<path d="M207.877 84H155.125C151.196 84 148 87.244 148 91.23V96H215V91.23C215 87.244 211.804 84 207.877 84ZM191.354 93.2299H171.649C170.561 93.2299 169.679 92.3339 169.679 91.23C169.679 90.1261 170.561 89.2301 171.649 89.2301H191.354C192.441 89.2301 193.324 90.1261 193.324 91.23C193.324 92.3339 192.441 93.2299 191.354 93.2299Z" fill="#276ED8"/>
<path d="M182.88 185.583H178.121C177.32 185.583 176.666 186.235 176.666 187.038V187.964C176.666 188.765 177.318 189.417 178.121 189.417H182.88C183.681 189.417 184.333 188.765 184.333 187.964V187.038C184.335 186.235 183.681 185.583 182.88 185.583Z" fill="#276ED8"/>
<path d="M215 99H148V176H215V99Z" fill="#276ED8"/>
<path d="M196.075 140.596L201 139.669V135.254L196.075 134.404C195.697 132.59 194.979 130.892 193.99 129.387L196.816 125.241L193.689 122.115L189.606 125.002C188.1 124.014 186.41 123.303 184.588 122.925L183.662 118H179.246L178.397 122.925C176.583 123.303 174.884 124.021 173.379 125.01L169.241 122.184L166.115 125.311L169.002 129.394C168.014 130.9 167.303 132.598 166.925 134.412L162 135.338V139.754L166.925 140.603C167.303 142.425 168.021 144.116 169.01 145.621L166.184 149.759L169.311 152.885L173.402 149.998C174.907 150.986 176.606 151.704 178.42 152.075L179.346 157H183.762L184.611 152.075C186.433 151.697 188.124 150.979 189.629 149.99L193.767 152.816L196.893 149.689L194.006 145.606C194.986 144.108 195.697 142.417 196.075 140.596ZM181.5 146.648C176.451 146.648 172.36 142.549 172.36 137.508C172.36 132.467 176.451 128.368 181.5 128.368C186.549 128.368 190.64 132.459 190.64 137.508C190.64 142.556 186.549 146.648 181.5 146.648Z" fill="#66D6A0"/>
<path d="M148 180V192.131C148 195.918 151.196 199 155.123 199H207.877C211.804 199 215 195.918 215 192.131V180H148Z" fill="#276ED8"/>
<defs>
<filter id="filter0_d_14895_1994" x="0" y="0" width="362" height="360" filterUnits="userSpaceOnUse" color-interpolation-filters="sRGB">
<feFlood flood-opacity="0" result="BackgroundImageFix"/>
<feColorMatrix in="SourceAlpha" type="matrix" values="0 0 0 0 0 0 0 0 0 0 0 0 0 0 0 0 0 0 127 0" result="hardAlpha"/>
<feMorphology radius="4" operator="dilate" in="SourceAlpha" result="effect1_dropShadow_14895_1994"/>
<feOffset dy="3"/>
<feGaussianBlur stdDeviation="8"/>
<feColorMatrix type="matrix" values="0 0 0 0 0.113976 0 0 0 0 0.199896 0 0 0 0 0.420833 0 0 0 0.1 0"/>
<feBlend mode="normal" in2="BackgroundImageFix" result="effect1_dropShadow_14895_1994"/>
<feBlend mode="normal" in="SourceGraphic" in2="effect1_dropShadow_14895_1994" result="shape"/>
</filter>
</defs>
</svg>
