<svg width="362" height="360" viewBox="0 0 362 360" fill="none" xmlns="http://www.w3.org/2000/svg">
<g filter="url(#filter0_d_14895_1939)">
<rect x="20" y="17" width="322" height="320" rx="16" fill="#F4F8FD"/>
</g>
<path d="M202.93 124.729H187.479V140.092H158.947V124.729H143.49C137.565 124.729 132.618 128.987 131.542 134.603V168.354C132.618 173.97 137.565 178.227 143.49 178.227H151.513L154.703 160.044H191.723L194.913 178.227H202.93C208.855 178.227 213.802 173.97 214.878 168.354V134.603C213.803 128.987 208.855 124.729 202.93 124.729Z" fill="#276ED8"/>
<path d="M165.532 112H180.896V133.508H165.532V112Z" fill="#06B25F"/>
<path d="M117 135.117H124.959V167.839H117V135.117Z" fill="#276ED8"/>
<path d="M221.464 135.117H229.421V167.839H221.464V135.117Z" fill="#276ED8"/>
<path d="M160.236 166.627L158.2 178.227H188.231L186.195 166.627H160.236Z" fill="#06B25F"/>
<path d="M80 268L75.3516 254.562H78.4375L81.2891 264.602L83.9062 255.578C84.0625 254.901 84.5052 254.562 85.2344 254.562H87.2266L82.6562 268H80ZM88.8125 268V255.969C88.8125 255.578 88.9427 255.253 89.2031 254.992C89.4896 254.706 89.8281 254.562 90.2188 254.562H95.3359C96.7943 254.562 97.875 254.875 98.5781 255.5C99.3073 256.151 99.6719 257.102 99.6719 258.352C99.6719 259.185 99.4896 259.875 99.125 260.422C98.8125 260.943 98.3177 261.32 97.6406 261.555C98.2396 261.763 98.6562 262.076 98.8906 262.492C99.125 262.883 99.2682 263.547 99.3203 264.484L99.3984 266.086C99.3984 266.242 99.3984 266.411 99.3984 266.594C99.3984 266.776 99.4115 266.945 99.4375 267.102C99.5156 267.57 99.6719 267.87 99.9062 268H96.8594C96.7292 267.74 96.651 267.466 96.625 267.18C96.5729 266.763 96.5469 266.477 96.5469 266.32L96.5078 264.875C96.4557 264.094 96.2995 263.534 96.0391 263.195C95.7526 262.909 95.2448 262.766 94.5156 262.766H91.5859V268H88.8125ZM91.5859 260.422H94.8281C95.5312 260.422 96.0521 260.279 96.3906 259.992C96.7292 259.706 96.8984 259.263 96.8984 258.664C96.8984 258.065 96.7292 257.622 96.3906 257.336C96.0781 257.023 95.6094 256.867 94.9844 256.867H91.5859V260.422ZM112.727 254.562H114.914L119.797 268H116.867L115.969 265.227H110.734L109.875 268H106.945L111.398 255.461C111.633 254.862 112.076 254.562 112.727 254.562ZM113.352 257.258L111.477 262.961H115.227L113.352 257.258ZM124.195 263.195V268H121.422V255.969C121.422 255.578 121.552 255.253 121.812 254.992C122.099 254.706 122.438 254.562 122.828 254.562H127.398C128.831 254.562 129.898 254.927 130.602 255.656C131.331 256.385 131.695 257.466 131.695 258.898C131.695 260.253 131.344 261.32 130.641 262.102C129.938 262.831 128.922 263.195 127.594 263.195H124.195ZM124.195 260.773H126.891C127.62 260.773 128.141 260.617 128.453 260.305C128.792 260.018 128.961 259.523 128.961 258.82C128.961 258.221 128.805 257.74 128.492 257.375C128.128 257.062 127.646 256.906 127.047 256.906H124.195V260.773ZM135.977 263.195V268H133.203V255.969C133.203 255.578 133.333 255.253 133.594 254.992C133.88 254.706 134.219 254.562 134.609 254.562H139.18C140.612 254.562 141.68 254.927 142.383 255.656C143.112 256.385 143.477 257.466 143.477 258.898C143.477 260.253 143.125 261.32 142.422 262.102C141.719 262.831 140.703 263.195 139.375 263.195H135.977ZM135.977 260.773H138.672C139.401 260.773 139.922 260.617 140.234 260.305C140.573 260.018 140.742 259.523 140.742 258.82C140.742 258.221 140.586 257.74 140.273 257.375C139.909 257.062 139.427 256.906 138.828 256.906H135.977V260.773ZM150.477 268V255.969C150.477 255.578 150.607 255.253 150.867 254.992C151.154 254.706 151.492 254.562 151.883 254.562H155.75C157.807 254.562 159.344 255.109 160.359 256.203C161.375 257.349 161.883 259.042 161.883 261.281C161.883 262.479 161.701 263.56 161.336 264.523C160.919 265.513 160.372 266.268 159.695 266.789C159.122 267.232 158.51 267.544 157.859 267.727C157.234 267.909 156.284 268 155.008 268H150.477ZM153.172 265.578H155.398C156.674 265.578 157.612 265.24 158.211 264.562C158.784 263.938 159.07 262.844 159.07 261.281C159.07 259.771 158.797 258.664 158.25 257.961C157.729 257.258 156.896 256.906 155.75 256.906H153.172V265.578ZM163.43 268V255.969C163.43 255.578 163.56 255.253 163.82 254.992C164.107 254.706 164.445 254.562 164.836 254.562H173.195V256.867H166.164V259.758H171.398V260.656C171.398 261.047 171.255 261.385 170.969 261.672C170.708 261.932 170.383 262.062 169.992 262.062H166.164V265.5H173.195V268H163.43ZM179.312 268L174.664 254.562H177.75L180.602 264.602L183.219 255.578C183.375 254.901 183.818 254.562 184.547 254.562H186.539L181.969 268H179.312ZM188.125 268V255.969C188.125 255.578 188.255 255.253 188.516 254.992C188.802 254.706 189.141 254.562 189.531 254.562H197.891V256.867H190.859V259.758H196.094V260.656C196.094 261.047 195.951 261.385 195.664 261.672C195.404 261.932 195.078 262.062 194.688 262.062H190.859V265.5H197.891V268H188.125ZM199.359 268V255.969C199.359 255.578 199.49 255.253 199.75 254.992C200.036 254.706 200.375 254.562 200.766 254.562H202.133V265.5H208.695V268H199.359ZM212.664 261.281C212.664 262.792 212.99 263.938 213.641 264.719C214.292 265.526 215.216 265.93 216.414 265.93C217.586 265.93 218.51 265.526 219.188 264.719C219.865 263.885 220.203 262.74 220.203 261.281C220.203 259.823 219.865 258.664 219.188 257.805C218.51 256.997 217.586 256.594 216.414 256.594C215.216 256.594 214.292 256.997 213.641 257.805C212.99 258.612 212.664 259.771 212.664 261.281ZM209.891 261.281C209.891 259.094 210.464 257.362 211.609 256.086C212.833 254.81 214.435 254.172 216.414 254.172C218.367 254.172 219.969 254.81 221.219 256.086C222.391 257.388 222.977 259.12 222.977 261.281C222.977 263.443 222.391 265.161 221.219 266.438C220.021 267.688 218.419 268.312 216.414 268.312C214.383 268.312 212.781 267.688 211.609 266.438C210.464 265.188 209.891 263.469 209.891 261.281ZM227.375 263.195V268H224.602V255.969C224.602 255.578 224.732 255.253 224.992 254.992C225.279 254.706 225.617 254.562 226.008 254.562H230.578C232.01 254.562 233.078 254.927 233.781 255.656C234.51 256.385 234.875 257.466 234.875 258.898C234.875 260.253 234.523 261.32 233.82 262.102C233.117 262.831 232.102 263.195 230.773 263.195H227.375ZM227.375 260.773H230.07C230.799 260.773 231.32 260.617 231.633 260.305C231.971 260.018 232.141 259.523 232.141 258.82C232.141 258.221 231.984 257.74 231.672 257.375C231.307 257.062 230.826 256.906 230.227 256.906H227.375V260.773ZM236.383 268V255.969C236.383 255.578 236.513 255.253 236.773 254.992C237.06 254.706 237.398 254.549 237.789 254.523H240.484L243.141 264.797L245.797 254.523H249.898V268H247.32V257.141L244.586 268H241.734L238.961 257.141V268H236.383ZM251.562 268V255.969C251.562 255.578 251.693 255.253 251.953 254.992C252.24 254.706 252.578 254.562 252.969 254.562H261.328V256.867H254.297V259.758H259.531V260.656C259.531 261.047 259.388 261.385 259.102 261.672C258.841 261.932 258.516 262.062 258.125 262.062H254.297V265.5H261.328V268H251.562ZM262.797 268V255.969C262.797 255.578 262.927 255.253 263.188 254.992C263.474 254.706 263.812 254.549 264.203 254.523H265.688L271.156 263.781V254.523H273.891V268H271.039L265.531 258.742V268H262.797ZM279.422 268V256.945H275.438V255.969C275.438 255.578 275.568 255.253 275.828 254.992C276.115 254.706 276.453 254.562 276.844 254.562H286.141V256.945H282.195V268H279.422Z" fill="#0D6EB7"/>
<defs>
<filter id="filter0_d_14895_1939" x="0" y="0" width="362" height="360" filterUnits="userSpaceOnUse" color-interpolation-filters="sRGB">
<feFlood flood-opacity="0" result="BackgroundImageFix"/>
<feColorMatrix in="SourceAlpha" type="matrix" values="0 0 0 0 0 0 0 0 0 0 0 0 0 0 0 0 0 0 127 0" result="hardAlpha"/>
<feMorphology radius="4" operator="dilate" in="SourceAlpha" result="effect1_dropShadow_14895_1939"/>
<feOffset dy="3"/>
<feGaussianBlur stdDeviation="8"/>
<feColorMatrix type="matrix" values="0 0 0 0 0.113976 0 0 0 0 0.199896 0 0 0 0 0.420833 0 0 0 0.1 0"/>
<feBlend mode="normal" in2="BackgroundImageFix" result="effect1_dropShadow_14895_1939"/>
<feBlend mode="normal" in="SourceGraphic" in2="effect1_dropShadow_14895_1939" result="shape"/>
</filter>
</defs>
</svg>
