<svg width="374" height="372" viewBox="0 0 374 372" fill="none" xmlns="http://www.w3.org/2000/svg">
<g filter="url(#filter0_d_14895_1968)">
<rect x="26" y="23" width="322" height="320" rx="16" fill="white"/>
</g>
<path d="M70.8789 272V259.969C70.8789 259.578 71.0091 259.253 71.2695 258.992C71.556 258.706 71.8945 258.562 72.2852 258.562H76.1523C78.2096 258.562 79.7461 259.109 80.7617 260.203C81.7773 261.349 82.2852 263.042 82.2852 265.281C82.2852 266.479 82.1029 267.56 81.7383 268.523C81.3216 269.513 80.7747 270.268 80.0977 270.789C79.5247 271.232 78.9128 271.544 78.2617 271.727C77.6367 271.909 76.6862 272 75.4102 272H70.8789ZM73.5742 269.578H75.8008C77.0768 269.578 78.0143 269.24 78.6133 268.562C79.1862 267.938 79.4727 266.844 79.4727 265.281C79.4727 263.771 79.1992 262.664 78.6523 261.961C78.1315 261.258 77.2982 260.906 76.1523 260.906H73.5742V269.578ZM83.832 272V259.969C83.832 259.578 83.9622 259.253 84.2227 258.992C84.5091 258.706 84.8477 258.562 85.2383 258.562H93.5977V260.867H86.5664V263.758H91.8008V264.656C91.8008 265.047 91.6576 265.385 91.3711 265.672C91.1107 265.932 90.7852 266.062 90.3945 266.062H86.5664V269.5H93.5977V272H83.832ZM95.0664 272V259.969C95.0664 259.578 95.1966 259.253 95.457 258.992C95.7435 258.706 96.082 258.562 96.4727 258.562H100.34C102.397 258.562 103.934 259.109 104.949 260.203C105.965 261.349 106.473 263.042 106.473 265.281C106.473 266.479 106.29 267.56 105.926 268.523C105.509 269.513 104.962 270.268 104.285 270.789C103.712 271.232 103.1 271.544 102.449 271.727C101.824 271.909 100.874 272 99.5977 272H95.0664ZM97.7617 269.578H99.9883C101.264 269.578 102.202 269.24 102.801 268.562C103.374 267.938 103.66 266.844 103.66 265.281C103.66 263.771 103.387 262.664 102.84 261.961C102.319 261.258 101.486 260.906 100.34 260.906H97.7617V269.578ZM108.02 272V259.969C108.02 259.578 108.15 259.253 108.41 258.992C108.697 258.706 109.035 258.562 109.426 258.562H110.793V272H108.02ZM123.902 267.352C123.772 268.914 123.186 270.138 122.145 271.023C121.077 271.883 119.671 272.312 117.926 272.312C115.895 272.312 114.345 271.701 113.277 270.477C112.21 269.305 111.676 267.573 111.676 265.281C111.676 262.938 112.223 261.18 113.316 260.008C114.436 258.784 116.051 258.172 118.16 258.172C119.879 258.172 121.246 258.602 122.262 259.461C123.225 260.294 123.772 261.466 123.902 262.977H122.223C121.598 262.977 121.155 262.703 120.895 262.156C120.712 261.818 120.491 261.518 120.23 261.258C119.71 260.867 119.02 260.672 118.16 260.672C116.962 260.672 116.038 261.062 115.387 261.844C114.762 262.625 114.449 263.771 114.449 265.281C114.449 266.74 114.762 267.859 115.387 268.641C115.986 269.448 116.884 269.852 118.082 269.852C118.915 269.852 119.605 269.643 120.152 269.227C120.647 268.836 120.999 268.211 121.207 267.352H123.902ZM131.27 258.562H133.457L138.34 272H135.41L134.512 269.227H129.277L128.418 272H125.488L129.941 259.461C130.176 258.862 130.618 258.562 131.27 258.562ZM131.895 261.258L130.02 266.961H133.77L131.895 261.258ZM143.949 272V260.945H139.965V259.969C139.965 259.578 140.095 259.253 140.355 258.992C140.642 258.706 140.98 258.562 141.371 258.562H150.668V260.945H146.723V272H143.949ZM152.176 272V259.969C152.176 259.578 152.306 259.253 152.566 258.992C152.853 258.706 153.191 258.562 153.582 258.562H161.941V260.867H154.91V263.758H160.145V264.656C160.145 265.047 160.001 265.385 159.715 265.672C159.454 265.932 159.129 266.062 158.738 266.062H154.91V269.5H161.941V272H152.176ZM163.41 272V259.969C163.41 259.578 163.54 259.253 163.801 258.992C164.087 258.706 164.426 258.562 164.816 258.562H168.684C170.741 258.562 172.277 259.109 173.293 260.203C174.309 261.349 174.816 263.042 174.816 265.281C174.816 266.479 174.634 267.56 174.27 268.523C173.853 269.513 173.306 270.268 172.629 270.789C172.056 271.232 171.444 271.544 170.793 271.727C170.168 271.909 169.217 272 167.941 272H163.41ZM166.105 269.578H168.332C169.608 269.578 170.546 269.24 171.145 268.562C171.717 267.938 172.004 266.844 172.004 265.281C172.004 263.771 171.73 262.664 171.184 261.961C170.663 261.258 169.829 260.906 168.684 260.906H166.105V269.578ZM181.855 272V259.969C181.855 259.578 181.986 259.253 182.246 258.992C182.533 258.706 182.871 258.562 183.262 258.562H187.129C189.186 258.562 190.723 259.109 191.738 260.203C192.754 261.349 193.262 263.042 193.262 265.281C193.262 266.479 193.079 267.56 192.715 268.523C192.298 269.513 191.751 270.268 191.074 270.789C190.501 271.232 189.889 271.544 189.238 271.727C188.613 271.909 187.663 272 186.387 272H181.855ZM184.551 269.578H186.777C188.053 269.578 188.991 269.24 189.59 268.562C190.163 267.938 190.449 266.844 190.449 265.281C190.449 263.771 190.176 262.664 189.629 261.961C189.108 261.258 188.275 260.906 187.129 260.906H184.551V269.578ZM194.809 272V259.969C194.809 259.578 194.939 259.253 195.199 258.992C195.486 258.706 195.824 258.562 196.215 258.562H204.574V260.867H197.543V263.758H202.777V264.656C202.777 265.047 202.634 265.385 202.348 265.672C202.087 265.932 201.762 266.062 201.371 266.062H197.543V269.5H204.574V272H194.809ZM210.691 272L206.043 258.562H209.129L211.98 268.602L214.598 259.578C214.754 258.901 215.197 258.562 215.926 258.562H217.918L213.348 272H210.691ZM219.504 272V259.969C219.504 259.578 219.634 259.253 219.895 258.992C220.181 258.706 220.52 258.562 220.91 258.562H229.27V260.867H222.238V263.758H227.473V264.656C227.473 265.047 227.329 265.385 227.043 265.672C226.783 265.932 226.457 266.062 226.066 266.062H222.238V269.5H229.27V272H219.504ZM230.738 272V259.969C230.738 259.578 230.868 259.253 231.129 258.992C231.415 258.706 231.754 258.562 232.145 258.562H233.512V269.5H240.074V272H230.738ZM244.043 265.281C244.043 266.792 244.368 267.938 245.02 268.719C245.671 269.526 246.595 269.93 247.793 269.93C248.965 269.93 249.889 269.526 250.566 268.719C251.243 267.885 251.582 266.74 251.582 265.281C251.582 263.823 251.243 262.664 250.566 261.805C249.889 260.997 248.965 260.594 247.793 260.594C246.595 260.594 245.671 260.997 245.02 261.805C244.368 262.612 244.043 263.771 244.043 265.281ZM241.27 265.281C241.27 263.094 241.842 261.362 242.988 260.086C244.212 258.81 245.814 258.172 247.793 258.172C249.746 258.172 251.348 258.81 252.598 260.086C253.77 261.388 254.355 263.12 254.355 265.281C254.355 267.443 253.77 269.161 252.598 270.438C251.4 271.688 249.798 272.312 247.793 272.312C245.762 272.312 244.16 271.688 242.988 270.438C241.842 269.188 241.27 267.469 241.27 265.281ZM258.754 267.195V272H255.98V259.969C255.98 259.578 256.111 259.253 256.371 258.992C256.658 258.706 256.996 258.562 257.387 258.562H261.957C263.389 258.562 264.457 258.927 265.16 259.656C265.889 260.385 266.254 261.466 266.254 262.898C266.254 264.253 265.902 265.32 265.199 266.102C264.496 266.831 263.48 267.195 262.152 267.195H258.754ZM258.754 264.773H261.449C262.178 264.773 262.699 264.617 263.012 264.305C263.35 264.018 263.52 263.523 263.52 262.82C263.52 262.221 263.363 261.74 263.051 261.375C262.686 261.062 262.204 260.906 261.605 260.906H258.754V264.773ZM267.762 272V259.969C267.762 259.578 267.892 259.253 268.152 258.992C268.439 258.706 268.777 258.562 269.168 258.562H277.527V260.867H270.496V263.758H275.73V264.656C275.73 265.047 275.587 265.385 275.301 265.672C275.04 265.932 274.715 266.062 274.324 266.062H270.496V269.5H277.527V272H267.762ZM278.996 272V259.969C278.996 259.578 279.126 259.253 279.387 258.992C279.673 258.706 280.012 258.562 280.402 258.562H285.52C286.978 258.562 288.059 258.875 288.762 259.5C289.491 260.151 289.855 261.102 289.855 262.352C289.855 263.185 289.673 263.875 289.309 264.422C288.996 264.943 288.501 265.32 287.824 265.555C288.423 265.763 288.84 266.076 289.074 266.492C289.309 266.883 289.452 267.547 289.504 268.484L289.582 270.086C289.582 270.242 289.582 270.411 289.582 270.594C289.582 270.776 289.595 270.945 289.621 271.102C289.699 271.57 289.855 271.87 290.09 272H287.043C286.913 271.74 286.835 271.466 286.809 271.18C286.757 270.763 286.73 270.477 286.73 270.32L286.691 268.875C286.639 268.094 286.483 267.534 286.223 267.195C285.936 266.909 285.428 266.766 284.699 266.766H281.77V272H278.996ZM281.77 264.422H285.012C285.715 264.422 286.236 264.279 286.574 263.992C286.913 263.706 287.082 263.263 287.082 262.664C287.082 262.065 286.913 261.622 286.574 261.336C286.262 261.023 285.793 260.867 285.168 260.867H281.77V264.422ZM291.637 267.82H294.371C294.475 268.602 294.775 269.148 295.27 269.461C295.79 269.826 296.507 270.008 297.418 270.008C298.225 270.008 298.837 269.865 299.254 269.578C299.671 269.292 299.879 268.875 299.879 268.328C299.879 267.495 298.707 266.818 296.363 266.297L296.285 266.258C296.285 266.258 296.181 266.232 295.973 266.18C294.645 265.893 293.759 265.594 293.316 265.281C292.796 264.995 292.431 264.578 292.223 264.031C291.962 263.562 291.832 262.964 291.832 262.234C291.832 260.958 292.275 259.956 293.16 259.227C294.046 258.523 295.335 258.172 297.027 258.172C298.616 258.172 299.84 258.536 300.699 259.266C301.585 260.073 302.053 261.128 302.105 262.43H300.543C299.944 262.43 299.514 262.156 299.254 261.609C299.124 261.349 298.941 261.128 298.707 260.945C298.238 260.607 297.6 260.438 296.793 260.438C296.012 260.438 295.452 260.581 295.113 260.867C294.723 261.154 294.527 261.557 294.527 262.078C294.527 262.781 295.283 263.302 296.793 263.641C297.236 263.771 297.561 263.849 297.77 263.875C298.238 264.031 298.642 264.161 298.98 264.266C299.345 264.344 299.632 264.409 299.84 264.461C300.204 264.617 300.569 264.773 300.934 264.93C301.454 265.242 301.858 265.646 302.145 266.141C302.431 266.688 302.574 267.286 302.574 267.938C302.574 269.344 302.105 270.438 301.168 271.219C300.23 271.948 298.902 272.312 297.184 272.312C295.413 272.312 294.085 271.935 293.199 271.18C292.236 270.424 291.715 269.305 291.637 267.82Z" fill="#0D6EB7"/>
<g clip-path="url(#clip0_14895_1968)">
<path d="M185 89C172.134 89 161.667 99.4673 161.667 112.333C161.667 125.199 172.134 135.667 185 135.667C197.866 135.667 208.333 125.199 208.333 112.333C208.333 99.4673 197.866 89 185 89Z" fill="#276ED8"/>
<path d="M220.382 200.907C218.497 200.473 217.326 198.597 217.755 196.711L224.755 166.378C225.194 164.497 227.074 163.307 228.95 163.755C230.836 164.189 232.007 166.065 231.578 167.951L224.578 198.284C224.134 200.216 222.198 201.35 220.382 200.907Z" fill="#06B25F"/>
<path d="M239.834 196.333C238.877 196.333 237.925 195.941 237.23 195.176C235.937 193.734 236.054 191.527 237.491 190.229L246.269 182.333L237.491 174.437C236.054 173.145 235.937 170.933 237.23 169.491C238.527 168.053 240.739 167.941 242.176 169.229L253.843 179.729C254.58 180.397 255 181.339 255 182.333C255 183.327 254.58 184.27 253.843 184.937L242.176 195.437C241.504 196.039 240.669 196.333 239.834 196.333Z" fill="#06B25F"/>
<path d="M209.5 196.333C208.665 196.333 207.83 196.039 207.158 195.437L195.491 184.937C194.753 184.27 194.333 183.327 194.333 182.333C194.333 181.339 194.753 180.397 195.491 179.729L207.158 169.229C208.595 167.941 210.807 168.058 212.104 169.491C213.397 170.933 213.28 173.14 211.843 174.437L203.065 182.333L211.843 190.229C213.28 191.522 213.397 193.734 212.104 195.176C211.409 195.941 210.457 196.333 209.5 196.333Z" fill="#06B25F"/>
<path d="M186.167 182.333C186.167 178.712 187.711 175.235 190.399 172.809L202.08 162.295C204.451 160.167 207.493 159.005 210.662 159.005C213.289 159.005 215.828 159.835 217.961 161.305C219.547 158.202 222.31 155.906 225.609 154.903C221.629 148.939 214.853 145 207.167 145H165.167C152.945 145 143 154.945 143 167.167V185.833C143 187.765 144.568 189.333 146.5 189.333H188.304C186.951 187.261 186.167 184.844 186.167 182.333Z" fill="#276ED8"/>
</g>
<defs>
<filter id="filter0_d_14895_1968" x="0" y="0" width="374" height="372" filterUnits="userSpaceOnUse" color-interpolation-filters="sRGB">
<feFlood flood-opacity="0" result="BackgroundImageFix"/>
<feColorMatrix in="SourceAlpha" type="matrix" values="0 0 0 0 0 0 0 0 0 0 0 0 0 0 0 0 0 0 127 0" result="hardAlpha"/>
<feMorphology radius="6" operator="dilate" in="SourceAlpha" result="effect1_dropShadow_14895_1968"/>
<feOffset dy="3"/>
<feGaussianBlur stdDeviation="10"/>
<feColorMatrix type="matrix" values="0 0 0 0 0.113976 0 0 0 0 0.199896 0 0 0 0 0.420833 0 0 0 0.15 0"/>
<feBlend mode="normal" in2="BackgroundImageFix" result="effect1_dropShadow_14895_1968"/>
<feBlend mode="normal" in="SourceGraphic" in2="effect1_dropShadow_14895_1968" result="shape"/>
</filter>
<clipPath id="clip0_14895_1968">
<rect width="112" height="112" fill="white" transform="translate(143 89)"/>
</clipPath>
</defs>
</svg>
