<svg xmlns="http://www.w3.org/2000/svg" width="2.979em" height="1em" viewBox="0 0 37.835 12.7"><g style="display:inline"><g style="font-style:normal;font-variant:normal;font-weight:700;font-stretch:normal;font-size:8.46666622px;line-height:1;font-family:sans-serif;-inkscape-font-specification:'sans-serif Bold';letter-spacing:0;word-spacing:0;fill:#6161ff;fill-opacity:1;stroke:none;stroke-width:.26417112" aria-label="inv.ru"><path style="font-size:8.46666622px;line-height:1;fill:#6161ff;fill-opacity:1;stroke-width:.26417112" d="M101.407 54.729h1.48v4.63h-1.48zm0-1.802h1.48v1.207h-1.48zm7.557 3.613v2.82h-1.488V57.2q0-.6-.029-.827-.025-.227-.09-.334-.087-.145-.236-.224-.15-.082-.34-.082-.462 0-.727.36-.264.355-.264.987v2.278h-1.48v-4.63h1.48v.678q.334-.405.71-.595.377-.195.832-.195.802 0 1.215.492.418.492.418 1.43zm.79-1.811h1.48l1.153 3.2 1.15-3.2h1.484l-1.823 4.63h-1.625zm5.565 3.031h1.488v1.6h-1.488zm6.503-1.77q-.195-.091-.39-.132-.19-.046-.384-.046-.57 0-.88.368-.306.364-.306 1.046v2.133h-1.48v-4.63h1.48v.76q.285-.454.653-.66.372-.212.889-.212.074 0 .161.009.087.004.252.024zm.686 1.567v-2.828h1.488v.463q0 .376-.004.947-.004.566-.004.756 0 .558.029.806.029.244.1.356.09.145.235.223.149.079.339.079.463 0 .727-.356.265-.355.265-.988V54.73h1.48v4.63h-1.48v-.67q-.335.406-.711.6-.372.19-.823.19-.802 0-1.223-.492-.418-.492-.418-1.43z" transform="matrix(.9304 0 0 1.08153 -80.517 -54.889)"/></g><g style="display:inline"><g style="display:inline"><path d="M107.462 56.602a50.67 50.67 0 0 1-50.67 50.67 50.67 50.67 0 0 1-50.67-50.67 50.67 50.67 0 0 1 50.67-50.67 50.67 50.67 0 0 1 50.67 50.67Z" style="fill:none;fill-opacity:1;stroke:#6161ff;stroke-width:11.82289982;stroke-miterlimit:4;stroke-dasharray:none;stroke-opacity:1" transform="translate(.078 -.003) scale(.11224)"/></g><g style="display:inline"><g style="font-style:normal;font-variant:normal;font-weight:700;font-stretch:normal;font-size:89.61677551px;line-height:0;font-family:sans-serif;-inkscape-font-specification:'sans-serif Bold';letter-spacing:0;word-spacing:0;fill:#6161ff;fill-opacity:1;stroke:none;stroke-width:4.80009747;stroke-miterlimit:4;stroke-dasharray:none;stroke-opacity:1" aria-label="J"><path style="line-height:0;fill:#6161ff;fill-opacity:1;stroke:none;stroke-width:4.80009747;stroke-miterlimit:4;stroke-dasharray:none;stroke-opacity:1" d="M50.418 15.093h16.847v58.986q0 12.208-6.651 18.247-6.608 6.038-20.042 6.038H37.16V85.631h2.626q5.25 0 7.92-2.932 2.713-2.932 2.713-8.62z" transform="matrix(.11432 0 0 .1102 .078 -.003)"/></g></g></g></g></svg>