<svg width="40" height="44" viewBox="0 0 40 44" fill="none" xmlns="http://www.w3.org/2000/svg">
<path d="M38.8097 28.2216C41.7035 15.2196 30.3115 3.40788 16.9332 5.67533C9.67038 1.16873 0 6.26133 0 14.9016C0 16.911 0.554449 18.7922 1.51849 20.4137C-1.1705 33.4458 10.3147 45.0877 23.6815 42.6654C33.1304 47.6614 43.5717 37.6976 38.8097 28.2216ZM26.0924 36.0628C22.5825 37.5062 16.8066 37.5145 13.3118 35.6849C8.32839 33.0279 7.4426 27.0463 11.7417 27.0463C14.9818 27.0463 13.9561 30.8237 17.2279 32.3636C18.7297 33.0579 21.9582 33.1294 23.8346 31.8642C25.6878 30.6239 25.518 28.6728 24.5106 27.7405C21.8416 25.2766 14.2042 26.2555 10.7127 21.942C9.19586 20.0708 8.90947 16.7695 10.7743 14.3755C14.0244 10.1936 23.5616 9.93886 27.6625 13.097C31.4487 16.027 30.4264 19.916 27.3711 19.916C23.6964 19.916 25.6279 15.108 19.6954 15.108C15.3947 15.108 13.703 18.1663 16.7317 19.6546C20.8376 21.694 31.3005 21.0131 31.3005 28.9824C31.2922 32.2987 29.2592 34.7709 26.0924 36.0628Z" fill="white"/>
</svg>
